<svg width="58.124496" height="64.000000" viewBox="0 0 58.1245 64" fill="none" xmlns="http://www.w3.org/2000/svg" xmlns:xlink="http://www.w3.org/1999/xlink">
	<desc>
			Created with Pixso.
	</desc>
	<defs/>
	<path id="Vector" d="M5.17 45.49C7.95 56.3 17.77 64 29.06 64C40.35 64 50.17 56.3 52.95 45.49C55.88 44.97 58.12 42.4 58.12 39.32C58.12 36.23 55.88 33.66 52.95 33.14C50.45 23.43 42.26 16.23 32.42 14.87C32.42 14.87 32.42 14.87 32.42 14.87C34.17 12.97 35.08 10.93 35.08 8.92C35.08 5.67 32.81 2.75 28.33 0.24C27.42 -0.27 26.28 0.05 25.77 0.95C25.27 1.86 25.59 3 26.49 3.51C28.7 4.74 31.33 6.69 31.33 8.92C31.34 11.42 28.18 13.86 26.71 14.75C16.43 15.73 7.75 23.09 5.17 33.14C2.23 33.66 0 36.23 0 39.32C0 42.4 2.23 44.97 5.17 45.49ZM6.51 36.81C7.47 36.9 8.34 36.25 8.53 35.3C10.43 25.5 19.06 18.39 29.06 18.39C39.05 18.39 47.69 25.5 49.59 35.3C49.77 36.25 50.65 36.9 51.6 36.81C53.14 36.67 54.37 37.87 54.37 39.32C54.37 40.76 53.14 41.96 51.6 41.83C50.65 41.74 49.77 42.39 49.59 43.34C47.69 53.13 39.05 60.25 29.06 60.25C19.06 60.25 10.43 53.13 8.53 43.34C8.35 42.43 7.52 41.74 6.51 41.83C4.98 41.96 3.75 40.76 3.75 39.32C3.75 37.87 4.97 36.67 6.51 36.81Z" fill="#FFCF3C" fill-opacity="1.000000" fill-rule="nonzero"/>
	<path id="Vector" d="M22.03 48.71C21.22 49.35 21.09 50.53 21.74 51.34C23.53 53.57 26.2 54.85 29.06 54.85C31.92 54.85 34.58 53.57 36.38 51.34C37.02 50.53 36.9 49.35 36.09 48.71C35.28 48.06 34.1 48.18 33.45 48.99C32.38 50.33 30.77 51.1 29.06 51.1C27.34 51.1 25.74 50.33 24.66 48.99C24.01 48.18 22.83 48.06 22.03 48.71Z" fill="#FFCF3C" fill-opacity="1.000000" fill-rule="nonzero"/>
</svg>
