<svg width="66.000000" height="66.000000" viewBox="0 0 66 66" fill="none" xmlns="http://www.w3.org/2000/svg" xmlns:xlink="http://www.w3.org/1999/xlink">
	<desc>
			Created with Pixso.
	</desc>
	<defs/>
	<path id="Vector" d="M0 0L0 66L66 66L66 0L0 0ZM31.06 44.44L33.88 43C34.75 42.55 35.7 42.33 36.69 42.33C40.11 42.33 42.9 45.11 42.9 48.53C42.9 51.95 40.11 54.73 36.69 54.73C35.7 54.73 34.75 54.5 33.88 54.05L31.06 52.61L31.06 62.13L3.86 62.13L3.86 34.93L7.55 34.93C7.44 35.51 7.39 36.1 7.39 36.69C7.39 42.25 11.91 46.76 17.46 46.76C23.01 46.76 27.53 42.25 27.53 36.69C27.53 36.1 27.48 35.51 27.38 34.93L31.06 34.93L31.06 44.44ZM3.86 3.86L31.06 3.86L31.06 7.55C30.48 7.44 29.89 7.39 29.3 7.39C23.74 7.39 19.23 11.91 19.23 17.46C19.23 23.01 23.74 27.53 29.3 27.53C29.89 27.53 30.48 27.48 31.06 27.37L31.06 31.06L21.55 31.06L22.99 33.88C23.44 34.75 23.66 35.7 23.66 36.69C23.66 40.11 20.88 42.9 17.46 42.9C14.04 42.9 11.26 40.11 11.26 36.69C11.26 35.7 11.49 34.75 11.94 33.88L13.38 31.06L3.86 31.06L3.86 3.86ZM62.13 31.06L58.44 31.06C58.55 30.48 58.6 29.89 58.6 29.3C58.6 23.74 54.08 19.23 48.53 19.23C42.98 19.23 38.46 23.74 38.46 29.3C38.46 29.89 38.51 30.48 38.62 31.06L34.93 31.06L34.93 21.55L32.11 22.99C31.24 23.44 30.29 23.66 29.3 23.66C25.88 23.66 23.09 20.88 23.09 17.46C23.09 14.04 25.88 11.26 29.3 11.26C30.29 11.26 31.24 11.49 32.11 11.94L34.93 13.38L34.93 3.86L62.13 3.86L62.13 31.06ZM62.13 62.13L34.93 62.13L34.93 58.44C35.51 58.55 36.1 58.6 36.69 58.6C42.25 58.6 46.76 54.08 46.76 48.53C46.76 42.98 42.25 38.46 36.69 38.46C36.1 38.46 35.51 38.51 34.93 38.62L34.93 34.93L44.44 34.93L43 32.11C42.55 31.24 42.33 30.29 42.33 29.3C42.33 25.88 45.11 23.09 48.53 23.09C51.95 23.09 54.73 25.88 54.73 29.3C54.73 30.29 54.5 31.24 54.05 32.11L52.61 34.93L62.13 34.93L62.13 62.13Z" fill="#513CF3" fill-opacity="1.000000" fill-rule="nonzero"/>
</svg>
