<svg width="55.000000" height="44.905762" viewBox="0 0 55 44.9058" fill="none" xmlns="http://www.w3.org/2000/svg" xmlns:xlink="http://www.w3.org/1999/xlink">
	<desc>
			Created with Pixso.
	</desc>
	<defs/>
	<path id="Vector" d="M27.8 6.23C27.28 5.98 19.79 0 8.05 0L6.44 0L6.44 5.37C3.02 5.87 0.74 6.53 0 6.69L0 44.9C1.12 44.75 12.44 40.8 27.1 44.41L27.5 44.5L27.89 44.41C42.56 40.79 53.86 44.75 55 44.9L55 6.69C54.25 6.6 42.58 2.79 27.8 6.23ZM3.22 40.87L3.22 9.19C4.28 8.95 5.36 8.75 6.44 8.58L6.44 38.1L8.05 38.1C11.53 38.1 15.01 38.7 18.28 39.84C13.24 39.5 8.16 39.85 3.22 40.87ZM25.88 39.92C21.06 36.97 15.39 35.24 9.66 34.97L9.66 3.21C19.36 3.73 25.39 8.54 25.88 8.78L25.88 39.92ZM51.77 40.87C44.32 39.33 36.56 39.33 29.11 40.87L29.11 9.19C36.55 7.55 44.33 7.55 51.77 9.19L51.77 40.87Z" fill="#32B47A" fill-opacity="1.000000" fill-rule="nonzero"/>
</svg>
