<svg width="143.000000" height="194.000000" viewBox="0 0 143 194" fill="none" xmlns="http://www.w3.org/2000/svg" xmlns:xlink="http://www.w3.org/1999/xlink">
	<desc>
			Created with Pixso.
	</desc>
	<defs>
		<clipPath id="clip336_414">
			<rect id="Brain2 1" rx="0.000000" width="142.000000" height="193.000000" transform="translate(0.500000 0.500000)" fill="white" fill-opacity="0"/>
		</clipPath>
	</defs>
	<rect id="Brain2 1" rx="0.000000" width="142.000000" height="193.000000" transform="translate(0.500000 0.500000)" fill="#FFFFFF" fill-opacity="0"/>
	<g clip-path="url(#clip336_414)">
		<path id="Subtract" d="M128.293 13.9943C118.15 17.0493 107.677 12.8619 97.6451 8.85071C96.1825 8.26599 94.7292 7.68494 93.2878 7.13062C81.0387 2.4209 67.9321 -0.492188 54.8234 0.198242C41.7147 0.888672 28.5919 5.37427 18.774 14.069C9.42544 22.3478 3.48093 34.0989 1.25805 46.3727C-0.964817 58.6466 0.386299 71.4089 4.05131 83.3336C6.40969 91.0068 9.73692 98.4236 14.3364 105.007C19.3748 112.218 25.9483 118.47 29.5506 126.492C34.2896 137.044 33.2176 149.473 29.1441 160.298C25.3017 170.508 19.0139 179.575 12.3071 189L113.132 189C112.672 187.356 111.67 185.69 110.608 184.373C107.036 179.946 102.948 175.931 98.4556 172.436C95.0596 169.796 91.2752 167.264 89.4771 163.36C87.7963 159.708 88.1563 155.481 88.6782 151.494C89.0281 148.825 89.558 145.928 91.5847 144.152C93.1219 142.803 95.2436 142.365 97.2744 142.129C102.594 141.513 107.998 141.952 113.31 141.277C118.621 140.603 124.113 138.566 127.217 134.212C130.191 130.039 130.506 124.429 133.425 120.218C134.651 118.449 136.348 116.897 136.851 114.806C137.246 113.173 136.321 111.144 134.908 110.604C136.433 110.16 137.506 107.941 137.28 106.135C137.175 105.292 136.934 104.458 136.694 103.628C136.285 102.213 135.88 100.809 136.155 99.3845C136.898 95.543 142.104 93.8027 142.788 89.949C143.196 87.6416 141.766 85.3726 139.992 83.8403C138.216 82.3081 136.068 81.2563 134.284 79.7322C128.075 74.429 127.778 65.1267 127.84 56.969C127.903 48.8113 127.262 39.4303 120.737 34.5187C127.486 30.3319 130.89 21.4374 128.293 13.9943Z" clip-rule="evenodd" fill="#5B45FF" fill-opacity="1.000000" fill-rule="evenodd"/>
		<path id="Vector" d="M53.45 90.43L53.33 90.43L53.34 89.02L53.45 89.02C54.21 89.02 54.97 89 55.72 88.95L55.8 90.36C55.02 90.41 54.23 90.43 53.45 90.43ZM50.86 90.35C50.04 90.29 49.21 90.21 48.4 90.1L48.59 88.7C49.37 88.8 50.17 88.88 50.96 88.93L50.86 90.35ZM58.26 90.13L58.09 88.73C58.87 88.63 59.66 88.51 60.44 88.36L60.7 89.75C59.9 89.9 59.08 90.03 58.26 90.13ZM45.96 89.7C45.16 89.54 44.35 89.35 43.56 89.14L43.92 87.78C44.69 87.98 45.46 88.16 46.24 88.31L45.96 89.7ZM63.12 89.2L62.76 87.84C63.52 87.64 64.29 87.41 65.04 87.16L65.49 88.5C64.71 88.76 63.91 89 63.12 89.2ZM41.19 88.43C40.41 88.17 39.63 87.87 38.87 87.56L39.41 86.26C40.14 86.56 40.9 86.84 41.65 87.09L41.19 88.43ZM67.81 87.65L67.27 86.34C68 86.05 68.74 85.73 69.45 85.38L70.06 86.66C69.32 87.01 68.56 87.35 67.81 87.65ZM36.61 86.55C35.88 86.18 35.14 85.8 34.43 85.39L35.14 84.16C35.82 84.56 36.53 84.93 37.24 85.28L36.61 86.55ZM72.25 85.51L71.56 84.28C72.24 83.9 72.93 83.48 73.59 83.05L74.36 84.23C73.68 84.68 72.97 85.11 72.25 85.51ZM32.33 84.09C31.64 83.64 30.97 83.16 30.31 82.66L31.17 81.54C31.8 82.01 32.45 82.48 33.11 82.91L32.33 84.09ZM76.38 82.82L75.53 81.69C76.17 81.21 76.79 80.71 77.39 80.2L78.31 81.28C77.69 81.81 77.04 82.33 76.38 82.82ZM28.39 81.1C27.77 80.57 27.16 80 26.58 79.43L27.57 78.42C28.13 78.98 28.72 79.52 29.32 80.04L28.39 81.1ZM80.14 79.61L79.15 78.6C79.72 78.05 80.27 77.47 80.8 76.89L81.85 77.83C81.3 78.44 80.73 79.04 80.14 79.61ZM24.87 77.64C24.33 77.03 23.8 76.39 23.29 75.75L24.4 74.88C24.89 75.5 25.4 76.11 25.93 76.7L24.87 77.64ZM83.45 75.95L82.34 75.07C82.83 74.46 83.31 73.81 83.76 73.16L84.92 73.97C84.46 74.64 83.96 75.31 83.45 75.95ZM21.83 73.76C21.37 73.08 20.92 72.38 20.5 71.68L21.72 70.96C22.12 71.63 22.55 72.31 23 72.96L21.83 73.76ZM86.27 71.9L85.05 71.17C85.46 70.49 85.85 69.79 86.21 69.09L87.47 69.74C87.1 70.47 86.69 71.19 86.27 71.9ZM19.32 69.52C18.94 68.79 18.59 68.03 18.27 67.28L19.57 66.73C19.88 67.45 20.22 68.17 20.58 68.88L19.32 69.52ZM88.54 67.51L87.24 66.95C87.55 66.22 87.85 65.48 88.12 64.74L89.45 65.22C89.17 65.99 88.87 66.76 88.54 67.51ZM17.37 64.99C17.09 64.22 16.84 63.43 16.62 62.64L17.98 62.25C18.2 63.01 18.44 63.77 18.7 64.52L17.37 64.99ZM90.22 62.87L88.86 62.47C89.08 61.72 89.27 60.94 89.44 60.17L90.83 60.48C90.65 61.28 90.45 62.08 90.22 62.87ZM16.03 60.24C15.85 59.44 15.71 58.63 15.59 57.82L16.99 57.61C17.11 58.39 17.25 59.18 17.41 59.95L16.03 60.24ZM91.28 58.05L89.88 57.84C90 57.06 90.09 56.27 90.16 55.48L91.57 55.6C91.5 56.42 91.4 57.24 91.28 58.05ZM15.31 55.36C15.24 54.55 15.2 53.72 15.19 52.9L16.6 52.88C16.62 53.67 16.66 54.47 16.72 55.25L15.31 55.36ZM91.71 53.14L90.29 53.11C90.3 52.82 90.3 52.53 90.3 52.24C90.3 51.74 90.29 51.23 90.27 50.73L91.68 50.67C91.71 51.19 91.72 51.72 91.72 52.24C91.72 52.54 91.72 52.84 91.71 53.14ZM16.6 52.24L15.18 52.24C15.18 51.42 15.21 50.59 15.26 49.77L16.68 49.86C16.63 50.65 16.6 51.45 16.6 52.24ZM90.1 48.36C90.02 47.58 89.91 46.79 89.78 46.01L91.17 45.77C91.31 46.58 91.42 47.4 91.51 48.21L90.1 48.36ZM16.9 47.5L15.5 47.32C15.61 46.5 15.74 45.68 15.89 44.88L17.28 45.15C17.13 45.93 17.01 46.72 16.9 47.5ZM89.3 43.68C89.12 42.91 88.91 42.14 88.67 41.39L90.03 40.98C90.27 41.76 90.49 42.56 90.68 43.36L89.3 43.68ZM17.81 42.84L16.45 42.48C16.65 41.69 16.89 40.89 17.15 40.12L18.5 40.56C18.25 41.31 18.02 42.08 17.81 42.84ZM87.9 39.14C87.62 38.41 87.31 37.67 86.98 36.96L88.27 36.37C88.61 37.11 88.93 37.88 89.22 38.64L87.9 39.14ZM19.33 38.33L18.01 37.8C18.33 37.04 18.67 36.28 19.03 35.54L20.3 36.16C19.95 36.87 19.62 37.6 19.33 38.33ZM85.92 34.83C85.55 34.14 85.15 33.45 84.73 32.78L85.93 32.03C86.36 32.72 86.78 33.44 87.17 34.16L85.92 34.83ZM21.41 34.06L20.18 33.36C20.59 32.65 21.02 31.94 21.47 31.26L22.66 32.03C22.22 32.69 21.8 33.37 21.41 34.06ZM83.4 30.81C82.94 30.17 82.46 29.53 81.95 28.92L83.05 28.03C83.57 28.66 84.08 29.32 84.55 29.98L83.4 30.81ZM24.03 30.09L22.9 29.24C23.39 28.58 23.92 27.94 24.45 27.32L25.53 28.24C25.01 28.84 24.51 29.46 24.03 30.09ZM80.38 27.13C79.84 26.56 79.28 25.99 78.7 25.45L79.67 24.42C80.27 24.98 80.86 25.57 81.42 26.17L80.38 27.13ZM27.14 26.49L26.13 25.5C26.7 24.92 27.3 24.34 27.91 23.8L28.86 24.85C28.27 25.37 27.69 25.93 27.14 26.49ZM76.92 23.88C76.31 23.38 75.68 22.89 75.04 22.43L75.87 21.28C76.53 21.76 77.19 22.27 77.82 22.79L76.92 23.88ZM30.68 23.32L29.8 22.21C30.45 21.7 31.12 21.21 31.79 20.75L32.6 21.91C31.94 22.36 31.3 22.83 30.68 23.32ZM73.06 21.09C72.39 20.67 71.7 20.27 71.01 19.89L71.68 18.65C72.41 19.04 73.12 19.46 73.82 19.9L73.06 21.09ZM34.6 20.63L33.87 19.42C34.58 19 35.3 18.6 36.03 18.22L36.68 19.48C35.98 19.84 35.28 20.23 34.6 20.63ZM68.88 18.83C68.16 18.49 67.42 18.18 66.68 17.9L67.19 16.58C67.96 16.88 68.73 17.2 69.47 17.54L68.88 18.83ZM38.83 18.47L38.27 17.17C39.02 16.85 39.79 16.54 40.56 16.27L41.04 17.6C40.3 17.86 39.55 18.16 38.83 18.47ZM64.43 17.12C63.68 16.88 62.9 16.67 62.14 16.49L62.47 15.11C63.26 15.31 64.07 15.53 64.85 15.77L64.43 17.12ZM43.3 16.87L42.92 15.51C43.7 15.28 44.51 15.08 45.31 14.91L45.61 16.29C44.84 16.46 44.06 16.65 43.3 16.87ZM59.81 16C59.03 15.87 58.24 15.76 57.45 15.67L57.6 14.27C58.42 14.36 59.24 14.47 60.05 14.61L59.81 16ZM47.95 15.86L47.74 14.47C48.55 14.35 49.38 14.25 50.2 14.18L50.32 15.59C49.53 15.66 48.73 15.75 47.95 15.86ZM55.08 15.49C54.28 15.46 53.48 15.45 52.69 15.46L52.67 14.05C53.49 14.04 54.32 14.05 55.14 14.08L55.08 15.49Z" fill="#FFCF3C" fill-opacity="1.000000" fill-rule="nonzero"/>
		<path id="Vector" d="M83.04 112.24L82.92 112.24L82.92 110.82L83.04 110.82C83.79 110.82 84.56 110.8 85.3 110.75L85.39 112.16C84.61 112.21 83.82 112.24 83.04 112.24ZM80.45 112.15C79.63 112.09 78.8 112.01 77.99 111.9L78.17 110.5C78.95 110.61 79.75 110.68 80.54 110.74L80.45 112.15ZM87.85 111.94L87.67 110.53C88.46 110.43 89.25 110.31 90.02 110.16L90.29 111.55C89.48 111.7 88.66 111.83 87.85 111.94ZM75.55 111.5C74.75 111.34 73.93 111.16 73.14 110.94L73.51 109.58C74.27 109.78 75.05 109.96 75.83 110.12L75.55 111.5ZM92.7 111.01L92.34 109.64C93.11 109.44 93.88 109.21 94.63 108.97L95.07 110.31C94.29 110.57 93.5 110.8 92.7 111.01ZM70.78 110.23C70 109.97 69.22 109.68 68.46 109.36L69 108.06C69.73 108.36 70.48 108.64 71.23 108.89L70.78 110.23ZM97.39 109.46L96.86 108.15C97.59 107.85 98.32 107.53 99.03 107.19L99.65 108.46C98.91 108.81 98.15 109.15 97.39 109.46ZM66.2 108.35C65.46 107.99 64.73 107.6 64.02 107.19L64.72 105.96C65.41 106.36 66.12 106.73 66.83 107.08L66.2 108.35ZM101.84 107.32L101.14 106.09C101.83 105.7 102.51 105.28 103.17 104.85L103.95 106.04C103.26 106.48 102.55 106.91 101.84 107.32ZM61.91 105.89C61.23 105.44 60.55 104.96 59.9 104.46L60.75 103.34C61.38 103.82 62.04 104.28 62.69 104.72L61.91 105.89ZM105.97 104.62L105.12 103.49C105.75 103.02 106.38 102.52 106.98 102L107.9 103.08C107.28 103.61 106.63 104.13 105.97 104.62ZM57.98 102.91C57.36 102.37 56.75 101.81 56.16 101.23L57.16 100.23C57.72 100.78 58.31 101.32 58.91 101.84L57.98 102.91ZM109.73 101.41L108.74 100.4C109.3 99.85 109.86 99.27 110.39 98.69L111.44 99.64C110.89 100.25 110.31 100.84 109.73 101.41ZM54.46 99.44C53.91 98.83 53.38 98.19 52.88 97.55L53.99 96.68C54.48 97.3 54.99 97.91 55.52 98.5L54.46 99.44ZM113.04 97.75L111.93 96.88C112.42 96.26 112.9 95.61 113.35 94.97L114.51 95.77C114.04 96.45 113.55 97.11 113.04 97.75ZM51.42 95.56C50.96 94.88 50.51 94.18 50.09 93.48L51.31 92.76C51.71 93.44 52.14 94.11 52.59 94.76L51.42 95.56ZM115.85 93.7L114.64 92.97C115.05 92.29 115.44 91.6 115.8 90.89L117.06 91.54C116.68 92.27 116.28 93 115.85 93.7ZM48.9 91.32C48.53 90.59 48.18 89.84 47.86 89.09L49.16 88.53C49.47 89.25 49.81 89.97 50.16 90.68L48.9 91.32ZM118.12 89.31L116.83 88.75C117.14 88.03 117.44 87.28 117.71 86.54L119.04 87.02C118.76 87.79 118.45 88.56 118.12 89.31ZM46.96 86.79C46.68 86.02 46.43 85.23 46.21 84.44L47.57 84.06C47.79 84.81 48.03 85.58 48.29 86.32L46.96 86.79ZM119.8 84.67L118.44 84.28C118.66 83.52 118.86 82.75 119.03 81.98L120.41 82.28C120.24 83.08 120.03 83.89 119.8 84.67ZM45.61 82.05C45.44 81.25 45.3 80.43 45.18 79.62L46.58 79.41C46.69 80.2 46.84 80.98 47 81.75L45.61 82.05ZM120.86 79.85L119.46 79.64C119.58 78.86 119.68 78.07 119.75 77.28L121.16 77.41C121.09 78.22 120.99 79.04 120.86 79.85ZM44.9 77.17C44.83 76.35 44.79 75.52 44.78 74.7L46.19 74.68C46.21 75.47 46.24 76.27 46.31 77.05L44.9 77.17ZM121.29 74.94L119.88 74.91C119.88 74.62 119.89 74.33 119.89 74.04C119.89 73.54 119.88 73.03 119.86 72.53L121.27 72.48C121.29 72.99 121.3 73.52 121.3 74.04C121.3 74.34 121.3 74.64 121.29 74.94ZM46.19 74.04L44.77 74.04C44.77 73.22 44.8 72.39 44.85 71.58L46.26 71.67C46.21 72.45 46.19 73.25 46.19 74.04ZM119.69 70.16C119.6 69.38 119.49 68.59 119.36 67.81L120.76 67.57C120.9 68.38 121.01 69.2 121.1 70.01L119.69 70.16ZM46.49 69.3L45.09 69.12C45.19 68.31 45.32 67.49 45.48 66.69L46.87 66.96C46.72 67.73 46.59 68.52 46.49 69.3ZM118.89 65.48C118.7 64.72 118.49 63.94 118.26 63.19L119.61 62.78C119.85 63.56 120.07 64.36 120.27 65.16L118.89 65.48ZM47.4 64.64L46.03 64.28C46.24 63.49 46.48 62.69 46.74 61.92L48.08 62.37C47.83 63.11 47.6 63.88 47.4 64.64ZM117.49 60.95C117.2 60.21 116.9 59.48 116.57 58.76L117.86 58.17C118.2 58.92 118.52 59.68 118.81 60.44L117.49 60.95ZM48.91 60.14L47.6 59.6C47.91 58.84 48.25 58.08 48.61 57.35L49.89 57.96C49.54 58.67 49.21 59.4 48.91 60.14ZM115.51 56.63C115.14 55.94 114.73 55.25 114.31 54.58L115.52 53.83C115.95 54.53 116.37 55.24 116.76 55.96L115.51 56.63ZM51 55.86L49.77 55.16C50.17 54.45 50.61 53.74 51.06 53.06L52.24 53.83C51.81 54.49 51.39 55.18 51 55.86ZM112.99 52.61C112.53 51.97 112.04 51.34 111.54 50.73L112.63 49.83C113.16 50.46 113.66 51.12 114.14 51.79L112.99 52.61ZM53.61 51.89L52.49 51.04C52.98 50.39 53.5 49.74 54.04 49.12L55.11 50.04C54.6 50.64 54.09 51.26 53.61 51.89ZM109.97 48.94C109.43 48.36 108.87 47.79 108.29 47.25L109.26 46.22C109.86 46.79 110.45 47.37 111.01 47.97L109.97 48.94ZM56.72 48.29L55.71 47.3C56.29 46.72 56.89 46.15 57.5 45.6L58.44 46.65C57.85 47.18 57.28 47.73 56.72 48.29ZM106.51 45.68C105.9 45.18 105.26 44.69 104.62 44.23L105.46 43.08C106.12 43.56 106.78 44.07 107.41 44.59L106.51 45.68ZM60.27 45.12L59.39 44.01C60.03 43.5 60.7 43.01 61.38 42.55L62.18 43.71C61.53 44.16 60.89 44.64 60.27 45.12ZM102.65 42.9C101.98 42.48 101.29 42.07 100.6 41.69L101.27 40.45C101.99 40.84 102.71 41.26 103.4 41.7L102.65 42.9ZM64.19 42.43L63.46 41.22C64.16 40.8 64.89 40.4 65.62 40.03L66.26 41.28C65.56 41.64 64.86 42.03 64.19 42.43ZM98.46 40.63C97.74 40.3 97.01 39.99 96.27 39.7L96.78 38.38C97.54 38.68 98.31 39 99.06 39.35L98.46 40.63ZM68.41 40.27L67.85 38.97C68.6 38.65 69.38 38.34 70.15 38.07L70.63 39.4C69.88 39.67 69.14 39.96 68.41 40.27ZM94.02 38.92C93.26 38.69 92.49 38.47 91.72 38.29L92.06 36.92C92.85 37.11 93.65 37.33 94.44 37.57L94.02 38.92ZM72.89 38.67L72.5 37.31C73.29 37.09 74.1 36.89 74.9 36.71L75.2 38.09C74.43 38.26 73.65 38.46 72.89 38.67ZM89.39 37.81C88.62 37.67 87.82 37.56 87.04 37.47L87.19 36.07C88.01 36.16 88.83 36.27 89.64 36.41L89.39 37.81ZM77.54 37.67L77.33 36.27C78.14 36.15 78.97 36.05 79.79 35.98L79.91 37.39C79.12 37.46 78.32 37.55 77.54 37.67ZM84.66 37.3C83.87 37.26 83.07 37.25 82.28 37.27L82.25 35.85C83.07 35.84 83.9 35.85 84.72 35.88L84.66 37.3Z" fill="#F15A24" fill-opacity="1.000000" fill-rule="nonzero"/>
		<path id="Vector" d="M58.01 116.25C55.84 115.31 53.77 114.15 51.82 112.81C49.85 111.44 47.9 109.7 47.37 107.35C46.95 105.5 47.53 103.48 48.8 102.06C50.06 100.64 51.95 99.84 53.86 99.81C54.57 99.79 55.3 99.89 55.96 100.17C56.67 100.48 57.28 100.99 57.78 101.59C59.21 103.29 59.73 105.61 59.67 107.83C59.6 110.06 59 112.22 58.01 116.25Z" fill="#FFCF3C" fill-opacity="1.000000" fill-rule="nonzero"/>
		<path id="Vector" d="M106.07 42.19C103.59 43.69 101.11 45.19 98.63 46.68C99.01 48.92 99.4 51.16 99.78 53.4C100.51 52.58 101.51 51.9 102.62 51.89C103.72 51.88 104.86 52.76 104.82 53.86C104.79 54.8 103.98 55.52 103.18 56.02C102.31 56.56 101.37 57 100.39 57.3C102.08 58.48 104.3 58.85 106.28 58.28C108.26 57.7 109.94 56.21 110.74 54.31C111.47 52.59 111.34 50.34 109.89 49.17C108.49 48.04 106.43 48.29 104.78 48.99C104.84 48.21 104.82 47.42 104.7 46.65C105.53 46.26 106.33 45.8 107.1 45.29C106.76 44.71 106.52 44.07 106.07 42.19Z" fill="#EF584E" fill-opacity="1.000000" fill-rule="nonzero"/>
		<path id="Vector" d="M45.78 17.16C45.78 17.16 43.4 23.39 43.28 23.39C42.58 22.8 40.72 22.06 39.94 23.54C39.55 24.27 39.86 25.21 40.4 25.84C40.62 26.11 41.67 27.09 43.01 26.31C43.47 26.04 43.73 25.55 43.97 25.08L45.82 20.14L49.47 23.04C49.47 23.04 47.86 27.84 47.84 27.94C46.97 26.73 44.33 26.45 44 28.24C43.75 29.66 45.36 31.81 47.23 30.96C47.89 30.66 48.37 30 48.45 29.29L51.2 21.5L45.78 17.16Z" fill="#2DBC7C" fill-opacity="1.000000" fill-rule="nonzero"/>
		<path id="Vector" d="M26.84 65.39L36.33 67.73L28.96 77.72L23.51 76.34L30.18 68.7L25.77 67.45L26.84 65.39Z" fill="#2DBC7C" fill-opacity="1.000000" fill-rule="nonzero"/>
		<path id="Vector" d="M61.94 56.05L57.98 49.71C56.59 47.48 57.27 44.56 59.5 43.17C61.73 41.79 64.66 42.47 66.05 44.69L70 51.03C71.39 53.25 70.71 56.18 68.48 57.56C66.26 58.95 63.32 58.27 61.94 56.05Z" fill="#FFCF3C" fill-opacity="1.000000" fill-rule="nonzero"/>
		<path id="Vector" d="M71.01 62.57L65.88 54.34C65.73 54.11 65.8 53.79 66.04 53.65C66.27 53.5 66.59 53.57 66.73 53.81L71.87 62.03C72.01 62.27 71.94 62.58 71.71 62.73C71.47 62.87 71.16 62.8 71.01 62.57Z" fill="#FFCF3C" fill-opacity="1.000000" fill-rule="nonzero"/>
		<path id="Vector" d="M68.51 63.52L73.83 60.22C74.07 60.07 74.38 60.14 74.53 60.38C74.68 60.61 74.6 60.92 74.37 61.07L69.05 64.38C68.81 64.53 68.5 64.46 68.35 64.22C68.2 63.98 68.28 63.67 68.51 63.52Z" fill="#FFCF3C" fill-opacity="1.000000" fill-rule="nonzero"/>
		<path id="Vector" d="M79.28 91.56L87.46 76.2L98.63 91.44L79.28 91.56Z" fill="#2DBC7C" fill-opacity="1.000000" fill-rule="nonzero"/>
	</g>
</svg>
