<svg width="180.000000" height="150.910889" viewBox="0 0 180 150.911" fill="none" xmlns="http://www.w3.org/2000/svg" xmlns:xlink="http://www.w3.org/1999/xlink">
	<desc>
			Created with Pixso.
	</desc>
	<defs>
		<clipPath id="clip331_82">
			<rect id="Brains 2" rx="0.000000" width="179.000000" height="149.910858" transform="translate(0.500000 0.500000)" fill="white" fill-opacity="0"/>
		</clipPath>
		<linearGradient x1="47.440186" y1="4.924316" x2="47.440186" y2="113.964996" id="paint_linear_331_84_0" gradientUnits="userSpaceOnUse">
			<stop stop-color="#FFCF3C"/>
			<stop offset="1.000000" stop-color="#FFCF3C"/>
		</linearGradient>
	</defs>
	<rect id="Brains 2" rx="0.000000" width="179.000000" height="149.910858" transform="translate(0.500000 0.500000)" fill="#FFFFFF" fill-opacity="0"/>
	<g clip-path="url(#clip331_82)">
		<path id="Vector" d="M80.41 5.67C76.45 4.41 71.98 4.75 68.28 6.59C65.06 8.19 62.53 10.8 59.75 13.04C59.2 13.49 58.61 13.93 57.9 14.04C57.08 14.17 56.27 13.82 55.47 13.6C51.47 12.46 47.2 14.43 43.97 16.98C40.74 19.52 38.03 22.71 34.42 24.73C29.97 27.21 24.17 27.96 21.19 31.99C20.07 33.5 19.47 35.34 18.26 36.79C16.29 39.12 12.76 40.34 11.91 43.22C11.53 44.48 11.73 45.93 10.97 47.01C10.39 47.83 9.38 48.25 8.5 48.76C6.05 50.21 4.33 52.76 3.97 55.51C3.8 56.85 3.92 58.28 3.31 59.5C2.85 60.45 2.01 61.16 1.41 62.02C-1.28 65.83 1.18 70.94 1.06 75.54C0.99 78.05 0.12 80.53 0.37 83.02C0.57 84.9 1.42 86.71 2.76 88.09C4.13 89.49 5.94 90.42 7.53 91.59C13.6 96.08 16.8 104.46 24.2 106.36C26.92 107.06 29.94 106.75 32.43 108.03C34.96 109.33 36.49 112.05 39.09 113.22C40.51 113.86 42.13 113.97 43.7 113.96C47.56 113.94 51.63 113.16 54.49 110.66C57.09 108.37 58.32 104.92 58.59 101.54C58.89 97.84 58.36 93.57 61.1 90.97C63.15 89.02 66.55 88.61 68.19 86.33C69.55 84.43 69.3 81.71 70.87 79.96C72.89 77.7 76.61 78.29 79.6 77.47C83.03 76.53 85.47 73.66 87.49 70.83C88.88 68.89 90.24 66.49 89.34 64.29C88.2 61.53 83.88 60.24 84.11 57.28C84.22 55.84 85.49 54.61 85.36 53.18C85.21 51.67 83.62 50.73 82.18 50.12C79.62 49.01 76.96 48.12 74.61 47.55C72.58 47.13 71.25 44.78 71.98 42.9C72.88 40.6 75.94 39.77 77.21 37.64C78.2 35.95 77.89 33.75 78.94 32.1C80.27 30.02 83.17 29.58 85.7 29.53C88.23 29.47 91.04 29.5 92.92 27.87C94.32 26.65 94.87 24.71 94.69 22.9C94.52 21.09 93.7 19.4 92.73 17.84C90.6 14.45 89.39 8.53 80.41 5.67Z" fill="url(#paint_linear_331_84_0)" fill-opacity="1.000000" fill-rule="nonzero"/>
		<path id="Vector" d="M37.52 105.34C37.39 105.34 37.26 105.31 37.15 105.23C36.86 105.02 36.79 104.61 36.99 104.32C38.79 101.71 40.73 99.15 42.76 96.72C44.9 94.15 47.31 91.56 50.36 90.02C53.84 88.26 57.71 88.26 60.46 90.02C60.76 90.21 60.85 90.61 60.67 90.91C60.48 91.22 60.08 91.31 59.78 91.12C57.91 89.93 54.61 89.32 50.94 91.18C48.1 92.62 45.8 95.1 43.75 97.56C41.74 99.96 39.82 102.49 38.04 105.07C37.92 105.25 37.72 105.34 37.52 105.34Z" fill="#E6A800" fill-opacity="1.000000" fill-rule="nonzero"/>
		<path id="Vector" d="M24.46 101.22C24.45 101.22 24.43 101.22 24.41 101.21C20.51 100.92 16.87 98.42 15.16 94.86C15 94.54 15.13 94.15 15.45 93.99C15.77 93.83 16.16 93.97 16.32 94.29C17.83 97.44 21.05 99.65 24.51 99.91C24.86 99.94 25.13 100.26 25.1 100.61C25.08 100.96 24.8 101.22 24.46 101.22Z" fill="#E6A800" fill-opacity="1.000000" fill-rule="nonzero"/>
		<path id="Vector" d="M10.96 92.84C10.91 92.84 10.86 92.83 10.8 92.82C10.46 92.73 10.25 92.38 10.34 92.03C11.26 88.38 13.82 85.23 17.19 83.61C18.47 83.01 19.6 82.75 20.65 82.83C22.33 82.96 23.7 83.93 25.03 84.86C25.21 84.98 25.39 85.11 25.57 85.23C27.65 86.66 29.92 87.77 32.32 88.53C32.66 88.63 32.85 89 32.74 89.34C32.64 89.68 32.28 89.88 31.94 89.77C29.42 88.97 27.03 87.81 24.85 86.31C24.66 86.18 24.48 86.06 24.3 85.93C23.11 85.1 21.89 84.24 20.55 84.13C19.73 84.06 18.81 84.28 17.75 84.79C14.72 86.24 12.42 89.07 11.59 92.35C11.51 92.64 11.25 92.84 10.96 92.84Z" fill="#E6A800" fill-opacity="1.000000" fill-rule="nonzero"/>
		<path id="Vector" d="M31.71 97.31C27.98 97.31 24.59 95.19 21.7 93.19C21.4 92.98 21.33 92.58 21.53 92.28C21.73 91.99 22.13 91.91 22.43 92.11C25.31 94.11 28.41 96.04 31.81 96.01C33.22 95.99 34.62 95.62 35.85 94.94C36.73 94.45 37.39 93.87 37.81 93.21C38.15 92.69 38.38 92.03 38.51 91.26C38.88 88.98 38.24 86.39 36.7 83.94C35.27 81.7 33.3 79.81 31.39 77.99C31.14 77.74 31.12 77.33 31.37 77.07C31.61 76.81 32.02 76.8 32.28 77.04C34.24 78.92 36.28 80.86 37.78 83.24C39.5 85.96 40.21 88.88 39.78 91.47C39.62 92.42 39.32 93.24 38.9 93.92C38.36 94.76 37.54 95.48 36.47 96.08C35.05 96.87 33.44 97.29 31.82 97.31C31.79 97.31 31.75 97.31 31.71 97.31Z" fill="#E6A800" fill-opacity="1.000000" fill-rule="nonzero"/>
		<path id="Vector" d="M8.57 85.5C8.36 85.5 8.16 85.4 8.03 85.22C6.21 82.53 6.73 78.46 9.17 76.34C9.61 75.96 10.08 75.65 10.53 75.34C10.96 75.07 11.35 74.8 11.71 74.5C12.48 73.84 12.89 73.05 12.8 72.37C12.66 71.35 11.52 70.69 10.42 70.05C10.28 69.97 10.14 69.89 10.01 69.81C7.85 68.52 6.04 66.57 4.93 64.3C4.77 63.98 4.9 63.59 5.22 63.43C5.54 63.27 5.92 63.4 6.08 63.72C7.08 65.77 8.71 67.53 10.66 68.69C10.79 68.77 10.93 68.84 11.07 68.92C12.31 69.64 13.86 70.54 14.08 72.2C14.22 73.34 13.67 74.54 12.54 75.5C12.12 75.85 11.67 76.15 11.24 76.44C10.8 76.73 10.38 77 10.01 77.32C8.05 79.04 7.63 82.32 9.1 84.48C9.3 84.78 9.22 85.18 8.93 85.39C8.82 85.46 8.69 85.5 8.57 85.5Z" fill="#E6A800" fill-opacity="1.000000" fill-rule="nonzero"/>
		<path id="Vector" d="M20.62 69.88C18.07 69.88 15.38 68.85 13.23 66.97C10.95 64.99 9.17 62.1 7.95 58.39C7.84 58.05 8.02 57.68 8.36 57.57C8.69 57.45 9.06 57.64 9.17 57.98C10.32 61.46 11.97 64.16 14.07 65.99C16.56 68.16 19.81 69.06 22.56 68.33C25.54 67.55 27.78 64.62 27.57 61.81C27.34 58.89 24.98 56.65 22.69 54.48L22.5 54.3C20.32 52.23 17.48 49.05 18.04 45.38C18.1 45.03 18.43 44.79 18.78 44.84C19.13 44.89 19.37 45.23 19.32 45.58C18.85 48.64 21.41 51.48 23.39 53.35L23.57 53.53C25.92 55.76 28.59 58.29 28.85 61.71C29.12 65.18 26.5 68.64 22.88 69.6C22.15 69.79 21.39 69.88 20.62 69.88Z" fill="#E6A800" fill-opacity="1.000000" fill-rule="nonzero"/>
		<path id="Vector" d="M58.36 82.93C58.17 82.93 57.97 82.84 57.85 82.66C56.46 80.77 54.12 79.79 51.86 78.85C51.61 78.74 51.37 78.64 51.12 78.54C48.62 77.48 45.62 75.88 44.61 72.88C43.79 70.43 44.62 67.43 46.69 65.43C48.29 63.89 52.14 62.84 53.72 62.46C56.94 61.69 60 61.39 61.91 61.67C62.26 61.72 62.51 62.05 62.46 62.41C62.4 62.77 62.08 63.01 61.73 62.96C57.93 62.41 49.6 64.41 47.58 66.37C45.87 68.03 45.16 70.48 45.83 72.47C46.68 74.97 49.37 76.39 51.62 77.34C51.86 77.44 52.1 77.54 52.35 77.65C54.78 78.66 57.29 79.71 58.88 81.89C59.09 82.18 59.03 82.59 58.75 82.8C58.63 82.89 58.5 82.93 58.36 82.93Z" fill="#E6A800" fill-opacity="1.000000" fill-rule="nonzero"/>
		<path id="Vector" d="M67.75 79.5C67.59 79.5 67.42 79.43 67.29 79.31C63.63 75.59 58.82 72.97 53.74 71.93C53.39 71.86 53.17 71.51 53.24 71.16C53.31 70.81 53.65 70.58 54 70.65C59.32 71.75 64.37 74.5 68.21 78.39C68.46 78.64 68.46 79.05 68.2 79.31C68.08 79.43 67.91 79.5 67.75 79.5Z" fill="#E6A800" fill-opacity="1.000000" fill-rule="nonzero"/>
		<path id="Vector" d="M69.84 71.29C66.98 71.29 64.08 69.69 62.52 67.14C60.84 64.39 60.73 60.69 62.23 57.7C63.67 54.84 66.47 52.71 69.72 52.01C70.07 51.93 70.41 52.15 70.48 52.51C70.56 52.86 70.34 53.2 69.99 53.28C67.12 53.9 64.64 55.77 63.38 58.29C62.07 60.88 62.16 64.09 63.61 66.45C65.1 68.89 68.03 70.32 70.73 69.92C73.22 69.56 75.21 67.92 77.32 66.17C78.88 64.87 80.51 63.53 82.39 62.71C82.72 62.57 83.1 62.72 83.24 63.05C83.38 63.38 83.23 63.76 82.9 63.9C81.18 64.65 79.63 65.94 78.14 67.18C75.99 68.96 73.76 70.8 70.92 71.21C70.56 71.27 70.2 71.29 69.84 71.29Z" fill="#E6A800" fill-opacity="1.000000" fill-rule="nonzero"/>
		<path id="Vector" d="M71.88 62.96C71.7 62.96 71.51 62.88 71.38 62.72C71.16 62.45 71.2 62.04 71.47 61.81C73.96 59.76 75.85 57.06 76.95 54.02C77.08 53.68 77.45 53.51 77.78 53.63C78.12 53.75 78.29 54.13 78.17 54.46C76.98 57.73 74.95 60.62 72.29 62.82C72.17 62.92 72.03 62.96 71.88 62.96Z" fill="#E6A800" fill-opacity="1.000000" fill-rule="nonzero"/>
		<path id="Vector" d="M36.19 61.35C33.46 61.35 30.73 60.45 28.6 58.73C28.32 58.51 28.28 58.1 28.5 57.81C28.72 57.53 29.13 57.49 29.4 57.71C32.48 60.2 36.95 60.76 40.54 59.13C40.86 58.98 41.25 59.12 41.39 59.45C41.54 59.78 41.4 60.16 41.07 60.31C39.54 61.01 37.86 61.35 36.19 61.35Z" fill="#E6A800" fill-opacity="1.000000" fill-rule="nonzero"/>
		<path id="Vector" d="M28.47 42.76C28.03 42.76 27.59 42.71 27.16 42.59C24.73 41.94 23.09 39.16 23.51 36.39C23.85 34.11 25.4 31.97 27.77 30.52C29.83 29.26 32.15 28.65 34.39 28.07C34.73 27.97 35.08 28.18 35.17 28.53C35.26 28.88 35.05 29.23 34.71 29.33C32.56 29.89 30.34 30.47 28.44 31.63C26.4 32.88 25.07 34.69 24.78 36.58C24.5 38.45 25.52 40.81 27.49 41.34C28.7 41.66 30.01 41.29 31.47 40.82C34.36 39.88 37.27 38.87 40.12 37.83C40.45 37.71 40.82 37.88 40.94 38.22C41.06 38.56 40.89 38.93 40.55 39.05C37.69 40.1 34.77 41.11 31.87 42.06C30.71 42.43 29.58 42.76 28.47 42.76Z" fill="#E6A800" fill-opacity="1.000000" fill-rule="nonzero"/>
		<path id="Vector" d="M36.53 49.85C36.36 49.85 36.2 49.78 36.07 49.66C35.82 49.4 35.82 48.99 36.07 48.74C37.66 47.14 39.78 46.44 41.84 45.76C42.23 45.63 42.61 45.5 42.99 45.37C45.92 44.35 47.63 43 48.22 41.24C49.01 38.91 47.56 36.53 46.9 35.61C46.18 34.62 45.34 33.75 44.44 32.83C43.79 32.16 43.12 31.47 42.51 30.73C41.24 29.2 39.79 26.82 40.1 24.21C40.15 23.85 40.47 23.6 40.82 23.64C41.17 23.68 41.42 24.01 41.38 24.37C41.12 26.51 42.39 28.56 43.5 29.9C44.08 30.6 44.73 31.27 45.36 31.92C46.25 32.83 47.17 33.77 47.94 34.85C49.58 37.13 50.13 39.61 49.44 41.66C48.71 43.82 46.74 45.44 43.41 46.6C43.03 46.73 42.63 46.86 42.24 46.99C40.33 47.63 38.35 48.28 36.98 49.66C36.86 49.78 36.69 49.85 36.53 49.85Z" fill="#E6A800" fill-opacity="1.000000" fill-rule="nonzero"/>
		<path id="Vector" d="M51.96 59.39C51.72 59.39 51.48 59.26 51.37 59.02C50.13 56.36 49.16 53.57 50.55 51.21C51.2 50.09 52.24 49.38 53.25 48.69L53.35 48.62C54.74 47.67 56.31 46.52 57.43 45.02C58.57 43.48 59.05 41.72 58.75 40.19C58.55 39.17 58.01 38.24 57.39 37.22C55.04 33.38 52.43 29.64 49.62 26.13L49.53 26.02C48.78 25.08 48.01 24.12 47.57 22.94C47.02 21.46 47.18 19.9 47.98 18.87C48.2 18.58 48.61 18.53 48.89 18.75C49.17 18.98 49.22 19.39 49 19.67C48.37 20.48 48.47 21.65 48.78 22.48C49.14 23.46 49.82 24.31 50.53 25.2L50.62 25.31C53.47 28.87 56.11 32.65 58.49 36.54C59.15 37.63 59.77 38.7 60.01 39.93C60.39 41.82 59.82 43.96 58.46 45.8C57.22 47.46 55.55 48.68 54.07 49.7L53.97 49.76C53.09 50.37 52.17 51 51.66 51.87C50.58 53.71 51.45 56.12 52.54 58.46C52.69 58.79 52.56 59.18 52.23 59.33C52.14 59.37 52.05 59.39 51.96 59.39Z" fill="#E6A800" fill-opacity="1.000000" fill-rule="nonzero"/>
		<path id="Vector" d="M37.32 54.59C36.36 54.59 35.3 54.45 34.14 54.17C33.06 53.9 31.47 53.43 30.22 52.39C28.35 50.83 27.61 48.52 26.89 45.88C26.8 45.54 27 45.18 27.34 45.08C27.68 44.99 28.04 45.19 28.13 45.54C28.79 47.96 29.46 50.07 31.03 51.38C32.09 52.26 33.48 52.67 34.44 52.9C36.21 53.33 37.63 53.4 38.89 53.13C39.48 53 40.06 52.79 40.68 52.56C41.78 52.16 42.91 51.75 44.15 51.82C44.5 51.84 44.78 52.14 44.76 52.5C44.74 52.86 44.44 53.14 44.08 53.12C43.1 53.07 42.14 53.42 41.11 53.79C40.49 54.02 39.84 54.25 39.16 54.4C38.58 54.52 37.97 54.59 37.32 54.59Z" fill="#E6A800" fill-opacity="1.000000" fill-rule="nonzero"/>
		<path id="Vector" d="M69.66 37.78C69.38 37.78 69.12 37.59 69.04 37.29C68.62 35.69 68.2 34.29 67.21 33.41C66.72 32.99 66.1 32.68 65.49 32.39L60.2 29.86C59.87 29.7 59.74 29.31 59.89 28.99C60.04 28.66 60.43 28.53 60.75 28.68L66.05 31.22C66.7 31.53 67.44 31.89 68.06 32.43C69.43 33.64 69.9 35.48 70.29 36.96C70.38 37.31 70.17 37.66 69.83 37.76C69.77 37.77 69.72 37.78 69.66 37.78Z" fill="#E6A800" fill-opacity="1.000000" fill-rule="nonzero"/>
		<path id="Vector" d="M71.64 31.05C71.5 31.05 71.35 31 71.23 30.9L66.66 27.07C64.9 25.59 62.89 23.91 61.7 21.65C60.57 19.51 60.2 16.36 61.94 14.17C62.16 13.89 62.56 13.84 62.84 14.06C63.12 14.29 63.17 14.7 62.94 14.98C61.57 16.71 61.9 19.27 62.84 21.04C63.91 23.07 65.81 24.66 67.49 26.07L72.05 29.9C72.33 30.13 72.37 30.54 72.14 30.81C72.01 30.97 71.83 31.05 71.64 31.05Z" fill="#E6A800" fill-opacity="1.000000" fill-rule="nonzero"/>
		<path id="Vector" d="M78.09 27.75C77.9 27.75 77.7 27.66 77.58 27.49C75.33 24.48 72.79 21.07 69.23 19.36C68.91 19.2 68.78 18.81 68.93 18.49C69.08 18.16 69.47 18.03 69.79 18.18C73.63 20.03 76.28 23.58 78.61 26.71C78.82 27 78.76 27.41 78.48 27.62C78.36 27.71 78.23 27.75 78.09 27.75Z" fill="#E6A800" fill-opacity="1.000000" fill-rule="nonzero"/>
		<path id="Vector" d="M81.43 23.07C81.13 23.07 80.86 22.86 80.8 22.56C79.86 18.25 76.8 14.48 72.79 12.72C72.47 12.57 72.32 12.19 72.46 11.86C72.6 11.53 72.98 11.38 73.31 11.52C77.68 13.45 81.03 17.57 82.05 22.28C82.13 22.63 81.91 22.98 81.56 23.06C81.52 23.06 81.47 23.07 81.43 23.07Z" fill="#E6A800" fill-opacity="1.000000" fill-rule="nonzero"/>
		<path id="Vector" d="M58.91 54.2C58.82 54.2 58.72 54.18 58.63 54.14C58.31 53.98 58.18 53.59 58.33 53.27C60.5 48.78 64.43 45.27 69.11 43.65C69.45 43.54 69.81 43.72 69.93 44.06C70.05 44.4 69.87 44.77 69.53 44.89C65.17 46.4 61.51 49.66 59.49 53.84C59.38 54.07 59.15 54.2 58.91 54.2Z" fill="#E6A800" fill-opacity="1.000000" fill-rule="nonzero"/>
		<path id="Vector" d="M38.29 68.06C36.16 68.06 34.05 67.13 32.64 65.51C32.4 65.24 32.43 64.83 32.69 64.59C32.96 64.35 33.37 64.38 33.6 64.65C35.03 66.29 37.31 67.07 39.43 66.65C39.78 66.58 40.12 66.8 40.19 67.16C40.26 67.51 40.03 67.85 39.68 67.92C39.22 68.01 38.75 68.06 38.29 68.06Z" fill="#E6A800" fill-opacity="1.000000" fill-rule="nonzero"/>
		<path id="Vector" d="M23.04 79.97C22.69 79.97 22.41 79.69 22.4 79.34C22.34 77.26 22.41 74.92 24.04 73.48C25.04 72.59 26.38 72.33 27.44 72.2C30.12 71.87 32.9 72.15 35.47 72.99C35.81 73.1 36 73.47 35.89 73.81C35.78 74.15 35.41 74.34 35.07 74.23C32.68 73.45 30.09 73.19 27.59 73.49C26.72 73.6 25.63 73.8 24.89 74.46C23.68 75.53 23.63 77.52 23.68 79.3C23.69 79.66 23.41 79.96 23.06 79.97C23.05 79.97 23.05 79.97 23.04 79.97Z" fill="#E6A800" fill-opacity="1.000000" fill-rule="nonzero"/>
		<path id="Vector" d="M19.89 61.77C19.73 61.77 19.56 61.71 19.44 61.58C16.2 58.34 13.34 54.7 10.94 50.78C10.75 50.48 10.84 50.08 11.15 49.89C11.45 49.7 11.85 49.79 12.03 50.1C14.38 53.93 17.18 57.48 20.34 60.66C20.6 60.91 20.6 61.32 20.35 61.58C20.22 61.71 20.06 61.77 19.89 61.77Z" fill="#E6A800" fill-opacity="1.000000" fill-rule="nonzero"/>
		<path id="Vector" d="M46.92 112.09C46.89 112.09 46.86 112.09 46.83 112.09C46.48 112.04 46.23 111.71 46.28 111.35C47 106.02 48.81 100.75 51.52 96.11C51.7 95.8 52.09 95.7 52.4 95.88C52.71 96.07 52.81 96.46 52.63 96.77C50.01 101.26 48.26 106.37 47.56 111.53C47.51 111.86 47.24 112.09 46.92 112.09Z" fill="#E6A800" fill-opacity="1.000000" fill-rule="nonzero"/>
		<path id="Vector" d="M86.56 110.84C85.78 113.57 86.74 116.57 88.42 118.84C90.1 121.11 92.43 122.8 94.74 124.41C106.43 132.56 118.68 139.89 131.37 146.33C135.51 148.42 139.8 150.46 144.41 150.87C147.12 151.11 150.51 150.25 151.13 147.57C151.22 147.19 151.24 146.8 151.23 146.41C151.13 141.96 147.14 138.66 143.22 136.64C139.3 134.61 134.87 133.02 132.3 129.41C127 121.95 132.63 110.82 128.64 102.57C125.73 96.55 118.26 93.92 111.71 94.85C105.15 95.78 99.35 99.54 86.56 110.84Z" fill="#D5D0FF" fill-opacity="1.000000" fill-rule="nonzero"/>
		<path id="Vector" d="M138.87 85.31C138.13 88.15 135.85 90.33 133.38 91.87C130.92 93.42 128.17 94.48 125.7 96.02C125.16 96.36 124.6 96.76 124.34 97.35C124.07 97.98 124.19 98.71 124.32 99.39C124.95 102.68 125.65 106.02 125.31 109.36C124.9 113.29 123.06 117.41 124.66 121.02C125.86 123.72 128.72 125.3 131.57 125.95C140.28 127.9 148.92 122.8 156.06 117.38C159.35 114.88 162.7 112.08 164.15 108.19C166.16 102.8 163.86 96.43 159.64 92.56C155.41 88.69 149.62 86.98 138.87 85.31Z" fill="#2DBC7C" fill-opacity="1.000000" fill-rule="nonzero"/>
		<path id="Vector" d="M125.57 44.36C123.01 46.84 124.58 51.97 121.62 53.95C119.82 55.15 117.56 55.29 115.48 55.88C110.69 57.22 106.92 60.95 102.35 62.94C98.03 64.83 93.02 65.07 88.55 63.6C85.84 62.71 83.11 60.93 82.43 58.14C82.2 57.2 82.22 56.2 81.93 55.28C81.03 52.34 77.61 51.21 74.72 50.22C71.83 49.23 68.54 47.2 68.78 44.13C68.94 42.07 70.67 40.55 71.79 38.83C74.15 35.23 74.48 29.81 78.41 28.12C81.6 26.75 85.99 28.62 88.36 26.06C89.59 24.73 89.66 22.63 89.03 20.93C88.39 19.23 87.16 17.83 85.95 16.48C84.46 14.81 82.97 13.14 81.47 11.47C80.25 10.1 78.94 8.48 79.18 6.65C79.47 4.36 81.93 3.14 84.08 2.35C87.54 1.09 91.18 -0.1 94.83 0.39C97.44 0.73 99.88 1.93 102.47 2.4C106.19 3.08 109.98 2.25 113.75 2.07C117.51 1.9 121.69 2.58 124.12 5.49C124.69 6.18 125.17 6.99 125.93 7.46C126.64 7.89 127.49 7.98 128.31 8.05C134.99 8.63 142.25 9.55 146.98 14.36C149.65 17.06 151.21 20.9 150.95 24.71C150.69 28.51 148.52 32.19 145.21 34.01C142.12 35.72 138.22 35.84 135.55 38.15C133.13 40.22 129.99 40.08 125.57 44.36Z" fill="#5B45FF" fill-opacity="1.000000" fill-rule="nonzero"/>
		<path id="Vector" d="M151.35 27.94C145.34 28.27 142.07 32.91 136.86 35.62C131.31 38.52 125.07 41.07 121.72 46C117.17 52.68 119.53 61.43 123.46 68.42C124.51 70.29 125.7 72.23 125.68 74.33C125.64 77.81 122.33 80.67 121.99 84.14C121.81 85.96 122.57 87.89 124.16 89.04C125.75 90.19 128.17 90.4 129.85 89.36C131.2 88.52 132.03 86.99 133.6 86.55C135.92 85.9 138.02 88.03 139.02 90.02C140.75 93.48 142.06 97.9 146.12 98.94C148.4 99.53 151.19 98.86 152.96 100.29C153.58 100.79 153.97 101.48 154.48 102.07C155.47 103.21 156.92 103.95 158.39 104.55C161.88 105.96 166.03 106.7 169.48 105.21C172.94 103.72 174.9 99.34 172.53 96.64C172.05 96.1 171.42 95.62 171.27 94.94C171 93.68 172.49 92.75 173.72 92.1C176.25 90.77 178.83 88.34 177.88 85.85C177.63 85.21 177.18 84.66 176.9 84.04C176.36 82.83 176.54 81.47 176.72 80.17C177.48 74.79 178.25 69.41 179.01 64.03C179.39 61.36 179.16 57.81 176.28 57.1C175.43 56.88 174.51 57 173.67 56.75C170 55.64 172.09 49.87 169.1 47.67C168.33 47.1 167.29 46.85 166.6 46.2C165.84 45.47 165.67 44.39 165.6 43.39C165.33 39.43 165.79 34.91 162.71 32.08C160.19 29.78 156.42 27.66 151.35 27.94Z" fill="#178AD6" fill-opacity="1.000000" fill-rule="nonzero"/>
		<path id="Vector" d="M121.84 54.89C118.86 53.26 115.11 54.29 112.12 55.92C109.13 57.54 106.37 59.75 103.07 60.57C98.14 61.79 92.49 59.77 88.09 62.34C85.33 63.95 83.78 66.99 81.79 69.5C80.09 71.64 78 73.45 75.65 74.81C72.73 76.51 69.29 77.63 67.26 80.34C66.44 81.44 65.9 82.75 65.03 83.81C63.78 85.33 61.95 86.25 60.57 87.64C57.62 90.61 57.13 95.15 55.88 99.15C54.07 104.99 50.32 110.94 52.24 116.73C53.67 121 58.38 123.86 62.78 123.13C64.04 122.91 65.27 122.45 66.55 122.44C68.45 122.42 70.19 123.42 71.92 124.19C75.95 126 80.44 126.73 84.82 126.3C86.03 126.18 87.25 125.97 88.31 125.36C92.15 123.16 91.72 117.51 93.56 113.45C95.72 108.67 101.08 106.29 106.17 105.17C111.25 104.05 116.63 103.72 121.21 101.23C123.64 99.9 125.75 98.02 128.24 96.82C130.74 95.62 133.61 95.1 135.73 93.32C137.86 91.53 138.64 87.65 136.31 86.16C135.64 85.73 134.84 85.58 134.11 85.28C131.02 83.99 129.71 80.22 129.69 76.85C129.67 73.48 130.58 70.14 130.35 66.78C130.11 63.42 128.89 58.75 121.84 54.89Z" fill="#EF584E" fill-opacity="1.000000" fill-rule="nonzero"/>
		<path id="Vector" d="M134.1 122.12C132.89 122.12 132.04 121.7 131.56 120.87C130.79 119.51 131.55 117.83 132.53 116.71C134.8 114.09 137.87 112.66 140.84 111.28C143.77 109.91 146.54 108.62 148.65 106.29C149.03 105.87 149.45 105.27 149.3 104.76C149.24 104.52 149.03 104.32 148.87 104.2C148.11 103.61 146.98 103.5 145.43 103.89C142.42 104.63 139.61 106.28 136.88 107.88C135.55 108.66 134.17 109.47 132.78 110.17C131.97 110.58 130.78 110.88 129.89 110.52C129.4 110.32 129.05 109.94 128.87 109.44C128.59 108.62 128.86 107.68 129.64 106.73C130.78 105.35 132.22 104.37 133.61 103.42C135.19 102.34 136.68 101.32 137.73 99.79C138.05 99.33 138.17 98.95 138.09 98.68C137.95 98.22 137.19 98.16 136.87 98.15C134.19 98.11 131.48 99.16 129.44 101.07C129.21 101.29 128.85 101.27 128.64 101.04C128.43 100.81 128.44 100.45 128.67 100.23C130.93 98.13 133.92 96.95 136.89 97.01C138.09 97.03 138.92 97.52 139.17 98.35C139.36 98.97 139.19 99.67 138.66 100.44C137.49 102.15 135.84 103.27 134.25 104.36C132.86 105.31 131.54 106.21 130.52 107.46C130.22 107.82 129.75 108.5 129.94 109.06C130.01 109.25 130.13 109.38 130.32 109.46C130.76 109.64 131.55 109.51 132.28 109.15C133.64 108.46 135 107.66 136.31 106.89C139.11 105.25 142 103.55 145.17 102.78C147.07 102.31 148.51 102.48 149.56 103.29C149.99 103.63 150.27 104.02 150.39 104.45C150.62 105.26 150.32 106.14 149.49 107.06C147.22 109.57 144.22 110.97 141.31 112.32C138.32 113.71 135.49 115.03 133.38 117.46C132.69 118.25 132.06 119.47 132.54 120.31C132.89 120.92 133.73 121.11 135.04 120.89C141.97 119.73 148.55 115.68 153.1 109.8C153.29 109.55 153.64 109.51 153.89 109.7C154.14 109.9 154.18 110.26 153.99 110.51C149.27 116.61 142.43 120.81 135.23 122.02C134.82 122.08 134.45 122.12 134.1 122.12Z" fill="#48CD92" fill-opacity="1.000000" fill-rule="nonzero"/>
		<path id="Vector" d="M124.22 37.47C124.19 37.47 124.17 37.47 124.15 37.47C123.8 37.44 123.54 37.12 123.57 36.76C123.75 34.91 122.2 33.31 120.68 32.61C119.21 31.92 117.57 31.75 115.84 31.57C115.51 31.53 115.19 31.5 114.86 31.46C112.82 31.22 110.51 30.77 108.8 29.24C106.33 27.02 106.14 23.48 106.26 21.58C106.34 20.16 106.6 18.75 106.85 17.4C107.06 16.24 107.28 15.04 107.38 13.86C107.53 12.18 107.49 9.07 105.62 7.08C105.37 6.82 105.38 6.4 105.64 6.16C105.9 5.91 106.31 5.92 106.55 6.18C108.66 8.42 108.87 11.66 108.66 13.98C108.56 15.22 108.33 16.45 108.11 17.64C107.87 18.95 107.62 20.31 107.54 21.65C107.31 25.55 108.77 27.47 109.66 28.27C111.1 29.56 113.17 29.95 115.01 30.17C115.33 30.2 115.65 30.24 115.97 30.27C117.73 30.46 119.55 30.65 121.22 31.42C123.14 32.31 125.1 34.4 124.85 36.89C124.82 37.22 124.54 37.47 124.22 37.47Z" fill="#8172F1" fill-opacity="1.000000" fill-rule="nonzero"/>
		<path id="Vector" d="M133.75 34.54C133.45 34.54 133.18 34.33 133.12 34.02C132.32 30.15 128.78 25.27 121.25 23.17L121.08 23.12C120.32 22.91 119.45 22.67 118.77 22.08C117.5 20.99 117.4 19.29 117.3 17.78C117.27 17.21 117.23 16.66 117.14 16.14C116.63 13.23 114.03 11.09 111.41 9.14C111.12 8.93 111.06 8.52 111.27 8.24C111.48 7.95 111.89 7.88 112.17 8.1C115 10.2 117.82 12.53 118.41 15.92C118.51 16.5 118.55 17.11 118.59 17.7C118.67 19.07 118.75 20.36 119.6 21.09C120.07 21.5 120.73 21.68 121.42 21.87L121.6 21.91C124.66 22.77 127.45 24.23 129.67 26.14C132.16 28.28 133.79 30.91 134.38 33.75C134.45 34.1 134.23 34.44 133.88 34.52C133.84 34.53 133.79 34.54 133.75 34.54Z" fill="#8172F1" fill-opacity="1.000000" fill-rule="nonzero"/>
		<path id="Vector" d="M128.71 26.57C128.56 26.57 128.41 26.52 128.29 26.41C126.68 24.99 126.84 22.51 127.47 20.81C127.72 20.12 128.04 19.47 128.36 18.84C128.82 17.9 129.26 17.03 129.47 16.08C129.79 14.63 129.54 13.06 128.78 11.79C128.6 11.48 128.7 11.08 129 10.9C129.31 10.71 129.7 10.81 129.89 11.12C130.82 12.68 131.12 14.59 130.73 16.36C130.48 17.46 129.99 18.46 129.51 19.42C129.2 20.05 128.9 20.64 128.67 21.26C128.19 22.57 128.02 24.44 129.14 25.43C129.41 25.66 129.43 26.07 129.2 26.34C129.07 26.5 128.89 26.57 128.71 26.57Z" fill="#8172F1" fill-opacity="1.000000" fill-rule="nonzero"/>
		<path id="Vector" d="M136.69 21.62C136.57 21.62 136.45 21.59 136.34 21.52C136.04 21.32 135.95 20.92 136.14 20.62C137.39 18.66 137.96 16.3 137.74 13.97C137.71 13.62 137.97 13.3 138.32 13.27C138.67 13.23 138.99 13.49 139.02 13.85C139.27 16.46 138.63 19.11 137.23 21.32C137.1 21.51 136.9 21.62 136.69 21.62Z" fill="#8172F1" fill-opacity="1.000000" fill-rule="nonzero"/>
		<path id="Vector" d="M137.41 31.9C137.18 31.9 136.96 31.78 136.84 31.56C136.68 31.24 136.8 30.84 137.11 30.68C141.13 28.53 143.49 23.68 142.74 19.16C142.67 18.8 142.91 18.47 143.26 18.41C143.61 18.34 143.95 18.59 144.01 18.94C144.85 24 142.21 29.42 137.72 31.83C137.62 31.88 137.51 31.9 137.41 31.9Z" fill="#8172F1" fill-opacity="1.000000" fill-rule="nonzero"/>
		<path id="Vector" d="M100.56 18.8C100.43 18.8 100.3 18.77 100.18 18.68C99.89 18.47 99.83 18.07 100.03 17.78C100.5 17.11 100.99 16.43 101.26 15.69C101.58 14.81 101.66 13.77 101.49 12.39C101.28 10.58 100.64 8.1 98.81 6.5C98.54 6.27 98.51 5.85 98.75 5.58C98.98 5.31 99.39 5.28 99.65 5.52C101.79 7.39 102.53 10.2 102.77 12.23C102.96 13.83 102.86 15.07 102.47 16.14C102.13 17.04 101.6 17.8 101.08 18.53C100.96 18.71 100.76 18.8 100.56 18.8Z" fill="#8172F1" fill-opacity="1.000000" fill-rule="nonzero"/>
		<path id="Vector" d="M92.28 20.39C92.14 20.39 92 20.34 91.88 20.25C91.6 20.03 91.55 19.62 91.77 19.34C94.49 15.84 94.45 10.38 91.69 6.91C91.47 6.63 91.51 6.22 91.79 6C92.07 5.77 92.47 5.82 92.7 6.1C95.82 10.02 95.86 16.18 92.79 20.14C92.66 20.3 92.47 20.39 92.28 20.39Z" fill="#8172F1" fill-opacity="1.000000" fill-rule="nonzero"/>
		<path id="Vector" d="M94.25 37.84C91.83 37.84 90.1 37 88.62 34.93C87.66 33.56 87.43 31.91 87.26 30.19C87.23 29.83 87.49 29.51 87.84 29.48C88.2 29.45 88.51 29.71 88.55 30.07C88.69 31.6 88.89 33.07 89.67 34.17C91.97 37.4 94.94 37.12 103.31 34.55C103.65 34.44 104.01 34.64 104.11 34.98C104.21 35.33 104.02 35.69 103.68 35.79C99.62 37.04 96.61 37.84 94.25 37.84Z" fill="#8172F1" fill-opacity="1.000000" fill-rule="nonzero"/>
		<path id="Vector" d="M117.14 48.64C117.01 48.64 116.88 48.6 116.77 48.52C116.19 48.1 115.63 47.66 115.09 47.2L112.26 44.97C111.12 44.08 109.94 43.15 108.57 42.78C106.81 42.3 104.96 42.79 103.01 43.31C102.51 43.44 101.98 43.58 101.47 43.7C97.45 44.63 93.09 44.37 89.2 42.98C87.95 42.53 86.38 41.84 85.36 40.47C84.42 39.19 84.07 37.07 85.3 35.67C85.54 35.41 85.94 35.38 86.21 35.62C86.48 35.86 86.5 36.27 86.26 36.54C85.52 37.39 85.74 38.81 86.4 39.69C87.21 40.78 88.55 41.37 89.63 41.75C93.29 43.06 97.4 43.3 101.19 42.43C101.68 42.32 102.19 42.18 102.68 42.05C104.71 41.51 106.81 40.95 108.91 41.52C109.66 41.72 110.36 42.06 111.01 42.46C110.17 40.16 111.17 37.61 112.39 35.2C112.56 34.88 112.94 34.75 113.26 34.91C113.58 35.08 113.7 35.47 113.54 35.79C112.47 37.89 111.42 40.3 112.33 42.29C112.6 42.87 113.03 43.39 113.58 43.98C114.31 44.76 115.09 45.49 115.9 46.18L117.54 47.48C117.82 47.7 117.87 48.1 117.66 48.38C117.53 48.55 117.34 48.64 117.14 48.64Z" fill="#8172F1" fill-opacity="1.000000" fill-rule="nonzero"/>
		<path id="Vector" d="M111.4 55.32C111.19 55.32 110.98 55.22 110.85 55.02C110.13 53.85 109.31 52.52 108.16 51.73C107.3 51.13 106.24 50.82 105.32 50.57C104.07 50.23 102.61 49.89 101.11 49.91C99.29 49.92 97.46 50.49 95.94 51.5C95.65 51.7 95.25 51.62 95.05 51.32C94.86 51.02 94.94 50.61 95.23 50.41C96.95 49.27 99.03 48.62 101.1 48.6C102.74 48.58 104.32 48.95 105.65 49.31C106.68 49.59 107.86 49.94 108.89 50.65C110.26 51.6 111.16 53.05 111.95 54.33C112.14 54.63 112.04 55.04 111.74 55.22C111.64 55.29 111.52 55.32 111.4 55.32Z" fill="#8172F1" fill-opacity="1.000000" fill-rule="nonzero"/>
		<path id="Vector" d="M93.98 58.8C93.91 58.8 93.84 58.79 93.78 58.77C92.44 58.31 90.92 57.78 89.7 56.77C87.59 55.01 86.67 51.79 87.48 48.95C88.22 46.36 90.26 44.11 92.94 42.94C93.27 42.79 93.65 42.95 93.79 43.28C93.93 43.61 93.78 43.99 93.46 44.13C91.12 45.15 89.35 47.09 88.72 49.31C88.05 51.67 88.79 54.33 90.52 55.77C91.56 56.63 92.9 57.09 94.19 57.53C94.53 57.65 94.71 58.02 94.59 58.36C94.5 58.63 94.25 58.8 93.98 58.8Z" fill="#8172F1" fill-opacity="1.000000" fill-rule="nonzero"/>
		<path id="Vector" d="M96.26 30.91C96.06 30.91 95.86 30.81 95.73 30.63C95.53 30.33 95.6 29.93 95.9 29.73C98.84 27.68 102.26 26.3 105.79 25.72C106.14 25.66 106.47 25.9 106.52 26.25C106.58 26.61 106.34 26.94 105.99 27C102.65 27.55 99.41 28.86 96.62 30.8C96.51 30.88 96.39 30.91 96.26 30.91Z" fill="#8172F1" fill-opacity="1.000000" fill-rule="nonzero"/>
		<path id="Vector" d="M82.59 47.69C82.55 47.69 82.51 47.68 82.47 47.68C82.12 47.61 81.89 47.27 81.95 46.92C82.23 45.35 81 43.87 80.24 43.13C79.87 42.76 79.46 42.41 79.07 42.07C78.21 41.32 77.31 40.55 76.65 39.55C76.45 39.25 76.53 38.84 76.82 38.65C77.11 38.44 77.52 38.52 77.71 38.82C78.29 39.68 79.07 40.36 79.91 41.08C80.32 41.44 80.74 41.8 81.14 42.19C82.76 43.79 83.5 45.55 83.22 47.15C83.16 47.46 82.89 47.69 82.59 47.69Z" fill="#8172F1" fill-opacity="1.000000" fill-rule="nonzero"/>
		<path id="Vector" d="M145.26 41.53C145.04 41.53 144.83 41.42 144.71 41.22C144.52 40.91 144.62 40.51 144.93 40.32C148.71 38.02 152.09 35.14 154.98 31.76C155.21 31.49 155.62 31.46 155.88 31.7C156.15 31.93 156.18 32.34 155.95 32.61C152.98 36.09 149.49 39.06 145.59 41.44C145.49 41.5 145.37 41.53 145.26 41.53Z" fill="#6DB2DE" fill-opacity="1.000000" fill-rule="nonzero"/>
		<path id="Vector" d="M143.43 48.84C140.81 48.84 137.86 47.55 136.86 44.85C136.08 42.75 136.62 40.17 138.39 37.6C140.28 34.83 143.15 32.75 145.07 32.74C145.43 32.74 145.71 33.03 145.71 33.39C145.71 33.75 145.43 34.05 145.07 34.05C143.78 34.05 141.26 35.69 139.44 38.34C138.57 39.62 137.22 42.11 138.06 44.39C138.96 46.81 141.93 47.79 144.26 47.48C146.87 47.13 149.22 45.57 151.4 44L151.82 43.7C153.98 42.14 156.21 40.53 158.85 39.84C159.19 39.75 159.54 39.96 159.63 40.31C159.72 40.66 159.51 41.01 159.17 41.1C156.76 41.73 154.63 43.27 152.57 44.76L152.15 45.06C149.83 46.73 147.33 48.39 144.43 48.77C144.1 48.81 143.77 48.84 143.43 48.84Z" fill="#6DB2DE" fill-opacity="1.000000" fill-rule="nonzero"/>
		<path id="Vector" d="M150.56 54.17C150.36 54.17 150.16 54.07 150.03 53.89C149.83 53.59 149.91 53.19 150.2 52.98C154 50.34 158.05 47.98 162.23 45.98C162.55 45.82 162.94 45.96 163.09 46.28C163.24 46.61 163.1 47 162.78 47.15C158.67 49.13 154.68 51.45 150.93 54.06C150.82 54.13 150.69 54.17 150.56 54.17Z" fill="#6DB2DE" fill-opacity="1.000000" fill-rule="nonzero"/>
		<path id="Vector" d="M133.46 72.87C133.29 72.87 133.12 72.8 133 72.67C132.75 72.42 132.75 72 133.01 71.75C134.89 69.89 136.72 67.92 138.46 65.91C139.43 64.77 140.36 63.64 140.94 62.32C141.8 60.38 141.77 58.17 140.88 56.42C139.95 54.61 138.04 53.38 136.14 53.36C135.78 53.36 135.49 53.07 135.5 52.71C135.5 52.35 135.79 52.06 136.14 52.06C138.52 52.08 140.88 53.59 142.02 55.83C143.09 57.93 143.13 60.55 142.12 62.85C141.47 64.33 140.43 65.6 139.43 66.76C137.67 68.8 135.82 70.79 133.91 72.68C133.78 72.81 133.62 72.87 133.46 72.87Z" fill="#6DB2DE" fill-opacity="1.000000" fill-rule="nonzero"/>
		<path id="Vector" d="M164.4 88.96C164.31 88.96 164.21 88.94 164.11 88.89C163.22 88.43 162.3 87.99 161.41 87.56C159.64 86.7 157.82 85.82 156.09 84.78C152.99 82.93 150.77 80.89 149.3 78.56C147.48 75.66 146.92 72.23 147.81 69.37C148.84 66.07 151.87 63.69 155.02 63.72C157.68 63.75 159.95 65.3 162.01 66.98C164.33 68.87 166.55 70.95 168.6 73.14C168.84 73.4 168.83 73.81 168.57 74.06C168.31 74.31 167.91 74.3 167.66 74.04C165.65 71.88 163.48 69.85 161.2 68C159.32 66.47 157.27 65.05 155.01 65.03C154.99 65.03 154.98 65.03 154.96 65.03C152.42 65.03 149.88 67.06 149.04 69.77C148.26 72.26 148.77 75.28 150.39 77.86C151.75 80.02 153.83 81.92 156.75 83.67C158.42 84.67 160.23 85.54 161.97 86.39C162.86 86.82 163.79 87.27 164.7 87.73C165.01 87.9 165.14 88.29 164.98 88.61C164.87 88.83 164.64 88.96 164.4 88.96Z" fill="#6DB2DE" fill-opacity="1.000000" fill-rule="nonzero"/>
		<path id="Vector" d="M150.46 59.06C150.14 59.06 149.86 58.82 149.82 58.49C149.78 58.14 150.03 57.81 150.38 57.76C155.31 57.12 160.03 54.89 163.68 51.49C163.94 51.24 164.35 51.26 164.59 51.52C164.83 51.79 164.82 52.2 164.55 52.44C160.71 56.03 155.73 58.38 150.55 59.05C150.52 59.06 150.49 59.06 150.46 59.06Z" fill="#6DB2DE" fill-opacity="1.000000" fill-rule="nonzero"/>
		<path id="Vector" d="M160.51 63.77C160.17 63.77 159.89 63.51 159.87 63.17C159.75 61.29 160.81 59.3 162.68 57.83C164.53 56.39 166.72 55.66 168.84 55.78C169.19 55.8 169.46 56.11 169.45 56.47C169.43 56.83 169.12 57.11 168.77 57.08C166.98 56.98 165.05 57.63 163.47 58.86C161.93 60.07 161.07 61.65 161.16 63.09C161.18 63.45 160.91 63.76 160.55 63.78C160.54 63.77 160.52 63.77 160.51 63.77Z" fill="#6DB2DE" fill-opacity="1.000000" fill-rule="nonzero"/>
		<path id="Vector" d="M172.07 70.72C171.96 70.72 171.84 70.69 171.74 70.63C170.39 69.8 168.99 68.95 167.83 67.75C166.49 66.36 165.73 64.71 165.71 63.12C165.71 62.76 166 62.46 166.35 62.46C166.71 62.46 167 62.74 167 63.1C167.02 64.36 167.64 65.69 168.75 66.84C169.79 67.92 171.12 68.73 172.41 69.51C172.71 69.7 172.81 70.1 172.62 70.41C172.5 70.61 172.29 70.72 172.07 70.72Z" fill="#6DB2DE" fill-opacity="1.000000" fill-rule="nonzero"/>
		<path id="Vector" d="M134.62 84.11C134.39 84.11 134.16 83.98 134.05 83.77C133.88 83.45 134 83.05 134.31 82.88L143.32 78.05C143.63 77.89 144.02 78.01 144.19 78.32C144.36 78.64 144.24 79.03 143.92 79.2L134.92 84.03C134.82 84.08 134.72 84.11 134.62 84.11Z" fill="#6DB2DE" fill-opacity="1.000000" fill-rule="nonzero"/>
		<path id="Vector" d="M132.53 79.79C132.32 79.79 132.12 79.69 132 79.51C131.8 79.21 131.87 78.81 132.17 78.61C134.96 76.68 137.93 74.95 140.99 73.47C141.31 73.32 141.7 73.46 141.85 73.78C142 74.1 141.87 74.49 141.55 74.65C138.55 76.09 135.64 77.79 132.89 79.68C132.78 79.76 132.65 79.79 132.53 79.79Z" fill="#6DB2DE" fill-opacity="1.000000" fill-rule="nonzero"/>
		<path id="Vector" d="M127.48 56.94C127.21 56.94 126.97 56.78 126.87 56.51C125.34 52.15 126.8 46.86 130.33 43.92C130.61 43.69 131.02 43.73 131.24 44.01C131.47 44.29 131.43 44.7 131.15 44.92C128.02 47.53 126.73 52.21 128.09 56.07C128.2 56.41 128.03 56.78 127.69 56.9C127.62 56.93 127.55 56.94 127.48 56.94Z" fill="#6DB2DE" fill-opacity="1.000000" fill-rule="nonzero"/>
		<path id="Vector" d="M171.55 84.23C171.46 84.23 171.38 84.21 171.3 84.18C166 81.93 161.27 78.07 157.99 73.31C157.78 73.01 157.85 72.61 158.14 72.4C158.44 72.19 158.84 72.27 159.04 72.56C162.19 77.12 166.72 80.82 171.8 82.98C172.13 83.11 172.28 83.5 172.14 83.83C172.04 84.08 171.8 84.23 171.55 84.23Z" fill="#6DB2DE" fill-opacity="1.000000" fill-rule="nonzero"/>
		<path id="Vector" d="M76.71 119.56C76.36 119.56 76.08 119.29 76.06 118.94C76 117.41 76.21 115.89 76.4 114.43C76.51 113.63 76.62 112.8 76.68 112C76.9 109.29 76.48 107.28 75.42 105.84C74.13 104.09 71.71 103.2 69.4 103.6C67.27 103.98 65.21 105.43 63.88 107.49C62.69 109.33 62.01 111.68 61.91 114.3C61.89 114.66 61.6 114.94 61.24 114.93C60.88 114.91 60.61 114.61 60.62 114.25C60.73 111.4 61.49 108.81 62.8 106.78C64.34 104.39 66.67 102.76 69.18 102.32C71.96 101.83 74.88 102.93 76.45 105.06C77.71 106.77 78.2 109.07 77.97 112.1C77.9 112.94 77.79 113.79 77.68 114.61C77.48 116.08 77.3 117.48 77.35 118.89C77.36 119.25 77.08 119.55 76.73 119.57C76.72 119.56 76.72 119.56 76.71 119.56Z" fill="#F37074" fill-opacity="1.000000" fill-rule="nonzero"/>
		<path id="Vector" d="M89.62 107.05C89.6 107.05 89.58 107.05 89.55 107.05C87.03 106.76 84.6 105.65 82.73 103.92C82.23 103.46 81.53 102.73 81.23 101.77C80.74 100.2 81.45 98.68 82.08 97.34C82.3 96.88 82.5 96.45 82.67 96.01C83.58 93.57 82.99 90.65 81.21 88.76C79.43 86.86 76.57 86.12 74.11 86.92C73.77 87.03 73.41 86.84 73.3 86.5C73.19 86.15 73.38 85.79 73.72 85.68C76.64 84.73 80.03 85.61 82.14 87.86C84.26 90.11 84.95 93.57 83.87 96.47C83.69 96.96 83.46 97.44 83.24 97.9C82.66 99.13 82.12 100.29 82.46 101.38C82.62 101.89 82.97 102.37 83.6 102.96C85.27 104.5 87.43 105.5 89.69 105.75C90.04 105.79 90.3 106.11 90.26 106.47C90.22 106.81 89.95 107.05 89.62 107.05Z" fill="#F37074" fill-opacity="1.000000" fill-rule="nonzero"/>
		<path id="Vector" d="M84.17 122.68C84.1 122.68 84.02 122.67 83.95 122.64C83.61 122.52 83.44 122.15 83.56 121.81C85.02 117.78 83.67 112.92 80.35 110.26C80.07 110.03 80.02 109.62 80.24 109.34C80.46 109.06 80.87 109.02 81.15 109.24C84.89 112.24 86.42 117.72 84.77 122.26C84.68 122.52 84.43 122.68 84.17 122.68Z" fill="#F37074" fill-opacity="1.000000" fill-rule="nonzero"/>
		<path id="Vector" d="M86.34 85.13C85.27 85.13 84.17 84.81 83.25 84.18C81.7 83.11 80.65 81.3 80.37 79.2C80.32 78.84 80.57 78.52 80.93 78.47C81.28 78.42 81.6 78.67 81.65 79.03C81.87 80.74 82.74 82.26 83.97 83.1C85.3 84.01 87.07 84.08 88.29 83.28C88.97 82.83 89.56 82.08 90.13 80.93C91.47 78.24 92.02 75.2 92.54 72.26C92.6 71.91 92.94 71.67 93.29 71.73C93.64 71.8 93.87 72.14 93.81 72.49C93.27 75.52 92.71 78.66 91.29 81.51C90.86 82.37 90.15 83.6 88.99 84.37C88.22 84.88 87.29 85.13 86.34 85.13Z" fill="#F37074" fill-opacity="1.000000" fill-rule="nonzero"/>
		<path id="Vector" d="M98.3 78.97C98.27 78.97 98.23 78.97 98.2 78.96C97.85 78.9 97.61 78.57 97.66 78.21C98.06 75.77 98.67 73.35 99.47 71.01L99.58 70.69C99.92 69.71 100.24 68.78 100.25 67.83C100.26 66.39 99.42 64.95 98.2 64.33C96.95 63.7 95.3 63.96 94.36 64.93C94.11 65.19 93.71 65.19 93.45 64.94C93.2 64.69 93.19 64.28 93.44 64.02C94.77 62.64 97.02 62.28 98.77 63.17C100.45 64.01 101.56 65.89 101.54 67.84C101.53 69 101.16 70.08 100.8 71.12L100.69 71.43C99.91 73.7 99.32 76.05 98.94 78.42C98.88 78.74 98.61 78.97 98.3 78.97Z" fill="#F37074" fill-opacity="1.000000" fill-rule="nonzero"/>
		<path id="Vector" d="M114.85 82.6C112.35 82.6 109.64 82.26 107.39 80.83C107.03 80.6 106.61 80.3 106.34 79.83C106.02 79.27 106.01 78.64 106.03 78.15C106.15 75.58 107.38 73.05 109.33 71.39C110.12 70.72 110.99 70.2 111.84 69.7C112.31 69.42 112.79 69.13 113.24 68.83C114.78 67.79 116.14 66.43 117.17 64.88C117.44 64.48 117.63 64.15 117.69 63.8C117.87 62.79 116.92 61.81 115.97 60.98L116.81 60C118.04 61.06 119.25 62.37 118.96 64.03C118.86 64.63 118.55 65.15 118.24 65.62C117.11 67.3 115.63 68.79 113.96 69.91C113.48 70.24 112.98 70.54 112.49 70.82C111.65 71.32 110.86 71.79 110.16 72.39C108.48 73.82 107.42 75.99 107.32 78.21C107.3 78.52 107.31 78.92 107.46 79.18C107.59 79.4 107.84 79.58 108.08 79.73C110.85 81.49 114.31 81.41 118.22 81.14L118.3 82.44C117.25 82.52 116.08 82.6 114.85 82.6Z" fill="#F37074" fill-opacity="1.000000" fill-rule="nonzero"/>
		<path id="Vector" d="M101.9 100.33C101.73 100.33 101.56 100.26 101.44 100.13C99.12 97.77 98.13 94.15 98.91 90.92C98.99 90.57 99.34 90.35 99.69 90.44C100.03 90.52 100.24 90.88 100.16 91.22C99.48 94.03 100.35 97.17 102.36 99.22C102.61 99.47 102.6 99.89 102.35 100.14C102.22 100.26 102.06 100.33 101.9 100.33Z" fill="#F37074" fill-opacity="1.000000" fill-rule="nonzero"/>
		<path id="Vector" d="M107.29 96.47C107.15 96.47 107.01 96.42 106.89 96.33L104.59 94.5C104.08 94.1 103.51 93.64 103.09 93.03C102.53 92.22 102.32 91.31 102.12 90.42C101.97 89.74 101.82 89.1 101.53 88.55C100.83 87.21 99.32 86.52 98.18 86.18C97.45 85.95 96.71 85.81 95.92 85.66C95.16 85.51 94.37 85.36 93.59 85.13C93.25 85.03 93.06 84.67 93.15 84.32C93.26 83.98 93.61 83.78 93.95 83.88C94.67 84.09 95.39 84.23 96.16 84.38C96.95 84.53 97.76 84.69 98.55 84.93C99.93 85.34 101.76 86.2 102.67 87.94C103.04 88.64 103.21 89.4 103.37 90.12C103.56 90.93 103.73 91.68 104.14 92.28C104.45 92.73 104.93 93.11 105.38 93.47L107.68 95.3C107.96 95.53 108.01 95.93 107.79 96.22C107.67 96.38 107.48 96.47 107.29 96.47Z" fill="#F37074" fill-opacity="1.000000" fill-rule="nonzero"/>
		<path id="Vector" d="M116.23 89.68C113.61 89.68 110.99 88.86 108.85 87.31C108.56 87.1 108.49 86.69 108.7 86.4C108.91 86.11 109.31 86.04 109.6 86.25C112.25 88.17 115.72 88.84 118.88 88.06C119.23 87.97 119.57 88.18 119.66 88.53C119.74 88.88 119.53 89.24 119.19 89.32C118.22 89.56 117.22 89.68 116.23 89.68Z" fill="#F37074" fill-opacity="1.000000" fill-rule="nonzero"/>
		<path id="Vector" d="M73.58 97.92C72.01 97.92 70.99 96.48 70.28 95.22L67.4 90.11C67.22 89.8 67.33 89.4 67.64 89.23C67.95 89.05 68.34 89.16 68.52 89.47L71.4 94.58C72.22 96.02 72.91 96.64 73.65 96.61C74.14 96.59 74.6 96.25 75.13 95.86C75.6 95.5 76.08 95.14 76.69 94.94C77.02 94.83 77.39 95.02 77.5 95.36C77.61 95.71 77.42 96.07 77.08 96.18C76.68 96.31 76.3 96.6 75.89 96.9C75.29 97.36 74.6 97.87 73.71 97.91C73.67 97.91 73.62 97.92 73.58 97.92Z" fill="#F37074" fill-opacity="1.000000" fill-rule="nonzero"/>
	</g>
</svg>
