<svg width="26.000000" height="26.000000" viewBox="0 0 26 26" fill="none" xmlns="http://www.w3.org/2000/svg" xmlns:xlink="http://www.w3.org/1999/xlink">
	<desc>
			Created with Pixso.
	</desc>
	<defs>
		<clipPath id="clip25_72">
			<rect id="calendar (21) 1" rx="0.000000" width="25.000000" height="25.000000" transform="translate(0.500000 0.500000)" fill="white" fill-opacity="0"/>
		</clipPath>
	</defs>
	<rect id="calendar (21) 1" rx="0.000000" width="25.000000" height="25.000000" transform="translate(0.500000 0.500000)" fill="#FFFFFF" fill-opacity="0"/>
	<g clip-path="url(#clip25_72)">
		<path id="Vector" d="M22.7 2.45L22.7 0L18.13 0L18.13 2.45L7.86 2.45L7.86 0L3.29 0L3.29 2.45L0 2.45L0 26L18.88 26L26 18.94L26 2.45L22.7 2.45ZM19.65 1.53L21.17 1.53L21.17 4.42L19.65 4.42L19.65 1.53ZM4.82 1.53L6.34 1.53L6.34 4.42L4.82 4.42L4.82 1.53ZM19.32 23.36L19.32 19.38L23.35 19.38L19.32 23.36ZM24.45 17.86L17.8 17.86L17.8 24.42L1.54 24.42L1.54 9.64L24.45 9.64L24.45 17.86ZM1.54 8.12L1.54 3.98L3.29 3.98L3.29 5.95L7.86 5.95L7.86 3.98L18.13 3.98L18.13 5.95L22.7 5.95L22.7 3.98L24.45 3.98L24.45 8.12L1.54 8.12Z" fill="#32B47A" fill-opacity="1.000000" fill-rule="nonzero"/>
	</g>
</svg>
