<svg width="34" height="50" viewBox="0 0 34 50" fill="none" xmlns="http://www.w3.org/2000/svg">
<path d="M26.4294 36.7497C25.7464 42.8537 20.5318 47.6401 14.2526 47.6401C7.51319 47.6401 2 42.1265 2 35.3875V14.2526C2 7.51366 7.51319 2 14.2526 2C20.992 2 26.5052 7.51366 26.5052 14.2526V19.6679" stroke="white" stroke-width="3" stroke-miterlimit="22.9256" stroke-linecap="round" stroke-linejoin="round"/>
<path fill-rule="evenodd" clip-rule="evenodd" d="M14.2526 5.29565C19.1425 5.29565 23.1065 9.25974 23.1065 14.1496C23.1065 18.282 20.2755 21.7529 16.4472 22.7292C16.2456 21.7011 15.3398 20.9255 14.2526 20.9255C13.1654 20.9255 12.2596 21.7011 12.0579 22.7292C8.22964 21.7529 5.39862 18.282 5.39862 14.1496C5.39862 9.25974 9.36261 5.29565 14.2526 5.29565Z" stroke="white" stroke-width="3" stroke-miterlimit="22.9256" stroke-linecap="round" stroke-linejoin="round"/>
<path d="M14.2526 25.3988C15.4879 25.3988 16.4893 24.3974 16.4893 23.1621C16.4893 21.9268 15.4879 20.9254 14.2526 20.9254C13.0173 20.9254 12.0159 21.9268 12.0159 23.1621C12.0159 24.3974 13.0173 25.3988 14.2526 25.3988Z" stroke="white" stroke-width="3" stroke-miterlimit="22.9256" stroke-linecap="round" stroke-linejoin="round"/>
<path d="M8.81696 15.2017C9.14137 14.3666 9.95283 13.7747 10.9025 13.7747C11.8522 13.7747 12.6637 14.3666 12.9881 15.2017" stroke="white" stroke-width="3" stroke-miterlimit="22.9256" stroke-linecap="round" stroke-linejoin="round"/>
<path d="M15.517 15.2017C15.8414 14.3666 16.6528 13.7747 17.6026 13.7747C18.5523 13.7747 19.3637 14.3666 19.6881 15.2017" stroke="white" stroke-width="3" stroke-miterlimit="22.9256" stroke-linecap="round" stroke-linejoin="round"/>
<path d="M10.9025 18.1201C11.7837 18.1201 12.498 17.4058 12.498 16.5246C12.498 15.6435 11.7837 14.9292 10.9025 14.9292C10.0214 14.9292 9.30707 15.6435 9.30707 16.5246C9.30707 17.4058 10.0214 18.1201 10.9025 18.1201Z" stroke="white" stroke-width="3" stroke-miterlimit="22.9256" stroke-linecap="round" stroke-linejoin="round"/>
<path d="M17.6025 18.1201C18.4837 18.1201 19.198 17.4058 19.198 16.5246C19.198 15.6435 18.4837 14.9292 17.6025 14.9292C16.7214 14.9292 16.0071 15.6435 16.0071 16.5246C16.0071 17.4058 16.7214 18.1201 17.6025 18.1201Z" stroke="white" stroke-width="3" stroke-miterlimit="22.9256" stroke-linecap="round" stroke-linejoin="round"/>
<path d="M14.2526 24.196C14.8234 24.196 15.2862 23.7332 15.2862 23.1623C15.2862 22.5914 14.8234 22.1287 14.2526 22.1287C13.6817 22.1287 13.2189 22.5914 13.2189 23.1623C13.2189 23.7332 13.6817 24.196 14.2526 24.196Z" stroke="white" stroke-width="3" stroke-miterlimit="22.9256" stroke-linecap="round" stroke-linejoin="round"/>
<path fill-rule="evenodd" clip-rule="evenodd" d="M21.4388 29.6766V26.6988H25.0163V23.1213H27.9941V26.6988H31.5716V29.6766H27.9941V33.2541H25.0163V29.6766H21.4388Z" stroke="white" stroke-width="3" stroke-miterlimit="22.9256" stroke-linecap="round" stroke-linejoin="round"/>
</svg>
