<svg width="148.293213" height="194.000000" viewBox="0 0 148.293 194" fill="none" xmlns="http://www.w3.org/2000/svg" xmlns:xlink="http://www.w3.org/1999/xlink">
	<desc>
			Created with Pixso.
	</desc>
	<defs>
		<clipPath id="clip523_742">
			<rect id="climb 1" rx="0.000000" width="147.293198" height="193.000000" transform="translate(0.500000 0.500000)" fill="white" fill-opacity="0"/>
		</clipPath>
	</defs>
	<g clip-path="url(#clip523_742)">
		<path id="Vector" d="M11.04 179.63C17.46 172.93 40.57 155.65 53.43 153.96C66.29 152.27 96.95 164.01 101.71 166.06C106.47 168.11 117.72 175.08 122.34 179.63C126.96 184.17 140.1 194 140.1 194L0 194L11.04 179.63Z" fill="#2DBC7C" fill-opacity="1.000000" fill-rule="nonzero"/>
		<path id="Vector" d="M65.13 162.87L51.57 179.75C51.57 179.75 55.19 183.49 54.51 183.89C53.83 184.3 51.46 185.76 52.46 186.3C53.45 186.85 63.76 186.97 66.31 188.98C68.85 190.99 78.95 192.46 78.95 192.46L92.66 182.97L104.2 189.92L111.17 191.53L113.45 194.01L0 194.01C0 194.01 6.14 185.99 10.3 180.6C14.47 175.22 31.52 162.6 40.07 158.87C48.62 155.14 51.43 155.11 51.43 155.11L56.72 161.72L63.89 160.6L65.13 162.87Z" fill="#32B47A" fill-opacity="1.000000" fill-rule="nonzero"/>
		<path id="Vector" d="M46.88 158.17C48.76 160.9 51.91 161.31 52.78 162.3C53.65 163.3 53.78 166.17 53.92 167.54C54.06 168.91 56.4 171.06 56.4 171.06C56.4 171.06 62.02 172.79 62.55 172.6C63.09 172.41 69.58 169.05 69.58 169.05C69.58 169.05 78.82 173.33 81.57 173.07C84.32 172.81 89.18 173.04 92.34 172.61C95.5 172.2 97.16 170.52 97.16 170.52L96.41 168.65L100.17 170.38L103.11 166.74C86.12 158.85 60.91 149.11 45.9 154.7C45.88 155.78 46.09 157.02 46.88 158.17Z" fill="#FFFFFF" fill-opacity="1.000000" fill-rule="nonzero"/>
		<path id="Vector" d="M16.66 174.57L17.01 177.08C17.01 177.08 22.22 182.02 23.83 182.02C25.44 182.02 39.78 179.75 43.26 178.28C46.74 176.81 54.92 173.74 56.28 173.89C57.64 174.06 62.55 175.73 62.55 175.73C62.55 175.73 68.97 170.65 69.01 170.83C69.06 170.99 77.55 174.93 79.24 174.54C80.93 174.15 86.26 175.19 89.61 174.54C92.95 173.89 99.94 173.32 99.94 173.32L103.9 167.1C103.65 166.97 103.39 166.86 103.12 166.74L100.18 170.38L96.42 168.65L97.17 170.52C97.17 170.52 95.52 172.2 92.35 172.61C89.19 173.03 84.33 172.79 81.59 173.07C78.84 173.33 69.6 169.05 69.6 169.05C69.6 169.05 63.1 172.39 62.56 172.6C62.02 172.79 56.42 171.06 56.42 171.06C56.42 171.06 54.06 168.93 53.93 167.54C53.79 166.17 53.67 163.3 52.79 162.3C51.92 161.31 48.77 160.9 46.9 158.17C46.11 157.02 45.9 155.78 45.92 154.71C45.38 154.9 44.86 155.13 44.36 155.36C29.33 162.42 16.66 174.57 16.66 174.57Z" fill="#C3E1E5" fill-opacity="1.000000" fill-rule="nonzero"/>
		<path id="Vector" d="M106.23 76.1C106.23 76.1 118.12 77.23 116.72 83.32C115.32 89.4 112.27 105.99 109.03 109.33C105.8 112.67 102.53 111.13 102.53 111.13C102.53 111.13 100.49 84.39 106.23 76.1Z" fill="#EA4A1F" fill-opacity="1.000000" fill-rule="nonzero"/>
		<path id="Vector" d="M96.13 137.67C96.13 137.67 102.57 136.97 102.91 137.57C103.26 138.16 103.87 139.88 103.9 141.48C103.94 143.07 104.04 143.89 104.04 143.89C104.04 143.89 104.94 146.2 105 150.07C105.05 153.92 104.43 154.84 104.02 154.96C103.62 155.08 101.39 155.67 100.22 155.17C99.06 154.67 97.93 152.83 97.38 151.26C96.82 149.69 96.6 148.93 96.6 148.93L95.81 149.4C95.17 149.78 94.35 149.54 94.02 148.88C93.62 148.07 93.31 146.74 93.77 144.71C94.59 141.12 96.21 141.28 96.21 141.28C96.21 141.28 94.62 139.61 96.13 137.67Z" fill="#5B45FF" fill-opacity="1.000000" fill-rule="nonzero"/>
		<path id="Vector" d="M101.01 137.46C101.01 137.46 101.48 137.85 101.75 139.9C102.01 141.95 101.97 143.26 102.08 143.82C102.19 144.37 102.97 146.53 103.08 150.05C103.19 153.59 102.68 155.1 102.68 155.1C102.68 155.1 103.97 154.93 104.14 154.77C104.3 154.6 104.98 152.94 104.73 149.15C104.48 145.37 103.84 143.92 103.83 143.46C103.83 143 103.94 141.25 103.54 139.74C103.14 138.23 102.87 137.72 102.72 137.57C102.57 137.42 101.01 137.46 101.01 137.46Z" fill="#FFF8EE" fill-opacity="1.000000" fill-rule="nonzero"/>
		<path id="Vector" d="M96.92 137.58C96.92 137.58 96.53 138.29 96.72 139.33C96.92 140.35 97.1 141.38 96.81 141.45C96.53 141.52 94.37 141.68 93.99 145.54C93.6 149.4 95.16 149.38 95.68 149.26C96.23 149.15 96.6 148.92 96.6 148.92C96.6 148.92 95.86 149.89 94.55 149.82C93.23 149.75 92.35 148.24 92.73 144.59C93.1 140.95 95.39 140.95 95.39 140.95C95.39 140.95 94.1 140.23 94.89 137.9C95.71 135.6 97.25 136.86 96.92 137.58Z" fill="#FFF8EE" fill-opacity="1.000000" fill-rule="nonzero"/>
		<path id="Vector" d="M96.61 148.93C96.61 148.93 96.14 148.32 96.63 146.59C97.11 144.87 98.56 143.96 98.88 143.97C99.21 143.98 99.28 144.61 98.93 144.95C98.58 145.3 97.85 145.33 97.21 146.78C96.46 148.53 96.78 149.49 96.78 149.49L96.61 148.93Z" fill="#FFF8EE" fill-opacity="1.000000" fill-rule="nonzero"/>
		<path id="Vector" d="M97.14 150.57C97.14 150.57 97.1 149.56 97.71 148.54C98.33 147.52 99.39 146.96 99.72 146.92C100.07 146.88 100.39 147.32 99.94 147.78C99.5 148.23 98.57 148.39 97.96 149.56C97.35 150.72 97.5 151.61 97.5 151.61L97.14 150.57Z" fill="#FFF8EE" fill-opacity="1.000000" fill-rule="nonzero"/>
		<path id="Vector" d="M97.7 137.51C97.7 137.51 97.81 138.51 99.14 139.37C100.46 140.23 102.18 140.23 102.18 140.23L102.07 139.95C102.07 139.95 100.39 139.88 99.26 139.18C98.14 138.47 97.93 137.5 97.93 137.5L97.7 137.51Z" fill="#FFF8EE" fill-opacity="1.000000" fill-rule="nonzero"/>
		<path id="Vector" d="M73.01 109.99C73.01 109.99 62.99 132.71 65.53 136.18C68.07 139.66 88.3 145.98 88.3 145.98L87.79 134.38C87.79 134.38 81.57 133.19 81.57 131.14C81.57 129.09 84.71 122.78 84.71 122.78L84.71 112.4L73.01 109.99Z" fill="#68ADA3" fill-opacity="1.000000" fill-rule="nonzero"/>
		<path id="Vector" d="M83.47 112.39L101.19 117.19L96.85 159.98L85.64 159.98L85.03 123.89L83.47 123.52L83.47 112.39Z" fill="#68ADA3" fill-opacity="1.000000" fill-rule="nonzero"/>
		<path id="Vector" d="M85.85 70.69C85.85 70.69 70.24 101.37 69.15 105.91C68.07 110.44 73.04 113.31 85.85 116.37C98.65 119.42 103.36 119.15 104.15 112.74C104.94 106.31 111.28 86.02 112.61 83.5C113.95 80.99 107.76 78.68 99.78 75.17C90.91 71.26 85.85 70.69 85.85 70.69Z" fill="#FFCF3C" fill-opacity="1.000000" fill-rule="nonzero"/>
		<path id="Vector" d="M103.23 76.38C103.23 76.38 103.12 75.17 103.48 73.81C103.84 72.47 104.87 70.89 104.87 70.89L96.63 69.02C96.63 69.02 95.07 72.4 94.52 72.91C93.96 73.42 93.24 73.49 93.24 73.49C93.24 73.49 92.49 77.68 92.87 78.15C93.24 78.62 100.42 78.3 100.8 78.23C101.21 78.16 103.23 77.33 103.23 77.33L103.23 76.38Z" fill="#F4C092" fill-opacity="1.000000" fill-rule="nonzero"/>
		<g opacity="0.630000">
			<path id="Vector" d="M95.39 71.51C95.39 71.51 96.16 73.13 98.95 73.92C101.73 74.71 103.72 73.13 103.72 73.13L104.16 72.16C104.16 72.16 101.98 72.05 99.75 71.3C97.53 70.57 96.29 69.71 96.29 69.71L95.39 71.51Z" fill="#E28140" fill-opacity="1.000000" fill-rule="nonzero"/>
		</g>
		<path id="Vector" d="M93.23 47.14C93.23 47.14 92.3 49.04 91.31 50.13C90.33 51.22 87.1 52.94 87.47 57.72C87.84 62.5 91.9 68.08 99.18 71.15C106.47 74.24 111.84 71.98 114.03 70.89C116.22 69.79 117.32 69 117.32 69C117.32 69 117.59 70.82 119.08 71.28C120.56 71.73 123.83 71.73 126.14 68.8C128.46 65.86 126.59 64.35 126.1 63.72C125.63 63.09 125.17 62.95 125.17 62.95C125.17 62.95 134.66 58.93 135.08 48.29C135.5 37.64 123.76 28.29 111.36 29.16C98.97 30.04 95.96 38.21 95.35 40.61C94.74 43.01 93.87 45.96 93.23 47.14Z" fill="#F2A48F" fill-opacity="1.000000" fill-rule="nonzero"/>
		<g opacity="0.630000">
			<path id="Vector" d="M124.03 68.64C124.03 68.64 125.24 67.94 124.69 66.5C124.13 65.05 121.02 66.12 120.19 67.13C119.36 68.14 119.61 69.65 121.33 69.03C123.05 68.41 123.34 67.74 123.48 67.2C123.62 66.66 123.53 66.47 123.53 66.47C123.53 66.47 124.24 66.5 124.34 67.3C124.45 68.09 124.03 68.64 124.03 68.64Z" fill="#DC8168" fill-opacity="1.000000" fill-rule="nonzero"/>
		</g>
		<g opacity="0.630000">
			<path id="Vector" d="M101.92 56.42C101.92 56.42 102.83 55.85 101.19 54.76C99.64 53.71 99.08 53.86 98.93 54.18C98.78 54.5 98.43 54.44 98.4 54.33C98.33 54.12 98.22 54.09 98.9 53.5C99.58 52.9 101.55 53.66 102.3 54.72C103.05 55.77 102.8 56.44 102.35 56.56C101.89 56.68 101.92 56.42 101.92 56.42Z" fill="#DC8168" fill-opacity="1.000000" fill-rule="nonzero"/>
		</g>
		<path id="Vector" d="M99.45 45.21C99.45 45.21 100.27 45.65 99.9 47.09C99.52 48.53 98.97 50.11 98.05 49.99C97.13 49.87 96.78 48.52 97.12 47.32C97.46 46.11 97.96 45.01 98.58 45C99.2 45 99.45 45.21 99.45 45.21Z" fill="#3F2F29" fill-opacity="1.000000" fill-rule="nonzero"/>
		<g opacity="0.810000">
			<path id="Vector" d="M116.82 56.1C116.82 56.1 117.28 53.59 116.54 52.64C115.81 51.68 114.6 51.17 114.5 50.98C114.39 50.77 114.65 50.13 115.17 50.19C115.68 50.25 117.33 51.75 117.57 53.23C117.79 54.73 116.72 56.73 116.82 56.1Z" fill="#DC8168" fill-opacity="1.000000" fill-rule="nonzero"/>
		</g>
		<g opacity="0.810000">
			<path id="Vector" d="M96.54 43.49C96.54 43.49 97.45 42.22 98.86 42.33C100.28 42.44 100.61 43.15 100.97 43.24C101.33 43.33 101.78 42.73 101.61 42.5C101.44 42.26 99.65 41.18 98.13 41.77C96.61 42.36 96.34 43.73 96.54 43.49Z" fill="#DC8168" fill-opacity="1.000000" fill-rule="nonzero"/>
		</g>
		<path id="Vector" d="M108.99 60.34C108.99 60.34 111.92 61.83 111.85 63.03C111.78 64.25 109.7 63.5 108.41 62.74C107.12 61.98 105.94 61.09 106.3 60.11C106.65 59.11 108.44 60.04 108.99 60.34Z" fill="#EE847C" fill-opacity="1.000000" fill-rule="nonzero"/>
		<path id="Vector" d="M93.81 50.73C93.81 50.73 96.17 52.01 96.06 53.22C95.93 54.43 94.23 53.8 93.2 53.11C92.16 52.43 91.23 51.63 91.58 50.63C91.91 49.65 93.37 50.45 93.81 50.73Z" fill="#EE847C" fill-opacity="1.000000" fill-rule="nonzero"/>
		<path id="Vector" d="M113 57.06C113 57.06 114.01 56.31 114 55.17C113.98 54.03 112.23 53.31 110.92 54.96C109.61 56.61 109.89 57.44 110.53 57.84C111.16 58.23 112.32 57.84 113 57.06Z" fill="#3F2F29" fill-opacity="1.000000" fill-rule="nonzero"/>
		<path id="Vector" d="M124.71 43.63C124.71 43.63 124.28 47.98 118.57 48.8C112.85 49.62 110.12 46.98 110.12 46.98C110.12 46.98 113.17 48.07 114.93 47.98C116.68 47.9 118.83 46.24 118.83 46.24C118.83 46.24 115.82 48.02 111.61 46.06C107.41 44.1 106.26 41.41 106.26 41.41C106.26 41.41 109.39 43.63 111.18 44.21C112.97 44.8 114 44.39 114 44.39C114 44.39 112 44.66 109.69 43.22C107.37 41.77 106.8 41.19 106.8 41.19C106.8 41.19 110.73 42.69 112.53 42.3C114.33 41.91 115.58 40.86 115.58 40.86C115.58 40.86 112.61 42.63 109.19 41.64C105.76 40.64 104.14 38.46 99.49 37.92C94.82 37.38 93.51 42.45 93.51 42.45C93.51 42.45 92.31 37.05 96.6 33.81C100.9 30.55 104.22 30.9 104.22 30.9C104.22 30.9 101.64 30.58 98.18 32.55C94.73 34.51 94.44 35.51 94.44 35.51C94.44 35.51 94.24 32.19 98.32 29.23C102.4 26.28 108.71 26.42 108.71 26.42C108.71 26.42 106.23 26.28 105.48 25.91C104.73 25.53 104.37 24.7 104.37 24.7C104.37 24.7 106.22 26.35 108.76 25.23C111.3 24.11 119.19 21.43 127.96 29.23C136.73 37.04 135.37 39.85 135.37 39.85L137.13 37.02C137.13 37.02 137.26 38.41 136.88 39.21C136.51 40.03 136.04 40.58 136.04 40.58C136.04 40.58 136.98 40.85 138.23 42.2C139.48 43.56 139.56 44.6 139.56 44.6C139.56 44.6 138.75 43.38 138.23 43.06C137.72 42.74 136.7 42.05 136.7 42.05C136.7 42.05 141.09 45.24 138.62 52.44C136.13 59.66 130.06 60.95 129.29 63.89C128.53 66.83 131.21 66.92 131.21 66.92C131.21 66.92 129.31 68.62 127.11 66.14C124.92 63.67 125.59 61.66 125.59 61.66C125.59 61.66 125.25 63.14 125.27 63.74C125.28 64.33 125.63 64.94 125.63 64.94C125.63 64.94 123.6 62.78 124.77 59.79C125.92 56.78 127.28 54.31 128.1 52.04C128.9 49.76 126.77 45.21 126.77 45.21C126.77 45.21 128.43 48.92 127.38 52.18C126.32 55.45 123.81 58.65 123.81 58.65C123.81 58.65 125.05 54.45 125.59 51.92C126.13 49.38 125.59 46.89 125.59 46.89C125.59 46.89 125.71 50.3 125.34 51.38C124.98 52.46 124.24 53.91 124.24 53.91C124.24 53.91 123.66 50.73 124.03 48.3C124.41 45.88 124.71 43.63 124.71 43.63Z" fill="#EF584E" fill-opacity="1.000000" fill-rule="nonzero"/>
		<path id="Vector" d="M99.03 118.17L96.14 159.98L95.27 159.98L98.07 118.17L99.03 118.17Z" fill="#4E9387" fill-opacity="1.000000" fill-rule="nonzero"/>
		<path id="Vector" d="M96.79 158.01C96.79 158.01 97.07 164.48 96.45 164.78C95.82 165.09 94.07 165.59 92.48 165.52C90.88 165.45 90.06 165.49 90.06 165.49C90.06 165.49 87.69 166.24 83.83 166.05C79.98 165.85 79.1 165.17 79.01 164.76C78.91 164.34 78.46 162.08 79.05 160.95C79.63 159.82 81.54 158.81 83.14 158.37C84.74 157.92 85.51 157.75 85.51 157.75L85.1 156.93C84.76 156.28 85.06 155.47 85.74 155.18C86.57 154.84 87.91 154.61 89.93 155.2C93.46 156.23 93.19 157.86 93.19 157.86C93.19 157.86 94.96 156.36 96.79 158.01Z" fill="#5B45FF" fill-opacity="1.000000" fill-rule="nonzero"/>
		<path id="Vector" d="M96.67 162.87C96.67 162.87 96.25 163.32 94.19 163.45C92.12 163.59 90.81 163.45 90.24 163.52C89.69 163.59 87.48 164.23 83.95 164.12C80.41 164.01 78.94 163.38 78.94 163.38C78.94 163.38 79.02 164.67 79.17 164.85C79.32 165.03 80.95 165.82 84.75 165.81C88.55 165.81 90.04 165.26 90.51 165.28C90.97 165.31 92.7 165.55 94.24 165.24C95.78 164.94 96.31 164.7 96.48 164.58C96.63 164.42 96.67 162.87 96.67 162.87Z" fill="#FFF8EE" fill-opacity="1.000000" fill-rule="nonzero"/>
		<path id="Vector" d="M96.82 158.8C96.82 158.8 96.14 158.37 95.09 158.49C94.05 158.62 93.02 158.73 92.96 158.44C92.91 158.16 92.9 156 89.07 155.36C85.24 154.72 85.15 156.26 85.22 156.8C85.29 157.34 85.5 157.75 85.5 157.75C85.5 157.75 84.58 156.96 84.74 155.64C84.89 154.34 86.46 153.56 90.08 154.17C93.7 154.78 93.55 157.07 93.55 157.07C93.55 157.07 94.35 155.82 96.61 156.78C98.89 157.72 97.53 159.17 96.82 158.8Z" fill="#FFF8EE" fill-opacity="1.000000" fill-rule="nonzero"/>
		<path id="Vector" d="M85.5 157.74C85.5 157.74 86.14 157.32 87.83 157.91C89.52 158.51 90.34 160 90.3 160.32C90.26 160.65 89.63 160.68 89.32 160.31C89 159.93 89.01 159.2 87.59 158.48C85.9 157.61 84.92 157.88 84.92 157.88L85.5 157.74Z" fill="#FFF8EE" fill-opacity="1.000000" fill-rule="nonzero"/>
		<path id="Vector" d="M83.83 158.17C83.83 158.17 84.85 158.19 85.82 158.88C86.79 159.56 87.29 160.66 87.3 161C87.32 161.35 86.86 161.64 86.43 161.17C86 160.7 85.92 159.75 84.79 159.06C83.67 158.37 82.77 158.48 82.77 158.48L83.83 158.17Z" fill="#FFF8EE" fill-opacity="1.000000" fill-rule="nonzero"/>
		<path id="Vector" d="M96.84 159.56C96.84 159.56 95.82 159.6 94.89 160.88C93.96 162.15 93.84 163.86 93.84 163.86L94.13 163.76C94.13 163.76 94.3 162.08 95.09 161.02C95.86 159.95 96.85 159.8 96.85 159.8L96.84 159.56Z" fill="#FFF8EE" fill-opacity="1.000000" fill-rule="nonzero"/>
		<path id="Vector" d="M85.03 123.89L85.03 122.26L74.4 114.8L81.81 122.08L76.11 121.73L81.46 124.52L79.71 127.41C79.71 127.41 80.84 126.55 80.56 128.38C80.27 130.2 80.34 131.68 80.1 131.79C79.88 131.9 76.97 133.55 74.4 133.95C71.83 134.35 73.48 135.2 75.26 134.92C77.02 134.63 80.89 132.08 80.27 133.55C79.64 135.03 78.1 136.45 79.3 135.49C80.49 134.52 80.84 132.47 81.24 133.84C81.64 135.21 81.86 135.81 81.86 135.81L82.84 134.64C82.84 134.64 83.78 134.59 83.9 138.18C84.03 141.77 82.09 143.9 82.09 143.9L85.39 145.02L85.18 133.91C85.18 133.91 83.28 133.34 82.78 131.8C82.27 130.28 85.03 123.89 85.03 123.89Z" fill="#4E9387" fill-opacity="1.000000" fill-rule="nonzero"/>
		<path id="Vector" d="M85.85 70.69C85.85 70.69 83.46 70.47 80.73 73.72C77.99 76.97 71.61 83.79 70.69 83C69.78 82.21 62.71 76.87 62.71 76.87C62.71 76.87 59.07 77.55 56.9 83.07C63.51 90.18 68.51 95.03 71.71 94.47C74.9 93.92 77.65 90.75 77.65 90.75C77.65 90.75 86.18 78.29 85.85 70.69Z" fill="#FFCF3C" fill-opacity="1.000000" fill-rule="nonzero"/>
		<path id="Vector" d="M74.68 93.27C74.68 93.27 80.48 81.17 81.17 80.14C81.85 79.12 84.5 74.42 84.5 74.42C84.5 74.42 81.97 77.46 80.91 78.9C79.84 80.35 78.73 83.37 78.98 82.18C79.23 80.99 81.32 76.86 80 78.41C78.69 79.96 77.48 83.29 77.01 84.98C76.54 86.67 76.33 84.8 76.06 85.73C75.81 86.67 75.94 88.72 74.13 91.31C72.34 93.92 70.03 94.32 70.03 94.32C70.03 94.32 72.33 95.47 74.68 93.27Z" fill="#E6A800" fill-opacity="1.000000" fill-rule="nonzero"/>
		<path id="Vector" d="M137.16 67.52C137.16 67.52 137.58 66.88 137.63 66.73C137.7 66.58 138.06 65.05 138.53 64.2C139.02 63.34 140.13 62.38 140.48 62.49C140.82 62.6 141.07 63.34 140.68 63.82C140.3 64.31 139.92 65.4 140.16 65.77C140.39 66.14 140.78 66.02 141.54 65.57C142.31 65.11 145.1 63.57 145.65 63.54C146.21 63.52 146.82 64.32 146.1 64.89C145.37 65.46 143.14 66.77 142.92 67.08C142.68 67.38 143.18 67.69 143.61 67.58C144.04 67.47 147.1 66.79 147.48 66.7C147.87 66.61 148.4 67.24 148.22 67.8C148.04 68.35 146.19 68.84 145.57 68.99C144.93 69.14 143.97 69.56 144.03 69.74C144.08 69.92 148.05 70.4 148.19 70.6C148.33 70.78 148.57 71.83 147.04 71.77C145.53 71.71 144.29 71.44 144.21 71.72C144.13 71.98 146.72 73.24 146.86 73.58C146.98 73.91 146.78 74.84 145.53 74.42C144.28 74.02 143.31 73.27 143 73.24C142.7 73.22 141.46 73.42 139.91 72.93C138.35 72.43 137.89 71.97 137.52 71.94C137.15 71.91 136.83 71.93 136.83 71.93L136.67 67.63L137.16 67.52Z" fill="#F2A48F" fill-opacity="1.000000" fill-rule="nonzero"/>
		<path id="Vector" d="M109.31 78.98L137.49 67.02L139.42 72.3L112.68 88.82C112.68 88.82 107.87 83.26 109.31 78.98Z" fill="#F4C092" fill-opacity="1.000000" fill-rule="nonzero"/>
		<path id="Vector" d="M94.5 72.92C94.5 72.92 98.82 75.54 103.52 76.79C104.34 80.57 102.19 82.06 102.19 82.06L89.73 78.84L90.9 74.74C90.9 74.74 91.11 72.69 94.5 72.92Z" fill="#FFCF3C" fill-opacity="1.000000" fill-rule="nonzero"/>
		<path id="Vector" d="M92.6 67.02C92.6 67.02 96.09 69.46 101.07 70.96C106.04 72.47 109.03 72.51 109.03 72.51C109.03 72.51 109.96 73.16 109.59 74.41C109.2 75.66 107.49 76.02 107.55 77.07C107.6 78.12 108.2 78.18 108.26 79.27C108.31 80.38 102.73 82.43 95.41 79.77C88.07 77.11 88.04 72.51 88.73 71.25C89.43 69.99 90.24 70.33 90.91 69.49C91.58 68.66 91.02 67.24 92.6 67.02Z" fill="#E6A800" fill-opacity="1.000000" fill-rule="nonzero"/>
		<path id="Vector" d="M108.2 78.93C108.2 78.93 134.36 67.74 135.41 67.48C136.47 67.22 138.94 72.87 138.51 73.73C138.08 74.59 108.7 92.19 108.7 92.19L108.2 78.93Z" fill="#FFCF3C" fill-opacity="1.000000" fill-rule="nonzero"/>
		<path id="Vector" d="M109.03 78.57C109.03 78.57 106.73 83.1 103.7 90.98C100.67 98.85 102.43 102.51 106.37 104.42C106.19 105.63 105.88 106.28 105.88 106.28C105.88 106.28 100.62 104.27 99.76 98.85C98.9 93.43 104.43 82.56 105.63 80.45C106.84 78.34 108.31 78.54 109.03 78.57Z" fill="#EA4A1F" fill-opacity="1.000000" fill-rule="nonzero"/>
		<path id="Vector" d="M88.72 71.28C88.72 71.28 85.78 72.98 81.89 79.83C78.01 86.67 72.72 97.4 72.72 97.4C72.72 97.4 79.69 79.55 83.2 74.42C86.71 69.31 89.13 70.69 89.13 70.69L88.72 71.28Z" fill="#EA4A1F" fill-opacity="1.000000" fill-rule="nonzero"/>
		<path id="Vector" d="M60.34 157.59L55.32 0L52.45 0L55.72 157.59L60.34 157.59Z" fill="#D5D0FF" fill-opacity="1.000000" fill-rule="nonzero"/>
		<path id="Vector" d="M52.52 3.21C52.52 3.21 15.73 17.25 16.94 18.85C18.14 20.46 53.15 34.29 53.15 34.29L52.52 3.21Z" fill="#5B45FF" fill-opacity="1.000000" fill-rule="nonzero"/>
		<path id="Vector" d="M52.52 3.21C52.52 3.21 55.71 2.45 55.68 3.21C55.65 3.97 56.01 8.85 55.68 9.49C55.35 10.12 52.2 9.86 52.2 9.86L52.52 3.21Z" fill="#5B45FF" fill-opacity="1.000000" fill-rule="nonzero"/>
		<path id="Vector" d="M52.81 27.74C52.81 27.74 56.68 26.91 56.65 27.67C56.62 28.43 56.98 33.31 56.65 33.95C56.32 34.58 53.17 34.32 53.17 34.32L52.81 27.74Z" fill="#5B45FF" fill-opacity="1.000000" fill-rule="nonzero"/>
		<path id="Vector" d="M61.37 77.43C61.37 77.43 59.59 75.7 59.43 75.25C59.26 74.82 58.79 72.77 58.36 71.98C57.93 71.18 56.44 71.15 55.61 71.18C54.78 71.21 54.74 71.82 55.18 72.41C55.61 73.01 56.42 73.05 56.91 73.65C57.41 74.24 57.89 81.03 57.89 81.03C57.89 81.03 59.66 78.23 61.37 77.43Z" fill="#F2A48F" fill-opacity="1.000000" fill-rule="nonzero"/>
		<path id="Vector" d="M51.86 73.19C51.86 73.19 51.85 72.4 52.9 72.54C53.96 72.68 55.28 73.56 55.31 74.21C55.32 74.87 54.58 74.81 54.58 74.81C54.58 74.81 55.37 75.78 55.14 76.1C54.9 76.43 54.54 76.44 54.54 76.44C54.54 76.44 55.11 76.93 54.92 77.35C54.72 77.76 54.29 77.73 54.29 77.73C54.29 77.73 54.79 78.41 54.64 78.63C54.49 78.86 53.39 79.26 52.61 78.63C51.85 78.01 52.13 77.39 52.13 77.39C52.13 77.39 51.48 76.83 51.59 76.33C51.7 75.84 51.97 75.61 51.97 75.61C51.97 75.61 51.25 74.91 51.34 74.56C51.42 74.21 52.09 73.94 52.09 73.94C52.09 73.94 51.86 73.62 51.86 73.19Z" fill="#F2A48F" fill-opacity="1.000000" fill-rule="nonzero"/>
	</g>
</svg>
