<svg width="51" height="43" viewBox="0 0 51 43" fill="none" xmlns="http://www.w3.org/2000/svg">
<path fill-rule="evenodd" clip-rule="evenodd" d="M19.3868 2C28.9892 2 36.7735 8.21614 36.7735 15.884C36.7735 23.5519 28.9892 29.7682 19.3868 29.7682C18.9839 29.7682 18.5842 29.7563 18.1882 29.7347C15.3255 31.9084 11.5248 33.2943 7.3138 33.5166C9.16979 31.7142 10.4681 30.7533 10.9984 28.0474C5.63394 25.6835 2 21.1228 2 15.884C2 8.21614 9.7843 2 19.3868 2V2ZM20.2307 33.0724C23.3184 35.5113 27.4205 36.9977 31.922 36.9977C32.3249 36.9977 32.7245 36.9848 33.1206 36.9613C35.9832 39.3266 39.7839 40.8345 43.9949 41.0764C42.139 39.1152 40.8406 38.0697 40.3104 35.1253C45.6749 32.5531 49.3087 27.5904 49.3087 21.89C49.3087 14.9041 43.8514 9.02666 36.4392 7.29851C38.894 9.9034 40.3676 13.2335 40.3676 16.8629C40.3676 25.2066 32.5833 31.9705 22.9808 31.9705C22.5779 31.9705 22.1783 31.9576 21.7823 31.9342C21.2917 32.3394 20.7736 32.7195 20.2307 33.0724V33.0724Z" stroke="white" stroke-width="3" stroke-miterlimit="22.9256" stroke-linecap="round" stroke-linejoin="round"/>
</svg>
