<svg width="190.348251" height="196.799561" viewBox="0 0 190.348 196.8" fill="none" xmlns="http://www.w3.org/2000/svg" xmlns:xlink="http://www.w3.org/1999/xlink">
	<desc>
			Created with Pixso.
	</desc>
	<defs/>
	<path id="Vector" d="M188.39 116.9C178.6 66.54 148.44 82.13 134.07 32.44C125.43 2.56 88.04 -11.24 74.89 10.88C67.55 8.06 51.27 14.25 46.52 42.72C41.32 73.76 35.26 91.21 31.82 94.11C8.87 113.45 -25.85 165.41 30.43 191.06C70.98 209.53 136.4 178.91 136.11 162.38C130.42 167.11 42.41 177.57 32.83 147.2C25.66 124.49 65.63 109.2 83.67 96.68C84.77 97.81 85.52 99.11 85.82 100.61C92.55 133.85 168.74 70.94 165.15 176.89C165.13 177.37 178.27 164.8 182.93 143.56C184.15 149.89 184 156.98 182.51 164.07C182.44 164.35 195.08 151.25 188.39 116.9Z" fill="#5B45FF" fill-opacity="1.000000" fill-rule="nonzero"/>
	<path id="Vector" d="M66.35 147.98L70.26 147.64C70.11 148.85 69.96 150.06 69.8 151.27C68.11 150.13 66.78 149.02 66.35 147.98Z" fill="#F2A48F" fill-opacity="1.000000" fill-rule="nonzero"/>
	<path id="Vector" d="M158.14 140.18C155.03 142.74 151.81 145.14 148.48 147.4C146.35 148.84 144.19 150.22 141.99 151.53C141.42 151.87 134.84 153.92 134.26 154.25C134.32 149.98 141.51 132.18 141.56 128.5C119.18 130.46 92.48 145.68 70.25 147.63C71.94 134.67 73.95 121.05 76.14 108.39C77.08 102.51 80.16 87.26 80.84 88.78C91.17 88.34 92.13 72.99 93.09 64.31C93.88 63.73 110.85 49.24 111.78 48.91C111.27 53.63 110.99 57.41 111.02 61.81C111.35 71.77 112.66 76.24 117.21 80.44C124.37 85.95 134 85.17 141.96 89.42C144.8 91.09 147.65 93.23 149.52 96.06C156.95 107.13 158.23 128.7 158.14 140.18Z" fill="#F2A48F" fill-opacity="1.000000" fill-rule="nonzero"/>
	<path id="Vector" d="M92.61 69.22C100.35 74.83 109.46 73.94 112.19 73.19C112.16 73.11 112.13 73.04 112.1 72.96C110.54 68.87 110.54 60.18 111.85 51C111.97 50.16 112.1 49.29 112.25 48.4L110.27 49.8L93.1 64.31C93.02 66.09 92.85 67.73 92.61 69.22Z" fill="#DD8572" fill-opacity="1.000000" fill-rule="nonzero"/>
	<path id="Vector" d="M136.9 102.63C143.98 116.83 136.87 125 129.19 129.15C123.78 132.07 118.74 133.12 116.64 132.94C114.77 132.78 112.98 132.19 111.29 131.26C95.75 136.77 75.32 111.37 89.97 102.37C91.04 101.72 91.01 103.5 92.49 103.03C92.8 102.95 93.31 102.77 93.84 102.59C94.57 102.35 96.46 99.5 96.86 98.82C99.15 95.04 102.93 91.47 106.64 90.37C106.91 90.3 105.52 89.63 105.76 89.51C104.5 88.85 115.88 100.99 119.66 95.28C119.72 95.19 119.84 95.15 119.94 95.19C121.11 95.59 127.72 97.8 127.91 97.82C129.44 98.23 131.06 98.62 132.73 99.03C135.45 99.72 137.5 101.47 140.46 102.59L141.28 101.6C141.45 101.67 141.48 101.89 141.34 102.01C139.03 103.98 135.05 93.66 135.5 97.25C135.65 97.61 135.57 98.22 136.18 98.38C137.48 98.74 138.29 97.11 136.73 94.81C141.71 98.93 136.83 100.68 136.83 100.68C136.83 100.68 138.75 100.88 138.83 103.41C137.99 102.4 137.34 102.26 136.9 102.63Z" fill="#DD8572" fill-opacity="1.000000" fill-rule="nonzero"/>
	<path id="Vector" d="M141.57 128.5C136.42 148.61 138.64 149.37 138.18 153.73C117.16 165.4 93 170.95 69.16 169.74C67.09 155.34 60.18 143.13 59.02 128.92C63.15 119.13 63.76 104.75 62.1 93C65.93 90.9 76.52 87.46 80.86 88.78C86.48 100.38 99.42 105.28 111.53 102.79C121.72 100.99 131.7 95.13 139.94 88.44C143.12 89.77 146.05 91.95 148.39 94.53C150.11 96.57 151.28 99.03 152.36 101.48C147.33 106.05 141.77 116.29 141.57 128.5Z" fill="#FFF2E9" fill-opacity="1.000000" fill-rule="nonzero"/>
	<path id="Vector" d="M89.09 82.99C86.66 83.57 84.86 85.82 83.43 87.84C76.64 98.79 76.69 112.63 77.39 125.23L68.22 125.23C69.64 111.54 72.07 96.59 81.36 86.08C83.4 84.06 86.42 81.31 89.43 81.84L89.09 82.99Z" fill="#39BA80" fill-opacity="1.000000" fill-rule="nonzero"/>
	<path id="Vector" d="M116.2 79.22C131.31 83.47 132.32 119.24 132.33 132.76L123.21 131.9C125.03 119.64 129.17 85.91 115.99 79.94L116.2 79.22Z" fill="#39BA80" fill-opacity="1.000000" fill-rule="nonzero"/>
	<path id="Vector" d="M136.3 154.49C116.08 165.26 93.11 170.43 70.38 169.5C68.67 169.43 67.26 168.13 66.95 166.39C65.81 160.04 61.84 156.92 58.85 151.65C52.74 140.03 57.24 119.55 70.29 119.64C73.78 119.69 77.35 120.99 80.07 123.11C86.15 127.31 89.85 134.19 96.4 132.07C99.83 130.87 102.32 128.25 105.42 126.12C110.89 121.93 117.42 119.92 124.42 120.52C130.4 121.03 137.68 123.91 141.57 128.5C142.4 129.48 140.08 149.11 140.29 152.54C140.37 154.03 137.58 153.81 136.3 154.49Z" fill="#39BA80" fill-opacity="1.000000" fill-rule="nonzero"/>
	<path id="Vector" d="M108.92 52.64L108.54 54.3L107.36 59.35L107.03 60.85C106.5 61.7 105.91 62.55 105.26 63.4C99.22 71.11 87.49 78.81 77.68 77.96C70.38 77.33 67 65.1 65.29 56.3C65.26 56.2 65.23 56.03 65.21 55.85C64.94 54.55 64.39 51.76 64.52 50.73C64.53 50.7 64.53 50.7 64.53 50.67C65.04 46.65 65.4 46.63 65.57 44.08C65.77 40.51 63.96 37.12 64.49 31.42C64.67 29.38 65.16 27.05 66.13 24.29C68.92 16.42 64.42 18.29 69.35 15.66C69.37 15.65 69.37 15.65 69.39 15.64C69.73 15.47 70.11 15.28 70.52 15.06C70.55 15.21 70.6 15.36 70.65 15.51C73.96 25.55 90.95 26.22 98.89 32.53C101.38 34.52 103.1 49.72 108.92 52.64Z" fill="#F2A48F" fill-opacity="1.000000" fill-rule="nonzero"/>
	<path id="Vector" d="M77.85 56.38C76.11 52.12 77.16 46.75 76.99 46.63C76.62 48.57 72.99 55.51 72.99 55.51L77.85 56.38Z" fill="#DD8572" fill-opacity="1.000000" fill-rule="nonzero"/>
	<path id="Vector" d="M77.95 56.92C77.82 56.95 77.67 56.92 77.54 56.84C77.02 56.47 76.17 56.54 75.35 56.61C74.74 56.65 74.17 56.7 73.69 56.58C73.24 56.47 72.92 56.23 72.73 55.88C72.43 55.32 72.46 54.5 72.85 53.3C72.95 53.01 73.25 52.86 73.53 52.95C73.81 53.05 73.96 53.36 73.87 53.65C73.5 54.82 73.61 55.23 73.67 55.34C73.69 55.38 73.73 55.46 73.94 55.51C74.26 55.6 74.75 55.55 75.27 55.51C76.23 55.44 77.32 55.35 78.15 55.93C78.39 56.1 78.46 56.44 78.3 56.7C78.21 56.81 78.08 56.89 77.95 56.92Z" fill="#CE8072" fill-opacity="1.000000" fill-rule="nonzero"/>
	<path id="Vector" d="M70.65 44.93C70.65 46.25 69.62 47.31 68.35 47.31C67.09 47.31 66.06 46.25 66.06 44.93C66.06 43.62 67.09 42.56 68.35 42.56C69.62 42.56 70.65 43.62 70.65 44.93Z" fill="#19173B" fill-opacity="1.000000" fill-rule="evenodd"/>
	<path id="Vector" d="M69.94 37.94C69.84 37.96 69.73 37.95 69.62 37.9C69.52 37.86 67.11 36.81 64.51 38.89C64.28 39.08 63.94 39.03 63.76 38.79C63.58 38.55 63.62 38.21 63.86 38.02C66.98 35.53 69.93 36.84 70.05 36.9C70.32 37.03 70.44 37.35 70.32 37.63C70.25 37.79 70.11 37.9 69.94 37.94Z" fill="#332463" fill-opacity="1.000000" fill-rule="nonzero"/>
	<path id="Vector" d="M67.08 44.06C66.91 44.13 66.71 44.1 66.56 43.97L64.64 42.28C64.42 42.09 64.39 41.75 64.58 41.52C64.76 41.29 65.09 41.26 65.32 41.45L67.24 43.14C67.46 43.33 67.49 43.67 67.3 43.9C67.24 43.98 67.17 44.04 67.08 44.06Z" fill="#19173B" fill-opacity="1.000000" fill-rule="nonzero"/>
	<path id="Vector" d="M66.43 45.1C66.3 45.14 66.17 45.14 66.04 45.08L64.01 44.15C63.74 44.04 63.63 43.72 63.74 43.44C63.86 43.17 64.17 43.04 64.44 43.17L66.47 44.09C66.73 44.21 66.85 44.53 66.73 44.81C66.67 44.95 66.56 45.05 66.43 45.1Z" fill="#19173B" fill-opacity="1.000000" fill-rule="nonzero"/>
	<path id="Vector" d="M96.77 41.29C96.57 41.33 96.34 41.24 96.22 41.04C94.46 38.17 91.85 38.31 91.74 38.32C91.44 38.34 91.19 38.11 91.17 37.81C91.15 37.5 91.37 37.24 91.66 37.22C91.79 37.21 95 37 97.12 40.45C97.27 40.71 97.21 41.05 96.96 41.21C96.9 41.24 96.83 41.27 96.77 41.29Z" fill="#332463" fill-opacity="1.000000" fill-rule="nonzero"/>
	<path id="Vector" d="M90.2 45.87C89.98 45.95 89.73 45.88 89.59 45.68C89.41 45.43 89.47 45.08 89.71 44.9L91.82 43.32C92.05 43.14 92.39 43.2 92.56 43.45C92.74 43.69 92.68 44.04 92.44 44.22L90.33 45.8C90.29 45.82 90.25 45.85 90.2 45.87Z" fill="#19173B" fill-opacity="1.000000" fill-rule="nonzero"/>
	<path id="Vector" d="M90.79 46.95C90.51 47.05 90.21 46.9 90.11 46.61C90.01 46.33 90.15 46.01 90.43 45.91L92.58 45.1C92.86 44.99 93.17 45.14 93.27 45.43C93.37 45.71 93.23 46.03 92.94 46.14L90.79 46.95Z" fill="#19173B" fill-opacity="1.000000" fill-rule="nonzero"/>
	<path id="Vector" d="M90.76 46.79C90.76 48.1 89.73 49.17 88.47 49.17C87.2 49.17 86.17 48.1 86.17 46.79C86.17 45.48 87.2 44.41 88.47 44.41C89.73 44.41 90.76 45.48 90.76 46.79Z" fill="#19173B" fill-opacity="1.000000" fill-rule="evenodd"/>
	<path id="Vector" d="M84.72 54.87C84.61 56.7 86.82 57.49 89.57 57.66C92.33 57.84 94.61 57.33 94.72 55.51C94.83 53.69 92.69 51.94 89.93 51.77C87.16 51.59 84.83 53.04 84.72 54.87Z" fill="#EE847C" fill-opacity="1.000000" fill-rule="nonzero"/>
	<path id="Vector" d="M65.2 55.86C66.73 55.28 68.33 54.27 68.37 53.43C68.44 52.09 66.54 50.93 64.53 50.67C64.53 50.69 64.53 50.7 64.52 50.72C64.39 51.76 64.94 54.56 65.2 55.86Z" fill="#EE847C" fill-opacity="1.000000" fill-rule="nonzero"/>
	<path id="Vector" d="M105.24 63.36C106.09 61.91 106.8 60.62 107.36 59.35L107.03 60.85C106.5 61.7 105.91 62.55 105.26 63.4C105.25 63.38 105.25 63.38 105.24 63.36Z" fill="#DD8572" fill-opacity="1.000000" fill-rule="nonzero"/>
	<path id="Vector" d="M108.92 52.64L109.62 53.61C103.51 49.14 101.93 39.45 98.76 36.31C88.87 26.53 78.56 29.58 72.42 21.32C70.57 25.1 67.48 27.85 64.49 31.43C64.67 29.39 65.16 27.05 66.13 24.3C68.92 16.43 64.42 18.3 69.35 15.66C69.37 15.66 69.37 15.66 69.39 15.65C69.81 15.57 70.24 15.53 70.66 15.52C73.97 25.55 90.96 26.23 98.9 32.54C101.38 34.52 103.1 49.72 108.92 52.64Z" fill="#DD8572" fill-opacity="1.000000" fill-rule="nonzero"/>
	<path id="Vector" d="M74.05 14.56C71.9 29.73 59.18 20.72 63.77 58.94C63.77 58.94 42.88 38.49 60.61 19.24C63.55 16.04 70.07 11.68 74.05 14.56Z" fill="#5B45FF" fill-opacity="1.000000" fill-rule="nonzero"/>
	<path id="Vector" d="M98.89 34.45C102.1 37.64 102.58 48.28 108.93 52.64C108.64 55.56 107.33 58.12 105.37 61.48C105.61 67.52 106.59 69.96 109.33 77.86C114.25 92.04 117.87 97.92 126.98 99.2C126.98 99.2 117.4 88.4 120.09 77.17C123.55 62.63 117.94 66.81 118.37 52.12C119.52 12.35 86.03 2.14 70.38 15.69C76.02 28.74 87.73 23.39 98.89 34.45Z" fill="#5B45FF" fill-opacity="1.000000" fill-rule="nonzero"/>
	<path id="Vector" d="M98.55 45.27C99.96 49.28 103.8 49.31 106.46 51.38C109.39 48.93 115.11 49.34 112.56 55.36C110.31 60.65 108.8 66.62 106.82 64.93C105.94 64.18 104.08 61.19 104.08 61.19C102.01 64.01 101.53 61.63 97.3 65.17L98.55 45.27Z" fill="#F2A48F" fill-opacity="1.000000" fill-rule="nonzero"/>
	<path id="Vector" d="M35.38 121.7L36.12 121.39C35.82 121.49 35.56 121.59 35.38 121.7ZM75.92 101.56C75.98 100.41 78.63 91.87 73.19 85.3C75.72 71.52 69.17 62 61.33 57.29C54.45 53.17 46.57 52.72 42.92 56.32C41.88 55.96 40.83 55.74 39.76 55.63C38.48 55.51 37.19 55.57 35.9 55.78C24.31 57.73 12.73 72.55 13.87 87.85C14.58 97.31 19.57 112.23 30.04 118.14C30.68 118.5 31.34 118.83 32.02 119.12L36.51 121.28C37.85 120.91 39.84 120.54 41.6 119.59C42.08 119.33 42.54 119.04 42.96 118.68C43.08 118.58 43.2 118.47 43.31 118.37C43.71 117.99 44.07 117.56 44.36 117.05C44.8 116.31 45.13 115.42 45.28 114.35C45.31 114.09 45.34 113.82 45.35 113.54L66.21 109.83C66.39 110.09 66.74 110.25 67.16 110.35C67.59 110.44 68.08 110.48 68.51 110.48C68.86 110.48 69.17 110.45 69.37 110.42C69.16 111.31 75.92 101.56 75.92 101.56Z" fill="#EF584E" fill-opacity="1.000000" fill-rule="nonzero"/>
	<path id="Vector" d="M80.55 140.68C80.35 141.12 80.1 141.27 79.8 141.24C79.32 141.2 78.74 140.68 78.17 140.16C76.53 138.65 74.48 136.42 73.41 133.8C72.5 131.57 73.92 128.55 74.56 127.11C73.73 126.65 70.55 124.6 69.62 120.38C69.32 119.01 69.55 117.65 70.18 116.52L70.62 116.73C69.35 116.04 68.38 114.8 68.02 113.24C67.79 112.23 67.74 111.5 68.04 110.59L69.18 110.56C67.15 110.3 64.69 108.12 65.3 105.1L75.24 102.28L75.92 101.56C76.36 102.15 77.12 104.22 76.95 105.32C76.77 106.54 75.89 107.79 75.3 108.47L76.03 107.7C77.14 108.42 77.68 109.41 78 110.85C78.36 112.42 77.99 113.99 77.14 115.19L77.56 114.66C78.67 115.38 79.29 116.56 79.6 117.99C79.85 119.06 79.05 123.38 78.69 124.34C78.84 124.41 78.98 124.5 79.11 124.58C87.3 129.42 82.76 135.67 80.55 140.68Z" fill="#EF584E" fill-opacity="1.000000" fill-rule="nonzero"/>
	<path id="Vector" d="M80.55 140.68C80.35 141.12 80.1 141.27 79.8 141.24C79.82 141.12 79.83 141 79.86 140.88C82.15 130.18 80.38 127.77 77.91 125.88L79.11 124.56C87.3 129.42 82.76 135.67 80.55 140.68Z" fill="#EF584E" fill-opacity="1.000000" fill-rule="nonzero"/>
	<path id="Vector" d="M74.2 127.88C73.97 127.91 73.75 127.76 73.67 127.52C73.58 127.25 73.73 126.96 74 126.87C76.76 125.93 78.68 123.61 78.7 123.59C78.88 123.36 79.2 123.34 79.41 123.53C79.62 123.71 79.65 124.04 79.47 124.26C79.38 124.37 77.35 126.83 74.31 127.86C74.27 127.86 74.23 127.87 74.2 127.88Z" fill="#B3B9FF" fill-opacity="1.000000" fill-rule="nonzero"/>
	<path id="Vector" d="M107.73 165.48C107.11 165.64 106.5 165.78 105.88 165.93C105.25 166.08 104.61 166.23 103.97 166.37C100.87 167.05 97.74 167.63 94.57 168.09C93.45 168.25 92.33 168.4 91.2 168.52C90.54 167.66 89.87 166.85 89.2 166.08C88.13 164.86 87.05 163.73 85.98 162.71C85.33 162.08 84.68 161.48 84.03 160.91C83.56 160.5 83.08 160.1 82.61 159.72C82.6 159.71 82.6 159.71 82.6 159.7L82.59 159.7C82.49 159.62 82.41 159.54 82.31 159.46C81.9 159.12 81.49 158.8 81.08 158.48C81.04 158.44 81 158.41 80.95 158.37C80.45 157.98 79.95 157.59 79.46 157.22C79.43 158.86 79.45 160.57 79.49 162.34C79.51 162.95 79.53 163.57 79.55 164.19C79.62 165.89 79.71 167.62 79.82 169.35C79.45 169.36 79.07 169.38 78.7 169.38C78.56 169.38 78.42 169.39 78.29 169.39C77.53 169.41 76.77 169.41 76 169.41C74.48 169.41 72.97 169.38 71.47 169.33C71.1 169.32 70.73 169.3 70.36 169.29C70.12 169.28 69.88 169.27 69.64 169.25C68.97 169.22 68.3 169.18 67.64 169.14C61.76 168.76 55.99 167.99 50.34 166.85C46.15 166 42.04 164.95 38 163.71C35.89 163.06 33.79 162.36 31.72 161.6C31.53 159.78 31.3 157.98 31.03 156.18C30.67 156.69 29.66 158.16 28.33 160.31C26.82 159.71 25.32 159.08 23.83 158.42C21.68 157.48 19.56 156.48 17.48 155.42C16.05 154.7 14.64 153.95 13.24 153.17C19.75 142.53 26.75 136.85 32.69 132.55C34.85 130.98 36.87 129.59 38.67 128.22C39.88 127.29 41 126.37 41.99 125.4C42.41 124.99 42.81 124.57 43.19 124.13C43.24 124.07 43.29 124.01 43.34 123.95C43.57 123.68 43.8 123.39 44.02 123.11C44.58 122.35 45.08 121.54 45.5 120.67C45.5 120.67 45.5 120.67 45.5 120.66C46.31 118.98 46.83 117.07 46.99 114.78C47.02 114.37 47.05 113.95 47.05 113.52C47.05 113.5 47.05 113.5 47.05 113.48L61.31 114.45L64.13 112.62C64.11 113.75 64.37 115.12 64.73 116.39C65.2 118.1 65.83 119.65 66.16 120.22C66.33 120.53 66.51 120.81 66.7 121.08C67.3 121.92 67.99 122.62 68.73 123.22C69.97 124.22 71.37 124.94 72.79 125.64C73.09 125.79 73.38 125.93 73.68 126.07C74.71 126.58 75.72 127.09 76.7 127.72C76.96 127.89 77.22 128.07 77.48 128.26C77.82 128.51 78.75 129.32 78.88 129.45C79.59 130.14 80.28 130.84 80.96 131.54C82.97 133.58 84.88 135.59 86.69 137.56C86.79 137.67 86.88 137.77 86.98 137.88C87.02 137.93 87.07 137.98 87.12 138.04C88.21 139.23 89.26 140.41 90.28 141.58C91.34 142.78 92.35 143.98 93.33 145.15C93.62 145.49 93.9 145.83 94.17 146.17C94.5 146.57 94.83 146.97 95.15 147.37C95.15 147.38 95.16 147.38 95.16 147.38C95.37 147.65 95.59 147.91 95.79 148.18C96.34 148.82 96.85 149.48 97.32 150.12C97.32 150.13 97.33 150.13 97.33 150.14C99.59 153.04 101.6 155.83 103.4 158.51C105.03 160.94 106.46 163.27 107.73 165.48Z" fill="#F2A48F" fill-opacity="1.000000" fill-rule="nonzero"/>
	<path id="Vector" d="M64.73 116.39C64.22 117.82 52.76 121.8 43.2 124.14C43.25 124.08 43.3 124.03 43.35 123.97C43.58 123.69 43.81 123.41 44.02 123.13C44.59 122.36 45.08 121.55 45.51 120.68C45.51 120.68 45.51 120.68 45.51 120.68C46.32 119 46.83 117.08 47 114.8C47.03 114.39 47.05 113.96 47.06 113.53C47.06 113.53 47.06 113.51 47.06 113.5L61.32 114.46L64.14 112.64C64.12 113.75 64.39 115.12 64.73 116.39Z" fill="#DD8572" fill-opacity="1.000000" fill-rule="nonzero"/>
	<path id="Vector" d="M29.62 100.23C26.35 101.89 25.59 106.1 28.09 107.73C33.11 110.99 38.25 110.64 36.29 108.29L29.62 100.23Z" fill="#DD8572" fill-opacity="1.000000" fill-rule="nonzero"/>
	<path id="Vector" d="M66.64 82.21C69.65 80.93 71.71 81.27 70.86 87.05C70.25 91.24 70.47 94.18 68.69 94.61L66.64 82.21Z" fill="#DD8572" fill-opacity="1.000000" fill-rule="nonzero"/>
	<path id="Vector" d="M69.98 92.8C71.31 101.81 69.9 110.47 62.93 113.75C57.95 116.33 50.34 116.18 43.61 113.8C39.07 112.2 34.96 109.56 32.31 106.09C26.4 97.8 20.2 87.28 25.44 77.39C32.69 62.83 55.32 57.5 63.8 74.31C64.93 76.37 66.02 78.75 66.98 81.29C67.79 83.48 68.52 85.79 69.07 88.14C69.48 89.7 69.76 91.27 69.98 92.8Z" fill="#F2A48F" fill-opacity="1.000000" fill-rule="nonzero"/>
	<path id="Vector" d="M56.22 100.33C56.13 99.79 54.93 93.34 55.1 93.17C55.27 92.99 58.07 96.76 58.16 96.9C58.24 97.04 56.63 99.77 56.63 99.77L56.22 100.33Z" fill="#DD8572" fill-opacity="1.000000" fill-rule="nonzero"/>
	<path id="Vector" d="M56.27 100.88C56.16 100.93 56.02 100.9 55.91 100.79C55.78 100.64 55.76 100.4 55.88 100.26C56.44 99.57 56.72 98.89 56.97 98.3C57.59 96.82 58.07 96.04 60.73 97.24C60.9 97.31 61 97.53 60.96 97.72C60.91 97.91 60.74 98 60.56 97.93C58.31 96.92 58.09 97.44 57.56 98.68C57.31 99.29 56.99 100.05 56.37 100.81C56.35 100.84 56.31 100.87 56.27 100.88Z" fill="#CE8072" fill-opacity="1.000000" fill-rule="nonzero"/>
	<path id="Vector" d="M38.72 94.04C38.78 94.01 38.83 93.95 38.86 93.89C39.28 92.77 40.73 91.27 41.56 90.88C41.69 90.81 41.75 90.65 41.69 90.52C41.63 90.37 41.47 90.32 41.34 90.38C40.39 90.83 38.85 92.41 38.36 93.69C38.31 93.83 38.37 94 38.51 94.05C38.59 94.07 38.66 94.07 38.72 94.04Z" fill="#1E063D" fill-opacity="1.000000" fill-rule="nonzero"/>
	<path id="Vector" d="M62.98 81.36C63.04 81.33 63.1 81.28 63.12 81.21C63.17 81.06 63.1 80.9 62.96 80.85C61.71 80.38 59.55 80.55 58.59 81C58.46 81.07 58.4 81.23 58.46 81.37C58.52 81.51 58.68 81.57 58.81 81.5C59.59 81.14 61.59 80.92 62.77 81.36C62.85 81.4 62.92 81.39 62.98 81.36Z" fill="#1E063D" fill-opacity="1.000000" fill-rule="nonzero"/>
	<path id="Vector" d="M65.54 88.02C65.57 88.01 65.6 87.98 65.63 87.96L66.9 86.77C67.04 86.63 67.05 86.41 66.92 86.27C66.8 86.13 66.58 86.11 66.44 86.25L65.18 87.44C65.04 87.58 65.03 87.8 65.15 87.94C65.26 88.05 65.42 88.08 65.54 88.02Z" fill="#19173B" fill-opacity="1.000000" fill-rule="nonzero"/>
	<path id="Vector" d="M64.45 87.34C64.48 87.32 64.5 87.3 64.53 87.28L65.8 86.08C65.94 85.95 65.95 85.73 65.82 85.59C65.7 85.44 65.49 85.43 65.35 85.56L64.08 86.76C63.94 86.89 63.93 87.12 64.05 87.26C64.16 87.37 64.32 87.4 64.45 87.34Z" fill="#19173B" fill-opacity="1.000000" fill-rule="nonzero"/>
	<path id="Vector" d="M43.13 97.79C43.1 97.81 43.06 97.81 43.03 97.82L41.32 98.03C41.14 98.05 40.97 97.91 40.95 97.72C40.92 97.53 41.06 97.35 41.24 97.33L42.95 97.12C43.13 97.1 43.3 97.24 43.32 97.44C43.34 97.58 43.26 97.73 43.13 97.79Z" fill="#19173B" fill-opacity="1.000000" fill-rule="nonzero"/>
	<path id="Vector" d="M43.35 96.49C43.32 96.5 43.28 96.51 43.25 96.52L41.54 96.72C41.36 96.75 41.19 96.6 41.17 96.41C41.15 96.22 41.28 96.04 41.46 96.02L43.17 95.81C43.35 95.79 43.52 95.93 43.54 96.12C43.57 96.28 43.48 96.42 43.35 96.49Z" fill="#19173B" fill-opacity="1.000000" fill-rule="nonzero"/>
	<path id="Vector" d="M69.98 92.8C69.76 92.94 69.5 93.1 69.14 93.27C67.26 94.15 65.56 94.43 65.01 93.18C64.47 91.96 65.28 89.67 67.17 88.79C67.96 88.42 68.58 88.15 69.08 88.16C69.47 89.69 69.76 91.27 69.98 92.8Z" fill="#EE847C" fill-opacity="1.000000" fill-rule="nonzero"/>
	<path id="Vector" d="M41.29 103.84C41.82 105.04 43.48 104.77 45.31 103.91C47.12 103.05 48.41 101.93 47.88 100.73C47.35 99.52 45.21 98.7 43.39 99.56C41.57 100.42 40.76 102.63 41.29 103.84Z" fill="#EE847C" fill-opacity="1.000000" fill-rule="nonzero"/>
	<path id="Vector" d="M43.42 97.91C43.37 97.92 43.32 97.93 43.27 97.92C43 97.89 42.81 97.64 42.84 97.38C43 95.85 43.99 94.49 45.43 93.83C46.91 93.14 48.56 93.34 49.95 94.37C50.17 94.53 50.22 94.84 50.06 95.06C49.91 95.28 49.61 95.33 49.39 95.17C48.29 94.35 46.98 94.18 45.81 94.73C44.71 95.24 43.91 96.32 43.79 97.48C43.78 97.7 43.62 97.87 43.42 97.91Z" fill="#19173B" fill-opacity="1.000000" fill-rule="nonzero"/>
	<path id="Vector" d="M59.76 91.29C59.74 91.3 59.72 91.3 59.7 91.3C59.43 91.32 59.2 91.11 59.19 90.84C59.09 89.43 59.9 87.96 61.21 87.18C62.56 86.39 64.08 86.47 65.4 87.4C65.61 87.56 65.67 87.87 65.52 88.1C65.37 88.32 65.07 88.38 64.86 88.22C63.86 87.51 62.7 87.44 61.69 88.04C60.69 88.64 60.07 89.73 60.14 90.76C60.15 91.02 59.99 91.24 59.76 91.29Z" fill="#19173B" fill-opacity="1.000000" fill-rule="nonzero"/>
	<path id="Vector" d="M66.99 81.3C57.56 67.42 54.75 76.95 45.79 66.18C44.95 78.64 40.2 80.9 38.1 94.03C37.77 96.03 37.04 102.02 41.53 109.35C42.48 110.87 43.14 112.36 43.61 113.79C39.07 112.19 34.96 109.55 32.31 106.09C26.4 97.79 20.2 87.27 25.44 77.38C32.69 62.82 55.32 57.49 63.8 74.31C64.93 76.38 66.03 78.75 66.99 81.3Z" fill="#DD8572" fill-opacity="1.000000" fill-rule="nonzero"/>
	<path id="Vector" d="M43.83 125.28C43.71 122.79 46.35 115.67 41.37 107.66C36.88 100.32 37.6 94.35 37.92 92.34C40.04 79.21 44.78 76.94 45.62 64.5C54.66 75.35 57.62 67.22 67.29 81.74C67.29 81.74 66.81 73.48 65.29 70.05C63.49 65.95 52.29 53.54 43.79 59.76C26.53 59.47 13.37 83.82 32.61 106.42C39.1 114.07 40.81 116.79 43.83 125.28Z" fill="#EF584E" fill-opacity="1.000000" fill-rule="nonzero"/>
	<path id="Vector" d="M43.73 117.66C43.62 122.48 37.13 126.55 34.99 125.94L36.12 126.44C36.05 127.49 35.72 128.21 35.08 129.11C34.12 130.53 32.64 131.36 31.09 131.52L31.61 131.51C31.81 132.9 30.89 135.39 28.94 136.08C24.66 137.64 22.31 138.23 21.3 138.35C21.38 140.07 21.59 143.7 19.81 145.57C18.28 147.12 16.36 148.26 14.54 149.09C14.8 148.55 15.01 147.96 15.14 147.23L13.61 149.49C13.22 149.64 12.85 149.8 12.51 149.94C11.72 150.21 10.94 150.49 10.43 150.32C10.12 150.24 9.93 149.96 9.9 149.46C9.84 147.99 9.67 146.37 9.62 144.74C9.59 144.27 9.58 143.81 9.58 143.33C9.58 142.83 9.59 142.36 9.64 141.89C9.9 141.21 10.22 140.55 10.54 139.9C10.88 139.25 11.25 138.61 11.71 138.01C10.92 138.62 10.46 139.75 9.87 140.3C10.56 138.24 12.26 134.98 16.92 134.01C17.18 133.97 17.46 133.91 17.74 133.88C17.91 133.85 18.08 133.83 18.26 133.8C18.27 132.7 20.13 129.22 21.67 127.89C22.89 126.82 24.74 125.81 26.15 125.54L26.35 126.26C25.96 124.7 26.23 122.97 27.21 121.52C28.09 120.23 29.02 119.46 30.44 119.21C30.11 118.42 29.77 117.47 29.97 116.62C30.24 115.43 29.37 112.54 30.04 112.14L30.43 113.13L39.29 120.18L43.73 117.66Z" fill="#EF584E" fill-opacity="1.000000" fill-rule="nonzero"/>
	<path id="Vector" d="M18.58 135.6C15.36 136.46 12.48 138.21 10.54 149.92C10.52 150.06 10.49 150.2 10.46 150.32C10.14 150.23 9.95 149.95 9.93 149.45C9.87 147.98 9.7 146.36 9.64 144.73C9.62 144.27 9.6 143.8 9.6 143.32C9.6 142.83 9.61 142.35 9.66 141.88C9.93 141.21 10.24 140.54 10.56 139.89C10.9 139.24 11.27 138.6 11.73 138.01C10.94 138.61 10.48 139.74 9.89 140.29C10.48 137.33 12.29 134.88 16.94 134C17.2 133.96 17.48 133.9 17.76 133.87L18.58 135.6Z" fill="#EF584E" fill-opacity="1.000000" fill-rule="nonzero"/>
	<path id="Vector" d="M21.36 139.27C21.59 139.39 21.87 139.34 22.04 139.13C22.23 138.9 22.21 138.54 21.98 138.34C19.56 136.23 18.56 133.08 18.55 133.05C18.45 132.76 18.15 132.59 17.86 132.69C17.57 132.79 17.42 133.11 17.51 133.39C17.55 133.54 18.61 136.88 21.27 139.2C21.31 139.23 21.34 139.25 21.36 139.27Z" fill="#B3B9FF" fill-opacity="1.000000" fill-rule="nonzero"/>
	<path id="Vector" d="M23.83 158.43C21.68 157.49 19.57 156.49 17.48 155.42C20.41 154.85 22.88 154.48 22.88 154.48L23.83 158.43Z" fill="#DD8572" fill-opacity="1.000000" fill-rule="nonzero"/>
	<path id="Vector" d="M97.64 150.03C92.86 152 86.73 157.53 84.03 160.91C83.36 161.8 83.09 162.43 82.47 161.38C81.86 160.49 81 158.74 80 158.62C80.21 162.07 80.65 165.17 81.17 169.31C56.75 170.32 32.21 164.28 10.94 151.88C12.03 150.26 13.09 148.72 14.13 147.26C16.9 143.37 19.38 140.2 22.54 137.05C25.66 133.96 29.22 131.33 33.22 129.3C36.09 127.84 38.96 126.56 41.94 125.3C46.62 135.52 53.65 137.55 60.13 137.05C60.74 138.79 61.24 141.69 61.75 143.64C62.48 146.89 62.56 146.89 62.51 143.58C62.54 141.5 62.2 138.37 62.47 136.5C67.54 134.12 68.8 130.2 68.74 123.23C72.86 125.74 77.13 127.83 81.2 130.48C83.98 132.29 86.71 134.24 89.26 136.45C92.16 138.96 94.78 141.78 96.96 145C97.62 145.97 98.25 146.98 98.83 148.04C99.54 149.31 98.97 149.51 97.64 150.03Z" fill="#FFCF3C" fill-opacity="1.000000" fill-rule="nonzero"/>
	<path id="Vector" d="M79.26 146.4C79.26 154.36 78.02 162.17 78.28 169.39C64.66 169.64 50.99 167.72 38 163.72C37.66 154.87 35.45 141.62 32.01 129.84C33.82 128.92 36.48 127.71 38.41 126.83C42.87 152.25 52.87 162.2 65.58 157.33C67.27 156.39 68.54 154.94 69.52 153.21C73.89 144.86 73.05 134 72.68 125.41C74.15 126.29 76.01 127.23 77.44 128.11C78.91 134.21 79.32 140.23 79.26 146.4Z" fill="#FFCF3C" fill-opacity="1.000000" fill-rule="nonzero"/>
	<path id="Vector" d="M64.87 137.65C58.05 138.76 56.85 139.68 64.76 139.23C56.33 141.25 56.94 137.35 64.87 137.65Z" fill="#FFCF3C" fill-opacity="1.000000" fill-rule="nonzero"/>
	<path id="Vector" d="M64.87 141.74C58.05 142.85 56.85 143.78 64.76 143.32C56.33 145.34 56.94 141.44 64.87 141.74Z" fill="#FFCF3C" fill-opacity="1.000000" fill-rule="nonzero"/>
	<path id="Vector" d="M60.33 139.06C60.33 139.73 59.81 140.27 59.16 140.27C58.52 140.27 58 139.73 58 139.06C58 138.39 58.52 137.85 59.16 137.85C59.81 137.85 60.33 138.39 60.33 139.06Z" fill="#FFCF3C" fill-opacity="1.000000" fill-rule="evenodd"/>
	<path id="Vector" d="M60.69 142.95C60.69 143.62 60.17 144.16 59.53 144.16C58.88 144.16 58.36 143.62 58.36 142.95C58.36 142.28 58.88 141.74 59.53 141.74C60.17 141.74 60.69 142.28 60.69 142.95Z" fill="#FFCF3C" fill-opacity="1.000000" fill-rule="evenodd"/>
	<path id="Vector" d="M77.77 159C77.74 162.46 78.34 166.85 78.59 169.82C80.02 169.79 81.46 169.75 82.89 169.67C83.08 169.66 83.28 169.64 83.47 169.64C84.18 169.59 84.88 169.55 85.58 169.5C85.82 169.48 86.05 169.46 86.28 169.44C86.79 169.41 87.3 169.36 87.8 169.31C87.97 169.3 88.16 169.27 88.34 169.26C88.51 169.24 88.7 169.22 88.87 169.21C89.05 169.19 89.23 169.17 89.41 169.15C89.55 169.13 89.69 169.12 89.83 169.1C89.95 169.09 90.08 169.07 90.19 169.07C90.43 169.04 90.66 169.01 90.89 168.98C91.13 168.95 91.37 168.92 91.6 168.89C92.31 168.81 93.01 168.72 93.72 168.61C93.73 168.61 93.73 168.61 93.75 168.6C95.64 168.34 97.51 168.03 99.38 167.67C102.42 167.09 105.43 166.4 108.42 165.6C108.44 165.59 108.46 165.59 108.49 165.58C108.94 165.46 109.39 165.34 109.83 165.21C109.84 165.21 109.85 165.2 109.86 165.2C110.01 165.16 110.16 165.12 110.31 165.07C110.44 165.03 110.57 165 110.7 164.96C111.39 164.76 112.09 164.55 112.78 164.34C114.24 161.55 117.14 161.77 118.94 159.17C122.48 153.85 116.16 149.09 111.44 145.79C111.16 145.59 110.86 145.42 110.58 145.22C110.28 145.01 110.01 144.75 109.81 144.4C108.99 142.22 108.74 139.11 108.89 136.93C109.1 135.64 108.83 134.86 108.98 133.65C107.41 133.41 99.83 132.26 98.09 131.99C98.09 131.99 98.01 132.03 97.98 132.07C97.95 132.07 97.95 132.07 97.94 132.09C97.48 133.69 97.46 135.49 96.64 136.99C95.79 138.39 94.54 139.51 93.1 140.2C92.57 140.46 92.02 140.66 91.45 140.79C84.45 143.83 80.29 151.19 77.77 159Z" fill="#F2A48F" fill-opacity="1.000000" fill-rule="nonzero"/>
	<path id="Vector" d="M108.97 133.66L108.88 136.94C104.54 139.06 99.24 138.59 95.73 138.21C95.95 137.95 96.17 137.68 96.37 137.41C97.45 135.88 97.43 133.95 97.91 132.12C97.91 132.12 97.91 132.1 97.93 132.1C97.95 132.07 97.95 132.07 97.97 132.07C98 132.04 98.09 132 98.09 132L108.97 133.66Z" fill="#DD8572" fill-opacity="1.000000" fill-rule="nonzero"/>
	<path id="Vector" d="M75.2 169.84C90.44 169.98 105.72 167.28 120.04 161.84C122.88 155.32 117.31 148.46 110.55 145.22C102.56 147.2 93.03 145.03 93.09 140.19C81.61 143.8 77.1 158.53 75.2 169.84Z" fill="#B3B9FF" fill-opacity="1.000000" fill-rule="nonzero"/>
	<path id="Vector" d="M111.21 145.66C105.7 147.93 94.16 147.7 92.21 140.55C92.58 140.46 92.91 140.26 93.25 140.08C95.17 146.07 105.2 146.19 110.11 144.67C110.46 145.18 110.82 145.41 111.21 145.66Z" fill="#FFF2E9" fill-opacity="1.000000" fill-rule="nonzero"/>
	<path id="Vector" d="M133.95 107.99C134.39 107.65 135.01 107.8 135.78 108.79C135.78 106.37 133.94 106.12 133.94 106.12C133.94 106.12 138.65 104.57 134 100.5C135.43 102.74 134.62 104.27 133.38 103.9C132.74 103.7 132.91 103.03 132.71 102.71C117.45 77.57 106.01 93.58 92.03 110.03C92.03 110.03 100.46 134.92 113.77 136.45C115.77 136.68 120.63 135.82 125.88 133.17C133.36 129.4 140.37 121.78 133.95 107.99Z" fill="#FFCF3C" fill-opacity="1.000000" fill-rule="nonzero"/>
	<path id="Vector" d="M119.22 125.7C121.33 127.25 121.18 129.66 119.63 130.92C113.49 135.93 113.26 132.7 113.72 131.06L119.22 125.7Z" fill="#F2A48F" fill-opacity="1.000000" fill-rule="nonzero"/>
	<path id="Vector" d="M126.01 119.14C124.89 121.06 121.95 124.11 119.25 126.71C116.76 129.07 114.5 131.04 114.05 131.4L114.05 131.41C114.02 131.42 114.02 131.42 114.02 131.42C114.02 131.44 114.02 131.44 114.02 131.44C113.99 131.46 113.99 131.46 113.99 131.46C98.82 145.9 73.02 115.65 89.04 106.42C90.08 105.83 91.29 105.31 92.72 104.9C93.03 104.82 93.52 104.68 94.03 104.51C94.73 104.3 95.31 103.84 95.73 103.21C98.01 99.65 100.81 96.64 103.79 94.9C107.1 93.01 110.62 92.66 114.03 94.86C125.13 96.4 133.2 106.65 126.01 119.14Z" fill="#F2A48F" fill-opacity="1.000000" fill-rule="nonzero"/>
	<path id="Vector" d="M99.75 116.99C99.95 116.64 102.44 112.55 102.36 112.36C102.28 112.18 99.29 113.85 99.19 113.92C99.1 113.99 99.59 116.47 99.59 116.47L99.75 116.99Z" fill="#DD8572" fill-opacity="1.000000" fill-rule="nonzero"/>
	<path id="Vector" d="M99.58 117.36C99.65 117.43 99.77 117.46 99.87 117.42C100.01 117.36 100.08 117.2 100.03 117.06C99.79 116.39 99.75 115.81 99.72 115.31C99.63 114.06 99.47 113.35 97.23 113.27C97.08 113.26 96.96 113.38 96.94 113.53C96.93 113.67 97.04 113.8 97.18 113.81C99.08 113.88 99.11 114.32 99.18 115.38C99.21 115.89 99.26 116.53 99.52 117.28C99.54 117.31 99.56 117.34 99.58 117.36Z" fill="#DD8572" fill-opacity="1.000000" fill-rule="nonzero"/>
	<path id="Vector" d="M97.77 101.12C97.72 101.05 97.71 100.96 97.72 100.87C97.75 100.7 97.91 100.6 98.07 100.64C99.51 101.03 101.48 102.64 102.14 103.71C102.24 103.86 102.2 104.05 102.07 104.15C101.94 104.25 101.75 104.19 101.66 104.04C101.12 103.18 99.33 101.63 97.96 101.27C97.87 101.24 97.81 101.19 97.77 101.12Z" fill="#352119" fill-opacity="1.000000" fill-rule="nonzero"/>
	<path id="Vector" d="M112.92 117.76C112.93 117.68 112.98 117.6 113.05 117.55C113.19 117.45 113.37 117.49 113.46 117.64C114.23 118.96 114.56 121.53 114.31 122.78C114.27 122.95 114.11 123.07 113.96 123.04C113.8 123.01 113.7 122.84 113.74 122.67C113.94 121.66 113.7 119.26 112.96 118C112.91 117.93 112.9 117.84 112.92 117.76Z" fill="#352119" fill-opacity="1.000000" fill-rule="nonzero"/>
	<path id="Vector" d="M98.79 108.07C98.32 108.94 97.64 108.69 96.74 108.17C95.84 107.64 95.08 107.04 95.55 106.18C96.02 105.31 97.13 105.02 98.02 105.54C98.92 106.07 99.27 107.2 98.79 108.07Z" fill="#19173B" fill-opacity="1.000000" fill-rule="nonzero"/>
	<path id="Vector" d="M106.72 120.16C107.27 120.97 107.84 121.37 108.69 120.77C109.53 120.16 109.77 119 109.22 118.18C108.66 117.37 107.56 116.59 106.72 117.19C105.87 117.8 106.16 119.35 106.72 120.16Z" fill="#19173B" fill-opacity="1.000000" fill-rule="nonzero"/>
	<path id="Vector" d="M93.67 109.09C92.97 109.9 91.65 109.21 90.36 107.99C89.81 107.47 89.35 106.95 89.04 106.44C90.08 105.84 91.3 105.32 92.72 104.92C92.77 104.97 92.83 105.02 92.88 105.05C94.18 106.28 94.35 108.27 93.67 109.09Z" fill="#EE847C" fill-opacity="1.000000" fill-rule="nonzero"/>
	<path id="Vector" d="M106.11 127.49C105.13 127.97 104.16 126.76 103.39 125.06C102.62 123.36 102.34 121.82 103.32 121.34C104.3 120.85 106.16 121.63 106.94 123.32C107.7 125.01 107.09 127 106.11 127.49Z" fill="#EE847C" fill-opacity="1.000000" fill-rule="nonzero"/>
	<path id="Vector" d="M126.01 119.14C124.89 121.06 122.47 123.29 119.78 125.88C118.33 126.3 116.79 127.49 114.91 128.95C114.84 128.04 116.21 124.66 116.44 124.11C117.91 120.65 112.53 117.35 117.73 110.91C115.7 110.3 115.17 110.16 111.5 111.28C109.57 111.87 110.46 106.97 108.21 106.15C105.09 105 106.33 101.78 101.58 103.01C101.41 101.58 101.76 99.13 106.66 96.72C105.52 96.29 105.51 95.03 104.48 94.51C107.79 92.62 110.61 92.68 114.03 94.87C125.13 96.4 133.2 106.65 126.01 119.14Z" fill="#DD8572" fill-opacity="1.000000" fill-rule="nonzero"/>
	<path id="Vector" d="M132.85 108.4C133.41 97.74 130.09 91.82 124.53 91.54C122.23 80.43 105.8 83.14 98.36 95.21C104.26 92.43 104.73 95.33 107.16 96.23C102.26 98.65 101.91 101.1 102.08 102.53C106.83 101.3 105.58 104.51 108.71 105.66C110.96 106.49 110.06 111.38 112 110.79C115.66 109.67 116.2 109.83 118.23 110.43C113.03 116.88 118.41 120.18 116.94 123.63C116.7 124.19 114.83 128.03 114.91 128.95C120.82 124.36 123.3 125.75 130.44 127.9C133.44 125.81 138.05 114.92 132.85 108.4Z" fill="#FFCF3C" fill-opacity="1.000000" fill-rule="nonzero"/>
	<path id="Vector" d="M119.34 98.63C115.41 97.92 111.26 96.92 107.34 98.2C111.06 96.27 115.6 97.27 119.34 98.63Z" fill="#332463" fill-opacity="1.000000" fill-rule="nonzero"/>
	<path id="Vector" d="M118.29 101.06C116.1 101.53 113.77 101.75 111.71 102.69C113.49 101.14 116.05 100.87 118.29 101.06Z" fill="#332463" fill-opacity="1.000000" fill-rule="nonzero"/>
	<path id="Vector" d="M90.44 169.04C93.49 168.69 96.51 168.23 99.49 167.65C100.1 167.54 100.72 167.42 101.32 167.29C101.91 167.17 102.51 167.04 103.1 166.91C106.37 166.18 109.59 165.33 112.76 164.34C114.32 163.86 115.86 163.35 117.39 162.81C117.62 162.49 117.82 162.15 118.02 161.81C118.51 160.95 118.8 160.06 118.91 159.18C119 158.57 118.99 157.96 118.9 157.37C118.37 153.67 114.78 150.82 110.71 152.25C108.47 153.03 106.06 154.5 103.59 156.38C102.11 157.5 100.62 158.77 99.13 160.14C98.86 160.38 98.6 160.62 98.34 160.87C97.39 161.77 96.44 162.67 95.5 163.62C95.32 163.82 95.11 164.02 94.93 164.22C94.93 164.22 94.93 164.22 94.91 164.22C93.39 165.81 91.88 167.43 90.44 169.04Z" fill="#898FD6" fill-opacity="1.000000" fill-rule="nonzero"/>
	<path id="Vector" d="M151.54 97.96C169.51 150.96 110.21 173.51 46.32 173.82C70.6 175.76 95.73 187.87 122.23 186.56C146.85 185.35 170.3 170.78 179.97 148.94C193.06 119.36 151.54 97.96 151.54 97.96Z" fill="#5B45FF" fill-opacity="1.000000" fill-rule="nonzero"/>
	<path id="Vector" d="M9.26 142.7C20.67 170.03 58.1 140.28 90.52 159.35C77.49 160.53 76.18 161.2 69.66 166.1C90.68 164.58 117.24 155.97 127.51 147.87C115.93 196.46 21.86 194.88 7.52 173.29C-6.82 151.7 9.26 142.7 9.26 142.7Z" fill="#5B45FF" fill-opacity="1.000000" fill-rule="nonzero"/>
</svg>
