<svg width="80.000000" height="74.041748" viewBox="0 0 80 74.0417" fill="none" xmlns="http://www.w3.org/2000/svg" xmlns:xlink="http://www.w3.org/1999/xlink">
	<desc>
			Created with Pixso.
	</desc>
	<defs/>
	<path id="Vector" d="M22.59 0L22.59 16.28L0 16.28L0 58.56L10.04 58.56L10.04 74.04L27.09 58.56L57.4 58.56L57.4 45.22L71.21 57.75L71.21 42.27L80 42.27L80 0L22.59 0ZM52.71 53.87L25.28 53.87L14.72 63.45L14.72 53.87L4.68 53.87L4.68 20.97L52.71 20.97L52.71 53.87ZM75.31 37.58L66.52 37.58L66.52 47.16L57.4 38.89L57.4 16.28L27.28 16.28L27.28 4.68L75.31 4.68L75.31 37.58Z" fill="#2DBC7C" fill-opacity="1.000000" fill-rule="nonzero"/>
</svg>
