<svg width="44" height="49" viewBox="0 0 44 49" fill="none" xmlns="http://www.w3.org/2000/svg">
<path fill-rule="evenodd" clip-rule="evenodd" d="M27.9968 2C28.8629 2 29.565 2.70211 29.565 3.56815C29.565 4.29042 29.0766 4.89855 28.4121 5.08059C27.8951 4.90558 27.3683 4.75233 26.8334 4.61943C26.5819 4.34125 26.4286 3.97266 26.4286 3.56815C26.4286 2.70211 27.1308 2 27.9968 2Z" stroke="white" stroke-width="3" stroke-miterlimit="22.9256" stroke-linecap="round" stroke-linejoin="round"/>
<path fill-rule="evenodd" clip-rule="evenodd" d="M21.9958 4.02893C33.0393 4.02893 41.9916 12.9815 41.9916 24.0247C41.9916 33.6093 35.2476 41.6175 26.2462 43.5662C26.3278 43.2321 26.3715 42.8832 26.3715 42.524C26.3715 40.1073 24.4125 38.1482 21.9958 38.1482C19.5791 38.1482 17.6201 40.1073 17.6201 42.524C17.6201 42.8832 17.6638 43.2321 17.7454 43.5662C8.74399 41.6175 2 33.6093 2 24.0247C2 12.9815 10.9523 4.02893 21.9958 4.02893Z" stroke="white" stroke-width="3" stroke-miterlimit="22.9256" stroke-linecap="round" stroke-linejoin="round"/>
<path fill-rule="evenodd" clip-rule="evenodd" d="M30.2194 2.80017C31.0855 2.80017 31.7876 3.50228 31.7876 4.36832C31.7876 5.14537 31.2222 5.79035 30.4806 5.91472C29.976 5.6779 29.4603 5.46087 28.9337 5.26598C28.8631 5.16497 28.8041 5.05533 28.7585 4.93893C29.2394 4.67117 29.565 4.15767 29.565 3.56811C29.565 3.36675 29.5269 3.1742 29.4578 2.99731C29.6832 2.87173 29.9431 2.80017 30.2194 2.80017V2.80017Z" stroke="white" stroke-width="3" stroke-miterlimit="22.9256" stroke-linecap="round" stroke-linejoin="round"/>
<path d="M6.85437 26.3392C7.73852 23.6511 10.2688 21.7102 13.2527 21.7102C16.2367 21.7102 18.767 23.6511 19.6511 26.3392M24.3406 26.3392C25.2247 23.6511 27.7549 21.7102 30.7389 21.7102C33.7229 21.7102 36.2532 23.6511 37.1373 26.3392" stroke="white" stroke-width="3" stroke-miterlimit="22.9256" stroke-linecap="round" stroke-linejoin="round"/>
<path fill-rule="evenodd" clip-rule="evenodd" d="M21.9959 36.4945C25.212 36.4945 27.8191 37.6054 27.8191 38.9758C27.8191 39.6836 27.1233 40.3222 26.0074 40.7743C25.3323 39.2286 23.7904 38.1482 21.9959 38.1482C20.2013 38.1482 18.6594 39.2286 17.9843 40.7743C16.8684 40.3222 16.1726 39.6836 16.1726 38.9758C16.1726 37.6054 18.7798 36.4945 21.9959 36.4945Z" stroke="white" stroke-width="3" stroke-miterlimit="22.9256" stroke-linecap="round" stroke-linejoin="round"/>
<path d="M21.9958 46.8996C24.4125 46.8996 26.3716 44.9406 26.3716 42.5239C26.3716 40.1073 24.4125 38.1482 21.9958 38.1482C19.5792 38.1482 17.6201 40.1073 17.6201 42.5239C17.6201 44.9406 19.5792 46.8996 21.9958 46.8996Z" stroke="white" stroke-width="3" stroke-miterlimit="22.9256" stroke-linecap="round" stroke-linejoin="round"/>
<path d="M21.9958 44.6835C23.1885 44.6835 24.1554 43.7167 24.1554 42.524C24.1554 41.3313 23.1885 40.3644 21.9958 40.3644C20.8031 40.3644 19.8362 41.3313 19.8362 42.524C19.8362 43.7167 20.8031 44.6835 21.9958 44.6835Z" stroke="white" stroke-width="3" stroke-miterlimit="22.9256" stroke-linecap="round" stroke-linejoin="round"/>
</svg>
