<svg width="26.000000" height="26.000000" viewBox="0 0 26 26" fill="none" xmlns="http://www.w3.org/2000/svg" xmlns:xlink="http://www.w3.org/1999/xlink">
	<desc>
			Created with Pixso.
	</desc>
	<defs>
		<clipPath id="clip25_80">
			<rect id="house (11) 1" rx="0.000000" width="25.000000" height="25.000000" transform="translate(0.500000 0.500000)" fill="white" fill-opacity="0"/>
		</clipPath>
	</defs>
	<rect id="house (11) 1" rx="0.000000" width="25.000000" height="25.000000" transform="translate(0.500000 0.500000)" fill="#FFFFFF" fill-opacity="0"/>
	<g clip-path="url(#clip25_80)">
		<path id="Vector" d="M23.55 24.45L23.55 12.72L24.92 14.09L25.99 13.01L22.69 9.71L22.69 2.04L18.12 2.04L18.12 5.14L13 0.01L0 13.01L1.07 14.09L2.44 12.72L2.44 24.45L0 24.45L0 25.98L26 25.98L26 24.45L23.55 24.45ZM19.65 3.56L21.17 3.56L21.17 8.19L19.65 6.66L19.65 3.56ZM3.97 11.2L13 2.17L22.02 11.2L22.02 24.45L3.97 24.45L3.97 11.2Z" fill="#513CF3" fill-opacity="1.000000" fill-rule="nonzero"/>
		<path id="Vector" d="M15.28 8.58C15.28 7.32 14.26 6.3 13 6.3C11.74 6.3 10.71 7.32 10.71 8.58C10.71 9.84 11.74 10.87 13 10.87C14.26 10.87 15.28 9.84 15.28 8.58ZM13 9.35C12.58 9.35 12.23 9 12.23 8.58C12.23 8.16 12.58 7.82 13 7.82C13.42 7.82 13.76 8.16 13.76 8.58C13.76 9 13.42 9.35 13 9.35Z" fill="#513CF3" fill-opacity="1.000000" fill-rule="nonzero"/>
	</g>
</svg>
