<svg width="40.313316" height="38.867249" viewBox="0 0 40.3133 38.8672" fill="none" xmlns="http://www.w3.org/2000/svg" xmlns:xlink="http://www.w3.org/1999/xlink">
	<desc>
			Created with Pixso.
	</desc>
	<defs>
		<clipPath id="clip25_162">
			<rect id="instagram (13) 1" rx="0.000000" width="15.125326" height="14.546903" transform="translate(12.593994 12.160187)" fill="white" fill-opacity="0"/>
		</clipPath>
	</defs>
	<rect id="Rectangle 6" x="0.500000" y="38.367249" rx="12.000000" width="37.867256" height="39.313316" transform="rotate(-90 0.500000 38.367249)" stroke="#E1DEFC" stroke-opacity="1.000000" stroke-width="1.000000"/>
	<rect id="instagram (13) 1" rx="0.000000" width="15.125326" height="14.546903" transform="translate(12.593994 12.160187)" fill="#FFFFFF" fill-opacity="0"/>
	<g clip-path="url(#clip25_162)">
		<path id="Vector" d="M23.18 11.66L17.13 11.66C14.35 11.66 12.09 13.83 12.09 16.51L12.09 22.34C12.09 25.03 14.35 27.2 17.13 27.2L23.18 27.2C25.96 27.2 28.21 25.03 28.21 22.34L28.21 16.51C28.21 13.83 25.96 11.66 23.18 11.66ZM26.7 22.34C26.7 24.22 25.12 25.74 23.18 25.74L17.13 25.74C15.18 25.74 13.6 24.22 13.6 22.34L13.6 16.51C13.6 14.64 15.18 13.11 17.13 13.11L23.18 13.11C25.12 13.11 26.7 14.64 26.7 16.51L26.7 22.34Z" fill="#5B45FF" fill-opacity="1.000000" fill-rule="nonzero"/>
		<path id="Vector" d="M20.15 15.54C17.93 15.54 16.12 17.28 16.12 19.43C16.12 21.58 17.93 23.32 20.15 23.32C22.38 23.32 24.18 21.58 24.18 19.43C24.18 17.28 22.38 15.54 20.15 15.54ZM20.15 21.86C18.76 21.86 17.63 20.77 17.63 19.43C17.63 18.09 18.76 17 20.15 17C21.54 17 22.67 18.09 22.67 19.43C22.67 20.77 21.54 21.86 20.15 21.86Z" fill="#5B45FF" fill-opacity="1.000000" fill-rule="nonzero"/>
		<path id="Vector" d="M25.02 15.25C25.02 15.54 24.78 15.77 24.49 15.77C24.19 15.77 23.95 15.54 23.95 15.25C23.95 14.96 24.19 14.73 24.49 14.73C24.78 14.73 25.02 14.96 25.02 15.25Z" fill="#5B45FF" fill-opacity="1.000000" fill-rule="evenodd"/>
	</g>
</svg>
