<svg width="192.000000" height="198.000000" viewBox="0 0 192 198" fill="none" xmlns="http://www.w3.org/2000/svg" xmlns:xlink="http://www.w3.org/1999/xlink">
	<desc>
			Created with Pixso.
	</desc>
	<defs>
		<clipPath id="clip333_160">
			<rect id="moms 1" rx="0.000000" width="191.000000" height="197.000000" transform="translate(0.500000 0.500000)" fill="white" fill-opacity="0"/>
		</clipPath>
	</defs>
	<g clip-path="url(#clip333_160)">
		<path id="Vector" d="M189.27 117.06C179.48 66.7 149.32 82.29 134.95 32.6C126.31 2.71 88.92 -11.08 75.77 11.03C68.43 8.22 52.15 14.4 47.39 42.88C42.2 73.92 36.14 91.37 32.7 94.26C9.75 113.61 -24.98 165.57 31.31 191.21C71.86 209.69 137.28 179.07 136.99 162.54C131.3 167.26 43.29 177.72 33.7 147.35C26.54 124.64 66.5 109.36 84.54 96.83C85.64 97.97 86.4 99.27 86.7 100.77C93.43 134 169.62 71.1 166.02 177.05C166.01 177.52 179.14 164.96 183.81 143.72C185.03 150.05 184.88 157.14 183.39 164.22C183.32 164.51 195.95 151.4 189.27 117.06Z" fill="#5B45FF" fill-opacity="1.000000" fill-rule="nonzero"/>
		<path id="Vector" d="M67.23 148.13L71.14 147.79C70.99 149 70.83 150.21 70.68 151.42C68.99 150.29 67.65 149.17 67.23 148.13Z" fill="#F2A48F" fill-opacity="1.000000" fill-rule="nonzero"/>
		<path id="Vector" d="M159.02 140.34C155.91 142.89 152.69 145.3 149.35 147.55C147.23 148.99 145.07 150.38 142.87 151.68C142.3 152.02 135.72 154.07 135.14 154.41C135.2 150.14 142.39 132.33 142.44 128.66C120.06 130.62 93.36 145.84 71.13 147.78C72.82 134.83 74.82 121.2 77.02 108.54C77.96 102.67 81.03 87.42 81.72 88.93C92.05 88.5 93 73.15 93.97 64.47C94.76 63.88 111.72 49.4 112.65 49.07C112.14 53.78 111.87 57.57 111.9 61.97C112.23 71.92 113.54 76.39 118.09 80.6C125.24 86.1 134.88 85.32 142.83 89.57C145.68 91.25 148.53 93.38 150.4 96.22C157.83 107.29 159.11 128.85 159.02 140.34Z" fill="#F2A48F" fill-opacity="1.000000" fill-rule="nonzero"/>
		<path id="Vector" d="M93.48 69.38C101.23 74.98 110.34 74.09 113.07 73.34C113.04 73.27 113.01 73.19 112.98 73.11C111.41 69.03 111.42 60.33 112.73 51.16C112.85 50.32 112.98 49.45 113.13 48.56L111.15 49.95L93.98 64.47C93.9 66.25 93.73 67.88 93.48 69.38Z" fill="#DD8572" fill-opacity="1.000000" fill-rule="nonzero"/>
		<path id="Vector" d="M137.77 102.79C144.86 116.99 137.75 125.15 130.07 129.3C124.66 132.22 119.62 133.28 117.51 133.1C115.65 132.93 113.86 132.34 112.17 131.42C96.63 136.93 76.2 111.53 90.85 102.53C91.92 101.88 91.89 103.65 93.37 103.18C93.68 103.1 94.18 102.92 94.72 102.74C95.45 102.51 97.33 99.66 97.74 98.97C100.03 95.19 103.81 91.62 107.52 90.53C107.79 90.46 106.4 89.79 106.64 89.66C105.37 89.01 116.76 101.15 120.54 95.44C120.6 95.35 120.72 95.3 120.82 95.34C121.98 95.75 128.6 97.95 128.78 97.98C130.32 98.39 131.93 98.77 133.61 99.19C136.33 99.87 138.38 101.62 141.34 102.74L142.16 101.76C142.33 101.82 142.36 102.05 142.22 102.17C139.91 104.13 135.92 93.81 136.38 97.41C136.53 97.76 136.45 98.37 137.06 98.53C138.36 98.89 139.17 97.26 137.61 94.97C142.58 99.08 137.71 100.84 137.71 100.84C137.71 100.84 139.63 101.04 139.71 103.57C138.87 102.55 138.22 102.41 137.77 102.79Z" fill="#DD8572" fill-opacity="1.000000" fill-rule="nonzero"/>
		<path id="Vector" d="M142.44 128.66C137.3 148.76 139.52 149.52 139.06 153.88C118.04 165.55 93.87 171.11 70.04 169.9C67.97 155.5 61.05 143.28 59.9 129.08C64.03 119.29 64.64 104.91 62.98 93.15C66.81 91.06 77.4 87.62 81.73 88.93C87.36 100.53 100.3 105.43 112.41 102.95C122.6 101.14 132.58 95.29 140.82 88.59C144 89.92 146.93 92.1 149.27 94.69C150.98 96.73 152.16 99.19 153.23 101.63C148.21 106.2 142.65 116.44 142.44 128.66Z" fill="#FFF2E9" fill-opacity="1.000000" fill-rule="nonzero"/>
		<path id="Vector" d="M89.97 83.15C87.54 83.73 85.74 85.97 84.31 87.99C77.52 98.94 77.57 112.78 78.27 125.38L69.1 125.38C70.52 111.7 72.95 96.74 82.24 86.24C84.28 84.22 87.3 81.46 90.31 81.99L89.97 83.15Z" fill="#39BA80" fill-opacity="1.000000" fill-rule="nonzero"/>
		<path id="Vector" d="M117.08 79.38C132.18 83.62 133.2 119.4 133.21 132.92L124.09 132.06C125.91 119.8 130.05 86.07 116.87 80.1L117.08 79.38Z" fill="#39BA80" fill-opacity="1.000000" fill-rule="nonzero"/>
		<path id="Vector" d="M137.18 154.64C116.95 165.42 93.99 170.59 71.25 169.65C69.55 169.58 68.13 168.28 67.82 166.55C66.69 160.2 62.72 157.07 59.73 151.81C53.62 140.18 58.12 119.7 71.17 119.8C74.65 119.84 78.22 121.14 80.95 123.27C87.03 127.46 90.73 134.35 97.27 132.23C100.71 131.03 103.2 128.41 106.3 126.27C111.77 122.09 118.3 120.07 125.3 120.68C131.28 121.19 138.56 124.06 142.45 128.66C143.28 129.63 140.96 149.27 141.17 152.69C141.25 154.18 138.46 153.96 137.18 154.64Z" fill="#39BA80" fill-opacity="1.000000" fill-rule="nonzero"/>
		<path id="Vector" d="M109.8 52.8L109.42 54.46L108.24 59.51L107.9 61.01C107.38 61.85 106.79 62.7 106.13 63.55C100.1 71.26 88.37 78.97 78.56 78.12C71.25 77.48 67.88 65.26 66.17 56.46C66.14 56.35 66.11 56.19 66.08 56C65.82 54.7 65.26 51.91 65.4 50.88C65.41 50.85 65.41 50.85 65.41 50.83C65.91 46.8 66.28 46.78 66.44 44.24C66.64 40.66 64.84 37.28 65.37 31.58C65.55 29.53 66.04 27.2 67.01 24.45C69.8 16.58 65.29 18.45 70.23 15.81C70.25 15.8 70.25 15.8 70.27 15.8C70.61 15.63 70.99 15.43 71.39 15.21C71.42 15.37 71.48 15.52 71.53 15.66C74.84 25.7 91.83 26.38 99.77 32.69C102.25 34.68 103.98 49.87 109.8 52.8Z" fill="#F2A48F" fill-opacity="1.000000" fill-rule="nonzero"/>
		<path id="Vector" d="M78.73 56.53C76.99 52.28 78.04 46.9 77.87 46.78C77.49 48.73 73.87 55.66 73.87 55.66L78.73 56.53Z" fill="#DD8572" fill-opacity="1.000000" fill-rule="nonzero"/>
		<path id="Vector" d="M78.83 57.07C78.7 57.1 78.55 57.07 78.42 56.99C77.9 56.63 77.05 56.69 76.23 56.76C75.62 56.81 75.05 56.86 74.57 56.74C74.12 56.63 73.8 56.39 73.61 56.03C73.3 55.48 73.34 54.65 73.73 53.46C73.83 53.17 74.13 53.01 74.41 53.11C74.69 53.2 74.84 53.52 74.75 53.81C74.37 54.98 74.48 55.38 74.54 55.5C74.57 55.54 74.61 55.62 74.82 55.67C75.14 55.75 75.63 55.71 76.15 55.67C77.11 55.6 78.2 55.51 79.03 56.09C79.27 56.26 79.34 56.6 79.18 56.85C79.09 56.97 78.96 57.04 78.83 57.07Z" fill="#CE8072" fill-opacity="1.000000" fill-rule="nonzero"/>
		<path id="Vector" d="M71.53 45.09C71.53 46.4 70.5 47.47 69.23 47.47C67.97 47.47 66.94 46.4 66.94 45.09C66.94 43.78 67.97 42.71 69.23 42.71C70.5 42.71 71.53 43.78 71.53 45.09Z" fill="#19173B" fill-opacity="1.000000" fill-rule="evenodd"/>
		<path id="Vector" d="M70.82 38.09C70.72 38.12 70.6 38.11 70.5 38.06C70.4 38.01 67.99 36.97 65.39 39.05C65.15 39.23 64.82 39.19 64.64 38.95C64.46 38.7 64.5 38.36 64.73 38.18C67.85 35.68 70.8 37 70.93 37.06C71.19 37.18 71.32 37.51 71.2 37.78C71.13 37.95 70.99 38.06 70.82 38.09Z" fill="#332463" fill-opacity="1.000000" fill-rule="nonzero"/>
		<path id="Vector" d="M67.96 44.22C67.79 44.29 67.59 44.26 67.44 44.12L65.52 42.44C65.29 42.25 65.26 41.9 65.46 41.67C65.64 41.44 65.97 41.41 66.19 41.61L68.12 43.29C68.34 43.49 68.37 43.83 68.18 44.06C68.12 44.14 68.05 44.19 67.96 44.22Z" fill="#19173B" fill-opacity="1.000000" fill-rule="nonzero"/>
		<path id="Vector" d="M67.31 45.25C67.18 45.3 67.05 45.3 66.92 45.24L64.89 44.31C64.62 44.19 64.51 43.87 64.62 43.6C64.73 43.32 65.05 43.2 65.32 43.32L67.34 44.25C67.61 44.37 67.73 44.69 67.61 44.96C67.55 45.1 67.44 45.21 67.31 45.25Z" fill="#19173B" fill-opacity="1.000000" fill-rule="nonzero"/>
		<path id="Vector" d="M97.65 41.44C97.44 41.49 97.22 41.4 97.1 41.2C95.34 38.32 92.72 38.47 92.61 38.47C92.32 38.5 92.07 38.27 92.05 37.96C92.02 37.66 92.24 37.4 92.54 37.37C92.67 37.37 95.88 37.16 98 40.6C98.15 40.86 98.09 41.21 97.84 41.37C97.78 41.4 97.71 41.43 97.65 41.44Z" fill="#332463" fill-opacity="1.000000" fill-rule="nonzero"/>
		<path id="Vector" d="M91.08 46.02C90.86 46.11 90.61 46.03 90.47 45.83C90.29 45.59 90.35 45.24 90.59 45.06L92.69 43.48C92.93 43.29 93.27 43.35 93.44 43.6C93.62 43.85 93.56 44.2 93.32 44.38L91.21 45.96C91.17 45.98 91.12 46 91.08 46.02Z" fill="#19173B" fill-opacity="1.000000" fill-rule="nonzero"/>
		<path id="Vector" d="M91.67 47.1C91.39 47.21 91.09 47.06 90.98 46.77C90.89 46.49 91.03 46.17 91.31 46.06L93.46 45.25C93.74 45.15 94.04 45.3 94.15 45.59C94.24 45.87 94.1 46.19 93.82 46.29L91.67 47.1Z" fill="#19173B" fill-opacity="1.000000" fill-rule="nonzero"/>
		<path id="Vector" d="M91.64 46.95C91.64 48.26 90.61 49.32 89.35 49.32C88.08 49.32 87.05 48.26 87.05 46.95C87.05 45.63 88.08 44.57 89.35 44.57C90.61 44.57 91.64 45.63 91.64 46.95Z" fill="#19173B" fill-opacity="1.000000" fill-rule="evenodd"/>
		<path id="Vector" d="M85.6 55.02C85.49 56.85 87.69 57.64 90.45 57.82C93.21 57.99 95.49 57.48 95.6 55.66C95.71 53.84 93.57 52.1 90.81 51.93C88.04 51.75 85.71 53.2 85.6 55.02Z" fill="#EE847C" fill-opacity="1.000000" fill-rule="nonzero"/>
		<path id="Vector" d="M66.08 56.01C67.61 55.44 69.2 54.42 69.25 53.58C69.31 52.25 67.42 51.09 65.41 50.83C65.41 50.84 65.41 50.86 65.4 50.87C65.26 51.91 65.82 54.71 66.08 56.01Z" fill="#EE847C" fill-opacity="1.000000" fill-rule="nonzero"/>
		<path id="Vector" d="M106.12 63.51C106.97 62.06 107.68 60.78 108.24 59.51L107.9 61.01C107.38 61.85 106.79 62.7 106.13 63.56C106.13 63.53 106.13 63.53 106.12 63.51Z" fill="#DD8572" fill-opacity="1.000000" fill-rule="nonzero"/>
		<path id="Vector" d="M109.8 52.8L110.5 53.77C104.39 49.29 102.81 39.6 99.64 36.46C89.75 26.68 79.43 29.73 73.3 21.48C71.45 25.26 68.36 28 65.37 31.58C65.55 29.54 66.04 27.21 67.01 24.46C69.8 16.58 65.29 18.46 70.23 15.82C70.25 15.81 70.25 15.81 70.27 15.8C70.69 15.72 71.11 15.69 71.53 15.67C74.85 25.71 91.84 26.39 99.78 32.7C102.25 34.68 103.98 49.87 109.8 52.8Z" fill="#DD8572" fill-opacity="1.000000" fill-rule="nonzero"/>
		<path id="Vector" d="M74.93 14.71C72.78 29.88 60.06 20.88 64.65 59.1C64.65 59.1 43.76 38.64 61.49 19.4C64.42 16.2 70.94 11.83 74.93 14.71Z" fill="#5B45FF" fill-opacity="1.000000" fill-rule="nonzero"/>
		<path id="Vector" d="M99.77 34.61C102.98 37.79 103.46 48.43 109.81 52.8C109.52 55.71 108.21 58.28 106.25 61.64C106.49 67.68 107.47 70.12 110.21 78.02C115.13 92.19 118.75 98.07 127.86 99.36C127.86 99.36 118.28 88.56 120.97 77.32C124.43 62.78 118.82 66.96 119.25 52.28C120.4 12.51 86.91 2.29 71.26 15.85C76.9 28.9 88.61 23.54 99.77 34.61Z" fill="#5B45FF" fill-opacity="1.000000" fill-rule="nonzero"/>
		<path id="Vector" d="M99.43 45.42C100.84 49.44 104.68 49.46 107.34 51.53C110.26 49.08 115.99 49.5 113.44 55.51C111.19 60.8 109.67 66.78 107.7 65.08C106.82 64.33 104.95 61.34 104.95 61.34C102.89 64.16 102.41 61.79 98.18 65.32L99.43 45.42Z" fill="#F2A48F" fill-opacity="1.000000" fill-rule="nonzero"/>
		<path id="Vector" d="M36.26 121.86L37 121.54C36.7 121.65 36.44 121.75 36.26 121.86ZM76.8 101.71C76.86 100.57 79.51 92.03 74.07 85.46C76.59 71.67 70.05 62.16 62.2 57.44C55.33 53.32 47.45 52.88 43.79 56.47C42.76 56.12 41.71 55.89 40.64 55.79C39.36 55.67 38.07 55.72 36.78 55.94C25.19 57.88 13.61 72.7 14.75 88.01C15.46 97.46 20.45 112.39 30.92 118.29C31.56 118.66 32.22 118.98 32.9 119.27L37.39 121.43C38.73 121.06 40.72 120.7 42.47 119.75C42.95 119.49 43.42 119.19 43.84 118.83C43.96 118.74 44.07 118.63 44.19 118.52C44.58 118.14 44.95 117.71 45.24 117.21C45.68 116.47 46.01 115.57 46.15 114.51C46.19 114.25 46.21 113.98 46.23 113.7L67.09 109.98C67.26 110.24 67.62 110.41 68.04 110.5C68.47 110.6 68.96 110.64 69.39 110.64C69.74 110.64 70.05 110.61 70.24 110.58C70.04 111.46 76.8 101.71 76.8 101.71Z" fill="#EF584E" fill-opacity="1.000000" fill-rule="nonzero"/>
		<path id="Vector" d="M81.42 140.83C81.23 141.27 80.97 141.43 80.68 141.4C80.2 141.35 79.62 140.83 79.05 140.31C77.41 138.81 75.36 136.57 74.29 133.95C73.38 131.72 74.79 128.71 75.44 127.27C74.61 126.8 71.43 124.75 70.5 120.53C70.2 119.16 70.43 117.8 71.06 116.67L71.5 116.88C70.23 116.19 69.26 114.95 68.9 113.39C68.67 112.38 68.62 111.65 68.92 110.74L70.06 110.71C68.02 110.46 65.57 108.28 66.18 105.25L76.12 102.43L76.8 101.72C77.24 102.31 78 104.38 77.83 105.48C77.65 106.69 76.76 107.95 76.17 108.63L76.9 107.85C78.02 108.57 78.56 109.57 78.88 111C79.23 112.58 78.87 114.14 78.02 115.34L78.44 114.82C79.55 115.54 80.16 116.72 80.48 118.14C80.72 119.21 79.93 123.53 79.57 124.49C79.71 124.57 79.85 124.66 79.99 124.74C88.17 129.58 83.64 135.82 81.42 140.83Z" fill="#EF584E" fill-opacity="1.000000" fill-rule="nonzero"/>
		<path id="Vector" d="M81.42 140.83C81.23 141.27 80.97 141.43 80.68 141.4C80.69 141.28 80.71 141.15 80.74 141.03C83.03 130.34 81.26 127.93 78.78 126.04L79.99 124.71C88.17 129.58 83.64 135.82 81.42 140.83Z" fill="#EF584E" fill-opacity="1.000000" fill-rule="nonzero"/>
		<path id="Vector" d="M75.08 128.03C74.85 128.06 74.62 127.92 74.55 127.68C74.46 127.4 74.61 127.11 74.88 127.02C77.64 126.09 79.56 123.76 79.58 123.74C79.76 123.52 80.08 123.5 80.29 123.68C80.5 123.87 80.53 124.2 80.35 124.42C80.26 124.52 78.23 126.99 75.19 128.02C75.15 128.02 75.11 128.03 75.08 128.03Z" fill="#B3B9FF" fill-opacity="1.000000" fill-rule="nonzero"/>
		<path id="Vector" d="M108.6 165.63C107.99 165.79 107.38 165.94 106.76 166.09C106.13 166.24 105.49 166.38 104.85 166.53C101.75 167.21 98.62 167.79 95.45 168.24C94.33 168.4 93.21 168.55 92.08 168.68C91.42 167.82 90.75 167 90.08 166.24C89.01 165.01 87.93 163.89 86.86 162.86C86.2 162.23 85.56 161.64 84.91 161.07C84.43 160.65 83.96 160.26 83.49 159.87C83.48 159.87 83.48 159.87 83.48 159.86L83.47 159.85C83.37 159.78 83.28 159.69 83.19 159.62C82.77 159.28 82.37 158.95 81.96 158.63C81.92 158.6 81.87 158.57 81.83 158.53C81.33 158.14 80.83 157.75 80.34 157.38C80.31 159.01 80.33 160.73 80.37 162.49C80.38 163.1 80.41 163.73 80.43 164.34C80.5 166.04 80.58 167.77 80.7 169.51C80.33 169.52 79.95 169.53 79.57 169.54C79.44 169.54 79.3 169.55 79.17 169.55C78.41 169.56 77.65 169.57 76.88 169.57C75.36 169.57 73.85 169.54 72.35 169.49C71.98 169.47 71.61 169.46 71.24 169.44C71 169.44 70.76 169.42 70.52 169.41C69.85 169.38 69.18 169.34 68.52 169.29C62.64 168.92 56.86 168.14 51.21 167C47.03 166.15 42.92 165.11 38.88 163.87C36.77 163.21 34.67 162.52 32.6 161.76C32.41 159.94 32.18 158.14 31.91 156.34C31.54 156.84 30.54 158.31 29.21 160.47C27.69 159.87 26.2 159.23 24.71 158.58C22.56 157.64 20.44 156.64 18.36 155.57C16.93 154.85 15.52 154.1 14.11 153.32C20.63 142.68 27.63 137 33.56 132.7C35.73 131.14 37.75 129.75 39.55 128.38C40.76 127.45 41.88 126.53 42.87 125.55C43.29 125.15 43.69 124.72 44.07 124.28C44.12 124.23 44.17 124.17 44.22 124.11C44.45 123.83 44.68 123.55 44.89 123.27C45.46 122.5 45.96 121.69 46.38 120.82C46.38 120.82 46.38 120.82 46.38 120.82C47.19 119.14 47.7 117.22 47.87 114.94C47.9 114.53 47.92 114.1 47.93 113.67C47.93 113.66 47.93 113.65 47.93 113.64L62.19 114.6L65.01 112.78C64.99 113.9 65.25 115.27 65.6 116.55C66.08 118.26 66.71 119.81 67.03 120.38C67.2 120.68 67.39 120.97 67.58 121.23C68.18 122.08 68.86 122.78 69.61 123.37C70.85 124.37 72.25 125.09 73.67 125.8C73.97 125.94 74.26 126.09 74.56 126.23C75.58 126.73 76.6 127.25 77.57 127.88C77.84 128.05 78.1 128.23 78.36 128.41C78.7 128.67 79.63 129.47 79.76 129.6C80.47 130.3 81.16 131 81.84 131.69C83.85 133.74 85.76 135.75 87.57 137.72C87.66 137.82 87.76 137.92 87.86 138.03C87.9 138.09 87.95 138.14 88 138.19C89.09 139.39 90.14 140.57 91.16 141.73C92.22 142.94 93.23 144.13 94.21 145.3C94.49 145.65 94.77 145.99 95.05 146.32C95.38 146.72 95.7 147.12 96.03 147.52C96.03 147.53 96.04 147.53 96.04 147.54C96.25 147.81 96.46 148.07 96.67 148.33C97.22 148.98 97.72 149.63 98.2 150.28C98.2 150.29 98.2 150.29 98.21 150.29C100.47 153.2 102.48 155.99 104.27 158.67C105.9 161.1 107.34 163.42 108.6 165.63Z" fill="#F2A48F" fill-opacity="1.000000" fill-rule="nonzero"/>
		<path id="Vector" d="M65.61 116.55C65.1 117.97 53.64 121.95 44.07 124.3C44.13 124.24 44.18 124.18 44.23 124.12C44.46 123.85 44.69 123.56 44.9 123.28C45.47 122.52 45.96 121.71 46.38 120.84C46.38 120.84 46.38 120.84 46.38 120.83C47.19 119.15 47.71 117.24 47.88 114.95C47.91 114.54 47.93 114.12 47.94 113.69C47.94 113.68 47.94 113.67 47.94 113.65L62.2 114.62L65.01 112.79C65 113.9 65.26 115.27 65.61 116.55Z" fill="#DD8572" fill-opacity="1.000000" fill-rule="nonzero"/>
		<path id="Vector" d="M30.5 100.38C27.23 102.05 26.47 106.26 28.97 107.88C33.98 111.14 39.13 110.79 37.16 108.45L30.5 100.38Z" fill="#DD8572" fill-opacity="1.000000" fill-rule="nonzero"/>
		<path id="Vector" d="M67.51 82.36C70.53 81.09 72.59 81.43 71.74 87.2C71.13 91.39 71.35 94.33 69.56 94.77L67.51 82.36Z" fill="#DD8572" fill-opacity="1.000000" fill-rule="nonzero"/>
		<path id="Vector" d="M70.86 92.96C72.19 101.96 70.78 110.62 63.81 113.9C58.83 116.48 51.22 116.33 44.49 113.96C39.95 112.35 35.84 109.72 33.19 106.25C27.28 97.96 21.08 87.43 26.32 77.54C33.56 62.98 56.2 57.65 64.68 74.47C65.8 76.53 66.9 78.9 67.86 81.45C68.67 83.64 69.4 85.95 69.95 88.3C70.35 89.85 70.63 91.43 70.86 92.96Z" fill="#F2A48F" fill-opacity="1.000000" fill-rule="nonzero"/>
		<path id="Vector" d="M57.1 100.49C57.01 99.95 55.81 93.5 55.98 93.32C56.15 93.14 58.95 96.92 59.04 97.06C59.12 97.2 57.51 99.93 57.51 99.93L57.1 100.49Z" fill="#DD8572" fill-opacity="1.000000" fill-rule="nonzero"/>
		<path id="Vector" d="M57.15 101.04C57.04 101.09 56.89 101.06 56.79 100.94C56.66 100.79 56.64 100.55 56.75 100.41C57.31 99.73 57.6 99.05 57.85 98.45C58.47 96.98 58.95 96.2 61.61 97.39C61.78 97.47 61.88 97.69 61.84 97.87C61.79 98.07 61.61 98.16 61.44 98.08C59.19 97.07 58.97 97.59 58.44 98.84C58.18 99.45 57.87 100.21 57.25 100.96C57.23 101 57.19 101.02 57.15 101.04Z" fill="#CE8072" fill-opacity="1.000000" fill-rule="nonzero"/>
		<path id="Vector" d="M39.6 94.19C39.66 94.16 39.71 94.11 39.74 94.04C40.16 92.92 41.6 91.43 42.44 91.04C42.57 90.97 42.63 90.8 42.57 90.67C42.51 90.53 42.35 90.47 42.22 90.54C41.26 90.98 39.73 92.56 39.24 93.85C39.18 93.99 39.25 94.15 39.38 94.21C39.46 94.23 39.54 94.22 39.6 94.19Z" fill="#1E063D" fill-opacity="1.000000" fill-rule="nonzero"/>
		<path id="Vector" d="M63.86 81.52C63.92 81.49 63.97 81.43 64 81.36C64.05 81.22 63.97 81.06 63.83 81C62.59 80.54 60.43 80.71 59.47 81.16C59.33 81.23 59.28 81.39 59.33 81.52C59.39 81.66 59.56 81.72 59.69 81.66C60.46 81.29 62.47 81.07 63.65 81.52C63.72 81.55 63.8 81.55 63.86 81.52Z" fill="#1E063D" fill-opacity="1.000000" fill-rule="nonzero"/>
		<path id="Vector" d="M66.42 88.18C66.45 88.16 66.48 88.14 66.51 88.12L67.78 86.92C67.92 86.79 67.93 86.57 67.8 86.42C67.68 86.28 67.46 86.27 67.32 86.4L66.05 87.6C65.91 87.73 65.91 87.95 66.03 88.09C66.14 88.21 66.3 88.24 66.42 88.18Z" fill="#19173B" fill-opacity="1.000000" fill-rule="nonzero"/>
		<path id="Vector" d="M65.32 87.49C65.35 87.48 65.38 87.46 65.41 87.43L66.68 86.24C66.82 86.1 66.83 85.88 66.7 85.74C66.58 85.6 66.36 85.59 66.22 85.72L64.96 86.91C64.81 87.05 64.81 87.27 64.93 87.41C65.04 87.52 65.2 87.55 65.32 87.49Z" fill="#19173B" fill-opacity="1.000000" fill-rule="nonzero"/>
		<path id="Vector" d="M44.01 97.95C43.98 97.96 43.94 97.97 43.91 97.98L42.2 98.19C42.02 98.21 41.85 98.07 41.83 97.87C41.8 97.68 41.94 97.51 42.12 97.49L43.82 97.28C44.01 97.26 44.18 97.4 44.2 97.59C44.22 97.74 44.13 97.88 44.01 97.95Z" fill="#19173B" fill-opacity="1.000000" fill-rule="nonzero"/>
		<path id="Vector" d="M44.23 96.64C44.2 96.66 44.16 96.66 44.13 96.67L42.42 96.88C42.24 96.9 42.07 96.76 42.05 96.57C42.02 96.37 42.16 96.2 42.34 96.17L44.05 95.97C44.23 95.94 44.4 96.08 44.42 96.28C44.44 96.43 44.36 96.57 44.23 96.64Z" fill="#19173B" fill-opacity="1.000000" fill-rule="nonzero"/>
		<path id="Vector" d="M70.86 92.96C70.64 93.1 70.38 93.26 70.02 93.43C68.13 94.31 66.44 94.58 65.89 93.34C65.35 92.11 66.16 89.83 68.05 88.94C68.83 88.58 69.46 88.3 69.96 88.31C70.35 89.85 70.64 91.43 70.86 92.96Z" fill="#EE847C" fill-opacity="1.000000" fill-rule="nonzero"/>
		<path id="Vector" d="M42.17 103.99C42.7 105.2 44.36 104.93 46.18 104.07C48 103.21 49.29 102.08 48.76 100.88C48.23 99.68 46.09 98.85 44.27 99.72C42.44 100.58 41.64 102.79 42.17 103.99Z" fill="#EE847C" fill-opacity="1.000000" fill-rule="nonzero"/>
		<path id="Vector" d="M44.3 98.07C44.25 98.07 44.2 98.08 44.15 98.07C43.88 98.04 43.69 97.8 43.72 97.53C43.88 96.01 44.87 94.64 46.31 93.98C47.78 93.29 49.44 93.49 50.83 94.52C51.04 94.69 51.1 94.99 50.94 95.22C50.79 95.44 50.49 95.49 50.27 95.33C49.16 94.5 47.86 94.34 46.69 94.88C45.59 95.39 44.79 96.48 44.67 97.64C44.66 97.86 44.5 98.02 44.3 98.07Z" fill="#19173B" fill-opacity="1.000000" fill-rule="nonzero"/>
		<path id="Vector" d="M60.64 91.44C60.62 91.45 60.6 91.45 60.57 91.45C60.31 91.47 60.08 91.27 60.07 90.99C59.97 89.59 60.78 88.12 62.09 87.34C63.44 86.54 64.96 86.62 66.28 87.56C66.49 87.72 66.55 88.03 66.4 88.25C66.25 88.47 65.95 88.53 65.74 88.38C64.73 87.66 63.58 87.6 62.57 88.2C61.57 88.79 60.95 89.88 61.02 90.92C61.03 91.18 60.87 91.39 60.64 91.44Z" fill="#19173B" fill-opacity="1.000000" fill-rule="nonzero"/>
		<path id="Vector" d="M67.87 81.46C58.44 67.58 55.62 77.11 46.67 66.34C45.83 78.8 41.08 81.06 38.98 94.18C38.65 96.19 37.92 102.17 42.41 109.51C43.36 111.02 44.02 112.52 44.49 113.95C39.95 112.35 35.84 109.71 33.19 106.24C27.28 97.95 21.08 87.43 26.32 77.54C33.56 62.98 56.2 57.64 64.68 74.46C65.81 76.53 66.91 78.9 67.87 81.46Z" fill="#DD8572" fill-opacity="1.000000" fill-rule="nonzero"/>
		<path id="Vector" d="M44.71 125.44C44.58 122.94 47.23 115.83 42.25 107.82C37.75 100.48 38.48 94.5 38.8 92.5C40.92 79.36 45.66 77.1 46.5 64.65C55.54 75.51 58.5 67.38 68.17 81.89C68.17 81.89 67.68 73.64 66.17 70.21C64.37 66.11 53.17 53.69 44.67 59.92C27.41 59.63 14.25 83.97 33.48 106.58C39.98 114.22 41.69 116.95 44.71 125.44Z" fill="#EF584E" fill-opacity="1.000000" fill-rule="nonzero"/>
		<path id="Vector" d="M44.61 117.82C44.5 122.64 38 126.7 35.87 126.1L36.99 126.59C36.93 127.65 36.6 128.36 35.95 129.27C35 130.68 33.52 131.52 31.97 131.67L32.49 131.66C32.69 133.05 31.77 135.55 29.82 136.24C25.54 137.8 23.19 138.38 22.18 138.5C22.26 140.23 22.47 143.86 20.69 145.72C19.16 147.27 17.23 148.42 15.42 149.25C15.68 148.71 15.89 148.11 16.02 147.38L14.48 149.65C14.1 149.8 13.73 149.96 13.38 150.09C12.6 150.37 11.81 150.64 11.31 150.48C11 150.39 10.8 150.12 10.78 149.61C10.72 148.14 10.55 146.52 10.5 144.9C10.47 144.43 10.46 143.96 10.46 143.49C10.46 142.99 10.46 142.51 10.52 142.05C10.78 141.37 11.1 140.7 11.42 140.06C11.75 139.4 12.13 138.76 12.59 138.17C11.8 138.77 11.33 139.91 10.74 140.46C11.44 138.39 13.14 135.13 17.8 134.17C18.05 134.12 18.33 134.06 18.61 134.03C18.79 134 18.95 133.98 19.14 133.96C19.15 132.85 21.01 129.38 22.55 128.04C23.77 126.98 25.62 125.97 27.03 125.7L27.23 126.42C26.84 124.86 27.11 123.13 28.08 121.68C28.97 120.39 29.9 119.61 31.31 119.37C30.99 118.57 30.65 117.62 30.85 116.78C31.12 115.58 30.25 112.69 30.92 112.29L31.31 113.29L40.17 120.33L44.61 117.82Z" fill="#EF584E" fill-opacity="1.000000" fill-rule="nonzero"/>
		<path id="Vector" d="M19.46 135.76C16.24 136.62 13.36 138.36 11.42 150.08C11.39 150.21 11.36 150.35 11.33 150.47C11.02 150.38 10.83 150.11 10.8 149.6C10.74 148.13 10.57 146.52 10.52 144.89C10.49 144.42 10.48 143.95 10.48 143.48C10.48 142.98 10.49 142.5 10.54 142.04C10.8 141.36 11.12 140.69 11.44 140.05C11.78 139.39 12.15 138.75 12.61 138.16C11.82 138.76 11.36 139.9 10.77 140.45C11.36 137.49 13.16 135.04 17.82 134.16C18.08 134.12 18.36 134.06 18.64 134.03L19.46 135.76Z" fill="#EF584E" fill-opacity="1.000000" fill-rule="nonzero"/>
		<path id="Vector" d="M22.24 139.42C22.46 139.55 22.75 139.5 22.92 139.29C23.11 139.05 23.08 138.7 22.86 138.5C20.44 136.39 19.44 133.24 19.43 133.21C19.33 132.91 19.03 132.75 18.74 132.85C18.45 132.94 18.3 133.26 18.39 133.55C18.43 133.69 19.49 137.03 22.15 139.36C22.18 139.39 22.21 139.4 22.24 139.42Z" fill="#B3B9FF" fill-opacity="1.000000" fill-rule="nonzero"/>
		<path id="Vector" d="M24.71 158.59C22.56 157.64 20.44 156.64 18.36 155.58C21.29 155 23.75 154.64 23.75 154.64L24.71 158.59Z" fill="#DD8572" fill-opacity="1.000000" fill-rule="nonzero"/>
		<path id="Vector" d="M98.52 150.19C93.74 152.16 87.61 157.68 84.91 161.07C84.24 161.96 83.97 162.58 83.35 161.53C82.74 160.64 81.88 158.9 80.88 158.77C81.09 162.23 81.53 165.32 82.05 169.47C57.63 170.48 33.09 164.43 11.82 152.03C12.91 150.41 13.97 148.88 15.01 147.41C17.78 143.53 20.26 140.35 23.42 137.2C26.54 134.12 30.1 131.49 34.1 129.45C36.97 128 39.83 126.71 42.82 125.45C47.5 135.67 54.53 137.71 61.01 137.2C61.61 138.94 62.12 141.84 62.62 143.8C63.35 147.05 63.44 147.04 63.39 143.74C63.42 141.66 63.07 138.53 63.35 136.65C68.41 134.27 69.68 130.36 69.62 123.39C73.74 125.9 78.01 127.98 82.08 130.63C84.86 132.44 87.59 134.4 90.14 136.6C93.03 139.11 95.66 141.94 97.84 145.16C98.5 146.13 99.13 147.14 99.71 148.19C100.42 149.47 99.85 149.66 98.52 150.19Z" fill="#FFCF3C" fill-opacity="1.000000" fill-rule="nonzero"/>
		<path id="Vector" d="M80.14 146.55C80.14 154.51 78.9 162.32 79.16 169.55C65.54 169.79 51.86 167.88 38.87 163.87C38.54 155.02 36.33 141.78 32.89 129.99C34.7 129.08 37.36 127.86 39.29 126.99C43.75 152.41 53.75 162.36 66.46 157.49C68.15 156.55 69.42 155.09 70.4 153.36C74.77 145.02 73.92 134.16 73.56 125.56C75.03 126.45 76.89 127.39 78.32 128.26C79.79 134.37 80.2 140.39 80.14 146.55Z" fill="#FFCF3C" fill-opacity="1.000000" fill-rule="nonzero"/>
		<path id="Vector" d="M65.74 137.81C58.93 138.91 57.73 139.84 65.63 139.39C57.21 141.41 57.82 137.51 65.74 137.81Z" fill="#FFCF3C" fill-opacity="1.000000" fill-rule="nonzero"/>
		<path id="Vector" d="M65.74 141.9C58.93 143 57.73 143.93 65.63 143.48C57.21 145.5 57.82 141.6 65.74 141.9Z" fill="#FFCF3C" fill-opacity="1.000000" fill-rule="nonzero"/>
		<path id="Vector" d="M61.21 139.22C61.21 139.88 60.69 140.42 60.04 140.42C59.4 140.42 58.88 139.88 58.88 139.22C58.88 138.55 59.4 138 60.04 138C60.69 138 61.21 138.55 61.21 139.22Z" fill="#FFCF3C" fill-opacity="1.000000" fill-rule="evenodd"/>
		<path id="Vector" d="M61.57 143.11C61.57 143.78 61.05 144.32 60.4 144.32C59.76 144.32 59.24 143.78 59.24 143.11C59.24 142.44 59.76 141.9 60.4 141.9C61.05 141.9 61.57 142.44 61.57 143.11Z" fill="#FFCF3C" fill-opacity="1.000000" fill-rule="evenodd"/>
		<path id="Vector" d="M78.65 159.16C78.61 162.62 79.22 167 79.47 169.98C80.9 169.95 82.34 169.9 83.77 169.82C83.96 169.81 84.15 169.8 84.35 169.79C85.05 169.75 85.76 169.7 86.46 169.65C86.7 169.64 86.93 169.61 87.16 169.6C87.66 169.56 88.17 169.52 88.68 169.47C88.85 169.45 89.04 169.43 89.21 169.41C89.39 169.4 89.57 169.38 89.75 169.36C89.93 169.35 90.11 169.32 90.29 169.3C90.43 169.29 90.57 169.27 90.71 169.26C90.83 169.24 90.95 169.23 91.07 169.22C91.31 169.19 91.54 169.17 91.77 169.14C92.01 169.11 92.24 169.08 92.48 169.05C93.19 168.96 93.89 168.87 94.6 168.77C94.6 168.77 94.61 168.77 94.63 168.76C96.52 168.49 98.39 168.18 100.26 167.82C103.29 167.25 106.31 166.56 109.3 165.75C109.32 165.75 109.34 165.75 109.36 165.74C109.81 165.62 110.26 165.49 110.71 165.37C110.71 165.37 110.73 165.36 110.74 165.36C110.89 165.32 111.04 165.27 111.19 165.23C111.32 165.19 111.44 165.15 111.58 165.11C112.27 164.91 112.96 164.71 113.66 164.49C115.12 161.71 118.02 161.93 119.82 159.33C123.36 154.01 117.03 149.25 112.31 145.94C112.03 145.74 111.74 145.58 111.46 145.38C111.16 145.16 110.88 144.91 110.68 144.55C109.87 142.37 109.62 139.27 109.77 137.09C109.98 135.79 109.71 135.01 109.86 133.8C108.29 133.57 100.71 132.41 98.97 132.15C98.97 132.15 98.89 132.18 98.85 132.22C98.83 132.22 98.83 132.22 98.82 132.24C98.36 133.85 98.34 135.64 97.52 137.14C96.67 138.54 95.42 139.66 93.98 140.36C93.45 140.61 92.89 140.81 92.33 140.95C85.33 143.98 81.17 151.34 78.65 159.16Z" fill="#F2A48F" fill-opacity="1.000000" fill-rule="nonzero"/>
		<path id="Vector" d="M109.85 133.81L109.76 137.09C105.42 139.22 100.12 138.74 96.6 138.37C96.83 138.11 97.05 137.84 97.25 137.56C98.33 136.03 98.31 134.1 98.79 132.27C98.79 132.27 98.79 132.25 98.81 132.25C98.83 132.23 98.83 132.23 98.85 132.23C98.88 132.19 98.96 132.16 98.96 132.16L109.85 133.81Z" fill="#DD8572" fill-opacity="1.000000" fill-rule="nonzero"/>
		<path id="Vector" d="M76.08 169.99C91.32 170.13 106.6 167.43 120.92 162C123.76 155.48 118.19 148.62 111.43 145.37C103.43 147.35 93.9 145.19 93.97 140.34C82.49 143.95 77.98 158.68 76.08 169.99Z" fill="#B3B9FF" fill-opacity="1.000000" fill-rule="nonzero"/>
		<path id="Vector" d="M112.09 145.82C106.58 148.08 95.04 147.86 93.09 140.71C93.45 140.61 93.79 140.41 94.13 140.23C96.05 146.23 106.07 146.34 110.99 144.83C111.33 145.33 111.7 145.56 112.09 145.82Z" fill="#FFF2E9" fill-opacity="1.000000" fill-rule="nonzero"/>
		<path id="Vector" d="M134.83 108.15C135.27 107.8 135.89 107.96 136.66 108.94C136.65 106.52 134.82 106.27 134.82 106.27C134.82 106.27 139.53 104.73 134.88 100.65C136.31 102.89 135.5 104.42 134.26 104.05C133.62 103.86 133.79 103.19 133.59 102.86C118.33 77.72 106.89 93.74 92.91 110.18C92.91 110.18 101.34 135.08 114.64 136.61C116.65 136.84 121.5 135.97 126.76 133.33C134.23 129.56 141.25 121.94 134.83 108.15Z" fill="#FFCF3C" fill-opacity="1.000000" fill-rule="nonzero"/>
		<path id="Vector" d="M120.1 125.85C122.2 127.4 122.06 129.82 120.51 131.08C114.36 136.08 114.14 132.85 114.59 131.21L120.1 125.85Z" fill="#F2A48F" fill-opacity="1.000000" fill-rule="nonzero"/>
		<path id="Vector" d="M126.89 119.3C125.77 121.21 122.82 124.27 120.13 126.86C117.64 129.23 115.38 131.2 114.93 131.55L114.93 131.57C114.9 131.58 114.9 131.58 114.9 131.58C114.9 131.59 114.9 131.59 114.9 131.59C114.87 131.61 114.87 131.61 114.87 131.61C99.7 146.05 73.89 115.81 89.91 106.58C90.95 105.98 92.17 105.46 93.6 105.05C93.9 104.98 94.4 104.83 94.91 104.67C95.61 104.46 96.19 103.99 96.6 103.36C98.89 99.8 101.69 96.8 104.67 95.06C107.98 93.17 111.5 92.82 114.91 95.01C126 96.55 134.08 106.81 126.89 119.3Z" fill="#F2A48F" fill-opacity="1.000000" fill-rule="nonzero"/>
		<path id="Vector" d="M100.63 117.15C100.83 116.8 103.32 112.7 103.24 112.52C103.16 112.33 100.17 114 100.07 114.08C99.97 114.15 100.47 116.62 100.47 116.62L100.63 117.15Z" fill="#DD8572" fill-opacity="1.000000" fill-rule="nonzero"/>
		<path id="Vector" d="M100.46 117.51C100.53 117.59 100.65 117.62 100.75 117.57C100.89 117.51 100.96 117.36 100.91 117.22C100.67 116.54 100.63 115.97 100.59 115.46C100.51 114.22 100.35 113.5 98.11 113.42C97.96 113.41 97.84 113.53 97.82 113.68C97.81 113.83 97.92 113.96 98.06 113.96C99.96 114.04 99.99 114.48 100.06 115.53C100.09 116.04 100.14 116.69 100.4 117.43C100.42 117.46 100.44 117.49 100.46 117.51Z" fill="#DD8572" fill-opacity="1.000000" fill-rule="nonzero"/>
		<path id="Vector" d="M98.65 101.27C98.6 101.21 98.59 101.12 98.6 101.03C98.63 100.86 98.79 100.75 98.95 100.8C100.39 101.19 102.36 102.8 103.02 103.87C103.12 104.01 103.08 104.21 102.95 104.3C102.81 104.4 102.63 104.35 102.53 104.2C102 103.34 100.21 101.79 98.84 101.42C98.75 101.39 98.68 101.34 98.65 101.27Z" fill="#352119" fill-opacity="1.000000" fill-rule="nonzero"/>
		<path id="Vector" d="M113.8 117.91C113.81 117.83 113.86 117.76 113.93 117.71C114.07 117.61 114.25 117.65 114.34 117.8C115.11 119.12 115.43 121.69 115.18 122.93C115.15 123.1 114.99 123.22 114.84 123.19C114.68 123.16 114.58 122.99 114.62 122.82C114.81 121.82 114.58 119.41 113.84 118.16C113.79 118.08 113.78 118 113.8 117.91Z" fill="#352119" fill-opacity="1.000000" fill-rule="nonzero"/>
		<path id="Vector" d="M99.67 108.22C99.2 109.09 98.51 108.84 97.61 108.32C96.71 107.79 95.95 107.2 96.43 106.33C96.9 105.46 98.01 105.18 98.9 105.7C99.8 106.23 100.14 107.36 99.67 108.22Z" fill="#19173B" fill-opacity="1.000000" fill-rule="nonzero"/>
		<path id="Vector" d="M107.59 120.31C108.15 121.13 108.72 121.53 109.57 120.92C110.41 120.31 110.65 119.15 110.09 118.34C109.54 117.52 108.44 116.74 107.6 117.35C106.75 117.96 107.03 119.5 107.59 120.31Z" fill="#19173B" fill-opacity="1.000000" fill-rule="nonzero"/>
		<path id="Vector" d="M94.55 109.25C93.85 110.06 92.53 109.37 91.23 108.15C90.69 107.62 90.22 107.1 89.92 106.59C90.96 106 92.18 105.48 93.6 105.08C93.65 105.12 93.71 105.17 93.76 105.21C95.06 106.44 95.22 108.42 94.55 109.25Z" fill="#EE847C" fill-opacity="1.000000" fill-rule="nonzero"/>
		<path id="Vector" d="M106.99 127.64C106.01 128.12 105.03 126.91 104.27 125.22C103.5 123.52 103.22 121.98 104.2 121.49C105.18 121.01 107.04 121.78 107.82 123.48C108.58 125.17 107.97 127.16 106.99 127.64Z" fill="#EE847C" fill-opacity="1.000000" fill-rule="nonzero"/>
		<path id="Vector" d="M126.89 119.29C125.77 121.21 123.35 123.45 120.66 126.04C119.21 126.45 117.67 127.65 115.79 129.1C115.71 128.2 117.09 124.82 117.32 124.27C118.79 120.8 113.41 117.51 118.61 111.07C116.58 110.46 116.05 110.32 112.38 111.44C110.45 112.03 111.34 107.13 109.09 106.31C105.96 105.16 107.21 101.94 102.46 103.17C102.28 101.73 102.64 99.28 107.53 96.88C106.4 96.45 106.39 95.19 105.36 94.67C108.66 92.77 111.49 92.84 114.91 95.03C126 96.55 134.08 106.81 126.89 119.29Z" fill="#DD8572" fill-opacity="1.000000" fill-rule="nonzero"/>
		<path id="Vector" d="M133.73 108.56C134.29 97.9 130.97 91.98 125.41 91.7C123.11 80.58 106.68 83.29 99.24 95.36C105.14 92.59 105.61 95.49 108.04 96.39C103.14 98.81 102.79 101.25 102.96 102.69C107.71 101.45 106.46 104.67 109.59 105.82C111.84 106.64 110.94 111.54 112.87 110.95C116.54 109.83 117.08 109.98 119.11 110.59C113.91 117.04 119.29 120.33 117.82 123.79C117.58 124.34 115.71 128.18 115.79 129.1C121.7 124.51 124.17 125.9 131.32 128.06C134.32 125.97 138.93 115.08 133.73 108.56Z" fill="#FFCF3C" fill-opacity="1.000000" fill-rule="nonzero"/>
		<path id="Vector" d="M120.22 98.79C116.29 98.07 112.14 97.08 108.22 98.36C111.94 96.43 116.47 97.42 120.22 98.79Z" fill="#332463" fill-opacity="1.000000" fill-rule="nonzero"/>
		<path id="Vector" d="M119.17 101.22C116.98 101.68 114.65 101.91 112.59 102.84C114.37 101.3 116.92 101.02 119.17 101.22Z" fill="#332463" fill-opacity="1.000000" fill-rule="nonzero"/>
		<path id="Vector" d="M91.32 169.19C94.37 168.84 97.39 168.38 100.37 167.81C100.98 167.69 101.6 167.57 102.2 167.45C102.79 167.33 103.39 167.19 103.98 167.07C107.25 166.34 110.47 165.49 113.64 164.5C115.2 164.02 116.74 163.5 118.27 162.97C118.5 162.64 118.7 162.31 118.89 161.97C119.39 161.11 119.68 160.21 119.79 159.34C119.87 158.72 119.87 158.11 119.78 157.53C119.25 153.83 115.66 150.98 111.58 152.4C109.35 153.19 106.94 154.65 104.47 156.53C102.99 157.65 101.49 158.93 100 160.3C99.74 160.53 99.48 160.78 99.21 161.02C98.26 161.92 97.32 162.83 96.38 163.78C96.2 163.98 95.99 164.18 95.81 164.38C95.81 164.38 95.81 164.38 95.79 164.38C94.27 165.96 92.76 167.59 91.32 169.19Z" fill="#898FD6" fill-opacity="1.000000" fill-rule="nonzero"/>
		<path id="Vector" d="M152.42 98.12C170.39 151.12 111.09 173.67 47.2 173.97C71.48 175.92 96.61 188.02 123.11 186.71C147.73 185.5 171.18 170.94 180.85 149.09C193.94 119.52 152.42 98.12 152.42 98.12Z" fill="#5B45FF" fill-opacity="1.000000" fill-rule="nonzero"/>
		<path id="Vector" d="M10.14 142.85C21.55 170.19 58.97 140.43 91.4 159.5C78.36 160.68 77.06 161.36 70.54 166.25C91.56 164.74 118.12 156.13 128.39 148.03C116.81 196.61 22.74 195.04 8.4 173.45C-5.94 151.85 10.14 142.85 10.14 142.85Z" fill="#5B45FF" fill-opacity="1.000000" fill-rule="nonzero"/>
	</g>
</svg>
