<svg width="64.000000" height="64.000000" viewBox="0 0 64 64" fill="none" xmlns="http://www.w3.org/2000/svg" xmlns:xlink="http://www.w3.org/1999/xlink">
	<desc>
			Created with Pixso.
	</desc>
	<defs>
		<clipPath id="clip175_365">
			<rect id="shapes 1" rx="0.000000" width="63.000000" height="63.000000" transform="translate(0.500000 0.500000)" fill="white" fill-opacity="0"/>
		</clipPath>
	</defs>
	<rect id="shapes 1" rx="0.000000" width="63.000000" height="63.000000" transform="translate(0.500000 0.500000)" fill="#FFFFFF" fill-opacity="0"/>
	<g clip-path="url(#clip175_365)">
		<path id="Vector" d="M35.74 64L64 64L64 35.74L35.74 35.74L35.74 64ZM39.48 39.48L60.25 39.48L60.25 60.25L39.48 60.25L39.48 39.48Z" fill="#2DBC7C" fill-opacity="1.000000" fill-rule="nonzero"/>
		<path id="Vector" d="M48.73 30.53C57.14 30.53 64 23.68 64 15.26C64 6.85 57.14 0 48.73 0C40.31 0 33.46 6.85 33.46 15.27C33.46 23.68 40.31 30.53 48.73 30.53ZM48.73 3.74C55.08 3.74 60.25 8.91 60.25 15.27C60.25 21.62 55.08 26.79 48.73 26.79C42.37 26.79 37.2 21.62 37.2 15.26C37.2 8.91 42.37 3.74 48.73 3.74Z" fill="#2DBC7C" fill-opacity="1.000000" fill-rule="nonzero"/>
		<path id="Vector" d="M0 28.91L32.83 28.91L16.41 0L0 28.91ZM6.43 25.16L16.41 7.58L26.4 25.16L6.43 25.16Z" fill="#2DBC7C" fill-opacity="1.000000" fill-rule="nonzero"/>
		<path id="Vector" d="M7.95 36.43L0 50.21L7.95 64L23.86 64L31.82 50.21L23.86 36.43L7.95 36.43L7.95 36.43ZM21.7 60.25L10.11 60.25L4.32 50.21L10.11 40.18L21.7 40.18L27.49 50.21L21.7 60.25Z" fill="#2DBC7C" fill-opacity="1.000000" fill-rule="nonzero"/>
	</g>
</svg>
