<svg width="40.313324" height="38.867249" viewBox="0 0 40.3133 38.8672" fill="none" xmlns="http://www.w3.org/2000/svg" xmlns:xlink="http://www.w3.org/1999/xlink">
	<desc>
			Created with Pixso.
	</desc>
	<defs>
		<clipPath id="clip523_657">
			<rect id="viber (3) 1" rx="0.000000" width="17.140991" height="16.490265" transform="translate(11.586182 11.188507)" fill="white" fill-opacity="0"/>
		</clipPath>
	</defs>
	<rect id="Rectangle 6" x="0.500000" y="38.367249" rx="12.000000" width="37.867256" height="39.313316" transform="rotate(-90 0.500000 38.367249)" stroke="#E1DEFC" stroke-opacity="1.000000" stroke-width="1.000000"/>
	<rect id="viber (3) 1" rx="0.000000" width="17.140991" height="16.490265" transform="translate(11.586182 11.188507)" fill="#FFFFFF" fill-opacity="0"/>
	<g clip-path="url(#clip523_657)">
		<path id="XMLID_8_" d="M26.6 18.02C26.62 15.56 24.44 13.3 21.74 12.98C21.69 12.98 21.63 12.97 21.57 12.96C21.44 12.94 21.3 12.92 21.16 12.92C20.6 12.92 20.46 13.29 20.42 13.51C20.38 13.73 20.42 13.91 20.53 14.06C20.71 14.3 21.03 14.34 21.29 14.37C21.37 14.38 21.44 14.39 21.5 14.41C23.92 14.93 24.74 15.75 25.14 18.07C25.15 18.12 25.15 18.19 25.16 18.27C25.17 18.55 25.21 19.12 25.85 19.12L25.85 19.12C25.91 19.12 25.96 19.12 26.02 19.11C26.62 19.02 26.6 18.49 26.6 18.24C26.59 18.17 26.59 18.1 26.6 18.06C26.6 18.05 26.6 18.03 26.6 18.02Z" fill="#5B45FF" fill-opacity="1.000000" fill-rule="nonzero"/>
		<path id="XMLID_9_" d="M21 12.08C21.07 12.08 21.14 12.09 21.2 12.1C25.18 12.69 27.01 14.51 27.52 18.38C27.53 18.44 27.53 18.52 27.53 18.61C27.54 18.91 27.55 19.54 28.25 19.55L28.27 19.55C28.49 19.55 28.66 19.49 28.79 19.36C29.01 19.14 28.99 18.82 28.98 18.55C28.98 18.49 28.97 18.43 28.97 18.37C29.02 14.42 25.47 10.83 21.37 10.69C21.35 10.69 21.34 10.69 21.32 10.7C21.31 10.7 21.3 10.7 21.27 10.7C21.23 10.7 21.18 10.7 21.13 10.69C21.06 10.69 20.99 10.68 20.91 10.68C20.26 10.68 20.14 11.13 20.12 11.4C20.09 12.01 20.7 12.06 21 12.08Z" fill="#5B45FF" fill-opacity="1.000000" fill-rule="nonzero"/>
		<path id="XMLID_10_" d="M27.33 23.38C27.24 23.32 27.15 23.25 27.07 23.19C26.64 22.85 26.18 22.54 25.73 22.24C25.64 22.18 25.54 22.11 25.45 22.05C24.88 21.66 24.36 21.47 23.87 21.47C23.22 21.47 22.65 21.82 22.18 22.51C21.97 22.82 21.71 22.97 21.4 22.97C21.22 22.97 21.01 22.92 20.78 22.81C18.93 22.01 17.61 20.77 16.85 19.13C16.49 18.34 16.6 17.82 17.25 17.4C17.61 17.16 18.29 16.72 18.24 15.87C18.19 14.9 15.98 11.99 15.04 11.66C14.65 11.52 14.23 11.52 13.81 11.66C12.74 12 11.97 12.61 11.59 13.42C11.21 14.2 11.23 15.11 11.63 16.07C12.8 18.82 14.43 21.22 16.49 23.2C18.51 25.14 20.99 26.72 23.86 27.92C24.12 28.02 24.39 28.08 24.59 28.13C24.66 28.14 24.72 28.15 24.76 28.16C24.78 28.17 24.81 28.17 24.83 28.17L24.86 28.17C24.86 28.17 24.86 28.17 24.86 28.17C26.21 28.17 27.83 26.98 28.33 25.63C28.76 24.44 27.97 23.85 27.33 23.38Z" fill="#5B45FF" fill-opacity="1.000000" fill-rule="nonzero"/>
		<path id="XMLID_11_" d="M21.6 15.22C21.37 15.23 20.89 15.24 20.72 15.71C20.64 15.93 20.65 16.12 20.75 16.28C20.89 16.51 21.16 16.58 21.41 16.62C22.32 16.76 22.79 17.25 22.88 18.14C22.92 18.56 23.21 18.85 23.59 18.85L23.59 18.85C23.62 18.85 23.65 18.85 23.67 18.85C24.12 18.8 24.34 18.48 24.32 17.9C24.33 17.3 24 16.61 23.45 16.06C22.89 15.52 22.21 15.21 21.6 15.22Z" fill="#5B45FF" fill-opacity="1.000000" fill-rule="nonzero"/>
	</g>
</svg>
