<svg width="16.000000" height="16.000000" viewBox="0 0 16 16" fill="none" xmlns="http://www.w3.org/2000/svg" xmlns:xlink="http://www.w3.org/1999/xlink">
	<desc>
			Created with Pixso.
	</desc>
	<defs>
		<clipPath id="clip523_711">
			<rect id="phone-receiver-silhouette (9) 1" rx="0.000000" width="15.000000" height="15.000000" transform="translate(0.500000 0.500000)" fill="white" fill-opacity="0"/>
		</clipPath>
	</defs>
	<rect id="phone-receiver-silhouette (9) 1" rx="0.000000" width="15.000000" height="15.000000" transform="translate(0.500000 0.500000)" fill="#FFFFFF" fill-opacity="0"/>
	<g clip-path="url(#clip523_711)">
		<path id="Vector" d="M13.78 11.13C12.81 10.3 11.83 9.8 10.88 10.63L10.31 11.13C9.89 11.49 9.12 13.18 6.12 9.73C3.12 6.29 4.9 5.75 5.32 5.39L5.89 4.89C6.84 4.07 6.49 3.02 5.8 1.95L5.39 1.3C4.7 0.23 3.95 -0.47 3 0.36L2.48 0.81C2.06 1.11 0.89 2.11 0.6 4C0.26 6.27 1.34 8.88 3.82 11.73C6.3 14.59 8.73 16.02 11.03 15.99C12.94 15.97 14.09 14.95 14.45 14.58L14.97 14.13C15.92 13.3 15.33 12.46 14.36 11.63L13.78 11.13Z" fill="#FFFFFF" fill-opacity="1.000000" fill-rule="nonzero"/>
	</g>
</svg>
