<svg width="64.000000" height="64.000000" viewBox="0 0 64 64" fill="none" xmlns="http://www.w3.org/2000/svg" xmlns:xlink="http://www.w3.org/1999/xlink">
	<desc>
			Created with Pixso.
	</desc>
	<defs/>
	<path id="Vector" d="M50.82 3.76L50.82 0L47.05 0L47.05 3.76L39.52 3.76L39.52 0L35.76 0L35.76 3.76L28.23 3.76L28.23 0L24.47 0L24.47 3.76L16.94 3.76L16.94 0L13.17 0L13.17 3.76L0 3.76L0 64L64 64L64 3.76L50.82 3.76ZM13.17 7.52L13.17 11.29L16.94 11.29L16.94 7.52L24.47 7.52L24.47 11.29L28.23 11.29L28.23 7.52L35.76 7.52L35.76 11.29L39.52 11.29L39.52 7.52L47.05 7.52L47.05 11.29L50.82 11.29L50.82 7.52L60.23 7.52L60.23 15.05L3.76 15.05L3.76 7.52L13.17 7.52ZM3.76 60.23L3.76 18.82L60.23 18.82L60.23 60.23L3.76 60.23Z" fill="#EF584E" fill-opacity="1.000000" fill-rule="nonzero"/>
</svg>
