<svg width="40.313324" height="38.867249" viewBox="0 0 40.3133 38.8672" fill="none" xmlns="http://www.w3.org/2000/svg" xmlns:xlink="http://www.w3.org/1999/xlink">
	<desc>
			Created with Pixso.
	</desc>
	<defs>
		<clipPath id="clip523_648">
			<rect id="whatsapp (7) 1" rx="0.000000" width="17.140991" height="16.490265" transform="translate(11.586121 11.188507)" fill="white" fill-opacity="0"/>
		</clipPath>
	</defs>
	<rect id="Rectangle 6" x="0.500000" y="38.367249" rx="12.000000" width="37.867256" height="39.313316" transform="rotate(-90 0.500000 38.367249)" stroke="#E1DEFC" stroke-opacity="1.000000" stroke-width="1.000000"/>
	<rect id="whatsapp (7) 1" rx="0.000000" width="17.140991" height="16.490265" transform="translate(11.586121 11.188507)" fill="#FFFFFF" fill-opacity="0"/>
	<g clip-path="url(#clip523_648)">
		<path id="Vector" d="M26.17 13.6C24.58 12.07 22.46 11.22 20.21 11.22C15.56 11.22 11.78 14.87 11.78 19.35C11.78 20.78 12.17 22.18 12.9 23.41L11.71 27.62L16.18 26.49C17.41 27.14 18.79 27.48 20.2 27.48L20.21 27.48C24.85 27.48 28.63 23.83 28.63 19.35C28.63 17.18 27.76 15.14 26.17 13.6ZM20.21 26.11L20.2 26.11C18.95 26.11 17.71 25.78 16.64 25.16L16.38 25.02L13.73 25.69L14.44 23.2L14.27 22.94C13.57 21.87 13.2 20.62 13.2 19.35C13.2 15.62 16.35 12.59 20.21 12.59C22.08 12.59 23.84 13.3 25.16 14.57C26.48 15.85 27.21 17.55 27.21 19.35C27.21 23.08 24.07 26.11 20.21 26.11ZM24.05 21.05C23.84 20.95 22.8 20.45 22.61 20.39C22.42 20.32 22.28 20.29 22.14 20.49C22 20.69 21.59 21.15 21.47 21.28C21.35 21.42 21.22 21.44 21.01 21.34C20.8 21.23 20.12 21.02 19.32 20.33C18.69 19.79 18.27 19.12 18.15 18.92C18.03 18.72 18.15 18.62 18.24 18.51C18.47 18.23 18.7 17.95 18.77 17.81C18.84 17.68 18.8 17.56 18.75 17.46C18.7 17.36 18.28 16.36 18.1 15.95C17.93 15.55 17.76 15.61 17.63 15.6C17.5 15.6 17.36 15.59 17.22 15.59C17.08 15.59 16.85 15.64 16.66 15.85C16.47 16.05 15.92 16.54 15.92 17.54C15.92 18.54 16.68 19.51 16.78 19.64C16.89 19.78 18.27 21.83 20.38 22.71C20.88 22.92 21.28 23.04 21.58 23.14C22.09 23.29 22.54 23.27 22.91 23.22C23.31 23.16 24.15 22.72 24.33 22.25C24.5 21.78 24.5 21.37 24.45 21.28C24.4 21.2 24.26 21.15 24.05 21.05Z" fill="#5B45FF" fill-opacity="1.000000" fill-rule="evenodd"/>
	</g>
</svg>
