<svg width="30.000000" height="26.000000" viewBox="0 0 30 26" fill="none" xmlns="http://www.w3.org/2000/svg" xmlns:xlink="http://www.w3.org/1999/xlink">
	<desc>
			Created with Pixso.
	</desc>
	<defs>
		<clipPath id="clip25_68">
			<rect id="video 1" rx="0.000000" width="29.000000" height="25.000000" transform="translate(0.500000 0.500000)" fill="white" fill-opacity="0"/>
		</clipPath>
	</defs>
	<rect id="video 1" rx="0.000000" width="29.000000" height="25.000000" transform="translate(0.500000 0.500000)" fill="#FFFFFF" fill-opacity="0"/>
	<g clip-path="url(#clip25_68)">
		<path id="Vector" d="M19.39 18.9L27.2 13.75L19.39 8.6L19.39 18.9ZM21.15 11.87L24 13.75L21.15 15.63L21.15 11.87Z" fill="#FFCF3C" fill-opacity="1.000000" fill-rule="nonzero"/>
		<path id="Vector" d="M15.16 4.02C14.88 3.88 10.79 0.57 4.39 0.57L3.51 0.57L3.51 3.54C1.65 3.82 0.4 4.18 0 4.28L0 25.42C0.61 25.34 6.78 23.15 14.78 25.15L15 25.2L15.21 25.15C23.21 23.15 29.38 25.34 30 25.42L30 4.28C29.59 4.22 23.22 2.11 15.16 4.02ZM1.75 23.19L1.75 5.66C2.33 5.53 2.92 5.41 3.51 5.32L3.51 21.66L4.39 21.66C6.28 21.66 8.18 21.99 9.97 22.62C7.22 22.44 4.45 22.63 1.75 23.19ZM14.12 22.67C11.48 21.03 8.39 20.08 5.27 19.92L5.27 2.35C10.56 2.63 13.85 5.3 14.12 5.43L14.12 22.67ZM28.24 23.19C24.17 22.34 19.94 22.34 15.87 23.19L15.87 5.66C19.93 4.75 24.18 4.75 28.24 5.66L28.24 23.19Z" fill="#FFCF3C" fill-opacity="1.000000" fill-rule="nonzero"/>
	</g>
</svg>
