<svg width="80.000000" height="62.519775" viewBox="0 0 80 62.5198" fill="none" xmlns="http://www.w3.org/2000/svg" xmlns:xlink="http://www.w3.org/1999/xlink">
	<desc>
			Created with Pixso.
	</desc>
	<defs/>
	<path id="Vector" d="M0 0L0 62.51L80 62.51L80 0L0 0ZM21.22 57.62L4.89 57.62L4.89 39.66L21.22 39.66L21.22 57.62ZM21.22 34.76L4.89 34.76L4.89 16.8L21.22 16.8L21.22 34.76ZM34.69 57.62L26.12 57.62L26.12 51.09L34.69 51.09L34.69 57.62ZM34.69 46.19L26.12 46.19L26.12 39.66L34.69 39.66L34.69 46.19ZM34.69 34.76L26.12 34.76L26.12 28.23L34.69 28.23L34.69 34.76ZM34.69 23.33L26.12 23.33L26.12 16.8L34.69 16.8L34.69 23.33ZM48.16 57.62L39.59 57.62L39.59 51.09L48.16 51.09L48.16 57.62ZM48.16 46.19L39.59 46.19L39.59 39.66L48.16 39.66L48.16 46.19ZM48.16 34.76L39.59 34.76L39.59 28.23L48.16 28.23L48.16 34.76ZM48.16 23.33L39.59 23.33L39.59 16.8L48.16 16.8L48.16 23.33ZM61.63 57.62L53.06 57.62L53.06 51.09L61.63 51.09L61.63 57.62ZM61.63 46.19L53.06 46.19L53.06 39.66L61.63 39.66L61.63 46.19ZM61.63 34.76L53.06 34.76L53.06 28.23L61.63 28.23L61.63 34.76ZM61.63 23.33L53.06 23.33L53.06 16.8L61.63 16.8L61.63 23.33ZM75.1 57.62L66.53 57.62L66.53 51.09L75.1 51.09L75.1 57.62ZM75.1 46.19L66.53 46.19L66.53 39.66L75.1 39.66L75.1 46.19ZM75.1 34.76L66.53 34.76L66.53 28.23L75.1 28.23L75.1 34.76ZM75.1 23.33L66.53 23.33L66.53 16.8L75.1 16.8L75.1 23.33ZM75.1 11.9L4.89 11.9L4.89 4.89L75.1 4.89L75.1 11.9Z" fill="#FFCF3C" fill-opacity="1.000000" fill-rule="nonzero"/>
</svg>
