<svg width="40.313316" height="38.867249" viewBox="0 0 40.3133 38.8672" fill="none" xmlns="http://www.w3.org/2000/svg" xmlns:xlink="http://www.w3.org/1999/xlink">
	<desc>
			Created with Pixso.
	</desc>
	<defs>
		<clipPath id="clip25_99">
			<rect id="youtube (4) 1" rx="0.000000" width="15.125326" height="14.546903" transform="matrix(1 0 0 -1 12.594 27.7071)" fill="white" fill-opacity="0"/>
		</clipPath>
	</defs>
	<rect id="Rectangle 6" x="0.500002" y="38.367249" rx="12.000000" width="37.867256" height="39.313316" transform="rotate(-90 0.500002 38.367249)" stroke="#E1DEFC" stroke-opacity="1.000000" stroke-width="1.000000"/>
	<rect id="youtube (4) 1" rx="0.000000" width="15.125326" height="14.546903" transform="matrix(1 0 0 -1 12.594 27.7071)" fill="#FFFFFF" fill-opacity="0"/>
	<g clip-path="url(#clip25_99)">
		<path id="Vector" d="M27.39 23.07C27.22 23.7 26.71 24.19 26.06 24.36C24.88 24.67 20.14 24.67 20.14 24.67C20.14 24.67 15.41 24.67 14.23 24.37C13.59 24.2 13.07 23.7 12.9 23.07C12.59 21.93 12.59 19.57 12.59 19.57C12.59 19.57 12.59 17.19 12.9 16.06C13.07 15.44 13.58 14.94 14.23 14.78C15.42 14.46 20.14 14.46 20.14 14.46C20.14 14.46 24.88 14.46 26.06 14.76C26.71 14.93 27.22 15.42 27.39 16.05C27.7 17.19 27.7 19.55 27.7 19.55C27.7 19.55 27.71 21.93 27.39 23.07ZM18.64 17.38L18.64 21.75L22.57 19.57L18.64 17.38Z" fill="#5B45FF" fill-opacity="1.000000" fill-rule="nonzero"/>
	</g>
</svg>
